M48
; DRILL file {KiCad 5.1.8-db9833491~88~ubuntu20.04.1} date Sun Feb 21 13:37:25 2021
; FORMAT={-:-/ absolute / metric / decimal}
; #@! TF.CreationDate,2021-02-21T13:37:25+01:00
; #@! TF.GenerationSoftware,Kicad,Pcbnew,5.1.8-db9833491~88~ubuntu20.04.1
FMAT,2
METRIC
T1C0.300
T2C0.650
T3C1.900
%
G90
G05
T1
X0.58Y0.58
X0.9Y5.5
X1.9Y5.4
X3.0Y5.5
X3.075Y13.3
X3.98Y11.77
X4.5Y14.24
X4.66Y11.77
X5.25Y4.6
X5.25Y3.825
X5.33Y11.77
X5.38Y0.58
X5.97Y12.48
X6.025Y13.575
X7.175Y1.55
X7.825Y12.275
X8.65Y14.1
X8.775Y1.55
X9.05Y15.325
X9.075Y18.35
X9.55Y8.325
X9.6Y4.875
X9.675Y7.225
X9.725Y6.35
X10.0Y4.025
X10.525Y3.2
X10.55Y11.55
X10.65Y14.175
X10.75Y4.8
X11.125Y1.625
X11.175Y16.125
X12.075Y3.175
X12.2Y8.025
X12.35Y4.775
X12.6Y15.175
X13.05Y14.425
X13.1Y6.55
X13.55Y11.45
X13.875Y3.775
X14.475Y3.025
X14.75Y11.45
X14.9Y6.275
X15.075Y14.8
X15.15Y5.19
X15.65Y3.8
X15.795Y6.277
X16.2Y16.05
X16.71Y3.45
X16.78Y4.65
X17.05Y5.58
X17.1Y14.95
X17.72Y4.4
X18.4Y11.3
X18.475Y6.45
X18.475Y5.1
X19.16Y4.44
X19.7Y6.3
X20.2Y11.3
X20.3Y14.575
X20.55Y10.075
X20.925Y3.775
X20.95Y5.6
X21.45Y12.85
X22.15Y6.65
X22.175Y3.175
X22.2Y15.8
X23.15Y15.8
X23.35Y5.75
X23.375Y8.75
X23.375Y3.675
X23.475Y14.9
X24.125Y14.375
X24.43Y3.88
X24.51Y6.1
X25.125Y14.3
X25.125Y13.45
X25.125Y9.975
X25.125Y8.95
X25.3Y17.25
X26.225Y10.625
X26.225Y8.3
X26.25Y12.75
X26.725Y11.675
X27.25Y17.0
X27.35Y18.2
X27.7Y17.55
X27.8Y8.3
X28.05Y18.2
X28.15Y17.0
X29.5Y15.35
X29.5Y14.25
X29.5Y13.05
X29.5Y11.9
X29.5Y10.8
X29.5Y8.2
X29.5Y7.25
X29.5Y6.35
X29.5Y5.45
X29.5Y4.5
X29.5Y3.6
X29.5Y2.65
X29.5Y1.7
X29.5Y0.8
T2
X26.725Y6.23
X26.725Y4.96
X26.725Y3.69
X26.725Y2.42
X26.725Y1.15
T3
X2.15Y11.75
X2.15Y7.25
T0
M30
