%TF.GenerationSoftware,KiCad,Pcbnew,5.1.8-db9833491~88~ubuntu20.04.1*%
%TF.CreationDate,2021-02-21T13:37:15+01:00*%
%TF.ProjectId,RF_STICK,52465f53-5449-4434-9b2e-6b696361645f,rev?*%
%TF.SameCoordinates,PX8f0d180PY41cdb40*%
%TF.FileFunction,Legend,Bot*%
%TF.FilePolarity,Positive*%
%FSLAX46Y46*%
G04 Gerber Fmt 4.6, Leading zero omitted, Abs format (unit mm)*
G04 Created by KiCad (PCBNEW 5.1.8-db9833491~88~ubuntu20.04.1) date 2021-02-21 13:37:15*
%MOMM*%
%LPD*%
G01*
G04 APERTURE LIST*
%ADD10C,0.120000*%
%ADD11C,0.150000*%
G04 APERTURE END LIST*
D10*
%TO.C,R10*%
X4087221Y8260000D02*
X4412779Y8260000D01*
X4087221Y9280000D02*
X4412779Y9280000D01*
%TO.C,C8*%
X4087221Y9720000D02*
X4412779Y9720000D01*
X4087221Y10740000D02*
X4412779Y10740000D01*
%TO.C,U5*%
X12390000Y4700000D02*
X12390000Y7460000D01*
X12390000Y7460000D02*
X12665000Y7460000D01*
X12390000Y4700000D02*
X12390000Y1940000D01*
X12390000Y1940000D02*
X12665000Y1940000D01*
X19810000Y4700000D02*
X19810000Y7460000D01*
X19810000Y7460000D02*
X19535000Y7460000D01*
X19810000Y4700000D02*
X19810000Y1940000D01*
X19810000Y1940000D02*
X19535000Y1940000D01*
X19535000Y1940000D02*
X19535000Y250000D01*
%TO.C,R4*%
X24935000Y2162779D02*
X24935000Y1837221D01*
X23915000Y2162779D02*
X23915000Y1837221D01*
%TO.C,U4*%
X9360000Y9150000D02*
X9360000Y6700000D01*
X6140000Y7350000D02*
X6140000Y9150000D01*
%TO.C,R9*%
X12275279Y9990000D02*
X11949721Y9990000D01*
X12275279Y11010000D02*
X11949721Y11010000D01*
%TO.C,R8*%
X15262779Y11010000D02*
X14937221Y11010000D01*
X15262779Y9990000D02*
X14937221Y9990000D01*
%TO.C,R7*%
X8612221Y1815000D02*
X8937779Y1815000D01*
X8612221Y2835000D02*
X8937779Y2835000D01*
%TO.C,R6*%
X8612221Y290000D02*
X8937779Y290000D01*
X8612221Y1310000D02*
X8937779Y1310000D01*
%TO.C,C9*%
X21410000Y7662779D02*
X21410000Y7337221D01*
X20390000Y7662779D02*
X20390000Y7337221D01*
%TO.C,C7*%
X8025279Y12540000D02*
X7699721Y12540000D01*
X8025279Y13560000D02*
X7699721Y13560000D01*
%TO.C,C6*%
X18141422Y9690000D02*
X18658578Y9690000D01*
X18141422Y11110000D02*
X18658578Y11110000D01*
%TO.C,C5*%
X20390000Y1837221D02*
X20390000Y2162779D01*
X21410000Y1837221D02*
X21410000Y2162779D01*
%TO.C,C4*%
X8008578Y10540000D02*
X7491422Y10540000D01*
X8008578Y11960000D02*
X7491422Y11960000D01*
%TO.C,C3*%
X8212779Y3140000D02*
X7887221Y3140000D01*
X8212779Y4160000D02*
X7887221Y4160000D01*
%TO.C,C2*%
X8046078Y4640000D02*
X7528922Y4640000D01*
X8046078Y6060000D02*
X7528922Y6060000D01*
%TO.C,U1*%
X21160000Y15300000D02*
X21160000Y11850000D01*
X21160000Y15300000D02*
X21160000Y17250000D01*
X11040000Y15300000D02*
X11040000Y13350000D01*
X11040000Y15300000D02*
X11040000Y17250000D01*
%TO.C,R10*%
X1854285Y8638096D02*
X2120952Y9019048D01*
X2311428Y8638096D02*
X2311428Y9438096D01*
X2006666Y9438096D01*
X1930476Y9400000D01*
X1892380Y9361905D01*
X1854285Y9285715D01*
X1854285Y9171429D01*
X1892380Y9095239D01*
X1930476Y9057143D01*
X2006666Y9019048D01*
X2311428Y9019048D01*
X1092380Y8638096D02*
X1549523Y8638096D01*
X1320952Y8638096D02*
X1320952Y9438096D01*
X1397142Y9323810D01*
X1473333Y9247620D01*
X1549523Y9209524D01*
X597142Y9438096D02*
X520952Y9438096D01*
X444761Y9400000D01*
X406666Y9361905D01*
X368571Y9285715D01*
X330476Y9133334D01*
X330476Y8942858D01*
X368571Y8790477D01*
X406666Y8714286D01*
X444761Y8676191D01*
X520952Y8638096D01*
X597142Y8638096D01*
X673333Y8676191D01*
X711428Y8714286D01*
X749523Y8790477D01*
X787619Y8942858D01*
X787619Y9133334D01*
X749523Y9285715D01*
X711428Y9361905D01*
X673333Y9400000D01*
X597142Y9438096D01*
%TO.C,C8*%
X1103333Y9714286D02*
X1141428Y9676191D01*
X1255714Y9638096D01*
X1331904Y9638096D01*
X1446190Y9676191D01*
X1522380Y9752381D01*
X1560476Y9828572D01*
X1598571Y9980953D01*
X1598571Y10095239D01*
X1560476Y10247620D01*
X1522380Y10323810D01*
X1446190Y10400000D01*
X1331904Y10438096D01*
X1255714Y10438096D01*
X1141428Y10400000D01*
X1103333Y10361905D01*
X646190Y10095239D02*
X722380Y10133334D01*
X760476Y10171429D01*
X798571Y10247620D01*
X798571Y10285715D01*
X760476Y10361905D01*
X722380Y10400000D01*
X646190Y10438096D01*
X493809Y10438096D01*
X417619Y10400000D01*
X379523Y10361905D01*
X341428Y10285715D01*
X341428Y10247620D01*
X379523Y10171429D01*
X417619Y10133334D01*
X493809Y10095239D01*
X646190Y10095239D01*
X722380Y10057143D01*
X760476Y10019048D01*
X798571Y9942858D01*
X798571Y9790477D01*
X760476Y9714286D01*
X722380Y9676191D01*
X646190Y9638096D01*
X493809Y9638096D01*
X417619Y9676191D01*
X379523Y9714286D01*
X341428Y9790477D01*
X341428Y9942858D01*
X379523Y10019048D01*
X417619Y10057143D01*
X493809Y10095239D01*
%TO.C,U5*%
D11*
X20102380Y5461905D02*
X20911904Y5461905D01*
X21007142Y5414286D01*
X21054761Y5366667D01*
X21102380Y5271429D01*
X21102380Y5080953D01*
X21054761Y4985715D01*
X21007142Y4938096D01*
X20911904Y4890477D01*
X20102380Y4890477D01*
X20102380Y3938096D02*
X20102380Y4414286D01*
X20578571Y4461905D01*
X20530952Y4414286D01*
X20483333Y4319048D01*
X20483333Y4080953D01*
X20530952Y3985715D01*
X20578571Y3938096D01*
X20673809Y3890477D01*
X20911904Y3890477D01*
X21007142Y3938096D01*
X21054761Y3985715D01*
X21102380Y4080953D01*
X21102380Y4319048D01*
X21054761Y4414286D01*
X21007142Y4461905D01*
%TO.C,R4*%
D10*
X23641904Y2133334D02*
X23260952Y2400000D01*
X23641904Y2590477D02*
X22841904Y2590477D01*
X22841904Y2285715D01*
X22880000Y2209524D01*
X22918095Y2171429D01*
X22994285Y2133334D01*
X23108571Y2133334D01*
X23184761Y2171429D01*
X23222857Y2209524D01*
X23260952Y2285715D01*
X23260952Y2590477D01*
X23108571Y1447620D02*
X23641904Y1447620D01*
X22803809Y1638096D02*
X23375238Y1828572D01*
X23375238Y1333334D01*
%TO.C,U4*%
D11*
X9982380Y9036905D02*
X10791904Y9036905D01*
X10887142Y8989286D01*
X10934761Y8941667D01*
X10982380Y8846429D01*
X10982380Y8655953D01*
X10934761Y8560715D01*
X10887142Y8513096D01*
X10791904Y8465477D01*
X9982380Y8465477D01*
X10315714Y7560715D02*
X10982380Y7560715D01*
X9934761Y7798810D02*
X10649047Y8036905D01*
X10649047Y7417858D01*
%TO.C,R9*%
X21941666Y10047620D02*
X22275000Y10523810D01*
X22513095Y10047620D02*
X22513095Y11047620D01*
X22132142Y11047620D01*
X22036904Y11000000D01*
X21989285Y10952381D01*
X21941666Y10857143D01*
X21941666Y10714286D01*
X21989285Y10619048D01*
X22036904Y10571429D01*
X22132142Y10523810D01*
X22513095Y10523810D01*
X21465476Y10047620D02*
X21275000Y10047620D01*
X21179761Y10095239D01*
X21132142Y10142858D01*
X21036904Y10285715D01*
X20989285Y10476191D01*
X20989285Y10857143D01*
X21036904Y10952381D01*
X21084523Y11000000D01*
X21179761Y11047620D01*
X21370238Y11047620D01*
X21465476Y11000000D01*
X21513095Y10952381D01*
X21560714Y10857143D01*
X21560714Y10619048D01*
X21513095Y10523810D01*
X21465476Y10476191D01*
X21370238Y10428572D01*
X21179761Y10428572D01*
X21084523Y10476191D01*
X21036904Y10523810D01*
X20989285Y10619048D01*
%TO.C,R8*%
X24241666Y10072620D02*
X24575000Y10548810D01*
X24813095Y10072620D02*
X24813095Y11072620D01*
X24432142Y11072620D01*
X24336904Y11025000D01*
X24289285Y10977381D01*
X24241666Y10882143D01*
X24241666Y10739286D01*
X24289285Y10644048D01*
X24336904Y10596429D01*
X24432142Y10548810D01*
X24813095Y10548810D01*
X23670238Y10644048D02*
X23765476Y10691667D01*
X23813095Y10739286D01*
X23860714Y10834524D01*
X23860714Y10882143D01*
X23813095Y10977381D01*
X23765476Y11025000D01*
X23670238Y11072620D01*
X23479761Y11072620D01*
X23384523Y11025000D01*
X23336904Y10977381D01*
X23289285Y10882143D01*
X23289285Y10834524D01*
X23336904Y10739286D01*
X23384523Y10691667D01*
X23479761Y10644048D01*
X23670238Y10644048D01*
X23765476Y10596429D01*
X23813095Y10548810D01*
X23860714Y10453572D01*
X23860714Y10263096D01*
X23813095Y10167858D01*
X23765476Y10120239D01*
X23670238Y10072620D01*
X23479761Y10072620D01*
X23384523Y10120239D01*
X23336904Y10167858D01*
X23289285Y10263096D01*
X23289285Y10453572D01*
X23336904Y10548810D01*
X23384523Y10596429D01*
X23479761Y10644048D01*
%TO.C,R7*%
X4316666Y1797620D02*
X4650000Y2273810D01*
X4888095Y1797620D02*
X4888095Y2797620D01*
X4507142Y2797620D01*
X4411904Y2750000D01*
X4364285Y2702381D01*
X4316666Y2607143D01*
X4316666Y2464286D01*
X4364285Y2369048D01*
X4411904Y2321429D01*
X4507142Y2273810D01*
X4888095Y2273810D01*
X3983333Y2797620D02*
X3316666Y2797620D01*
X3745238Y1797620D01*
%TO.C,R6*%
X4316666Y422620D02*
X4650000Y898810D01*
X4888095Y422620D02*
X4888095Y1422620D01*
X4507142Y1422620D01*
X4411904Y1375000D01*
X4364285Y1327381D01*
X4316666Y1232143D01*
X4316666Y1089286D01*
X4364285Y994048D01*
X4411904Y946429D01*
X4507142Y898810D01*
X4888095Y898810D01*
X3459523Y1422620D02*
X3650000Y1422620D01*
X3745238Y1375000D01*
X3792857Y1327381D01*
X3888095Y1184524D01*
X3935714Y994048D01*
X3935714Y613096D01*
X3888095Y517858D01*
X3840476Y470239D01*
X3745238Y422620D01*
X3554761Y422620D01*
X3459523Y470239D01*
X3411904Y517858D01*
X3364285Y613096D01*
X3364285Y851191D01*
X3411904Y946429D01*
X3459523Y994048D01*
X3554761Y1041667D01*
X3745238Y1041667D01*
X3840476Y994048D01*
X3888095Y946429D01*
X3935714Y851191D01*
%TO.C,C9*%
X22657142Y7666667D02*
X22704761Y7714286D01*
X22752380Y7857143D01*
X22752380Y7952381D01*
X22704761Y8095239D01*
X22609523Y8190477D01*
X22514285Y8238096D01*
X22323809Y8285715D01*
X22180952Y8285715D01*
X21990476Y8238096D01*
X21895238Y8190477D01*
X21800000Y8095239D01*
X21752380Y7952381D01*
X21752380Y7857143D01*
X21800000Y7714286D01*
X21847619Y7666667D01*
X22752380Y7190477D02*
X22752380Y7000000D01*
X22704761Y6904762D01*
X22657142Y6857143D01*
X22514285Y6761905D01*
X22323809Y6714286D01*
X21942857Y6714286D01*
X21847619Y6761905D01*
X21800000Y6809524D01*
X21752380Y6904762D01*
X21752380Y7095239D01*
X21800000Y7190477D01*
X21847619Y7238096D01*
X21942857Y7285715D01*
X22180952Y7285715D01*
X22276190Y7238096D01*
X22323809Y7190477D01*
X22371428Y7095239D01*
X22371428Y6904762D01*
X22323809Y6809524D01*
X22276190Y6761905D01*
X22180952Y6714286D01*
%TO.C,C7*%
X5504166Y12497858D02*
X5551785Y12450239D01*
X5694642Y12402620D01*
X5789880Y12402620D01*
X5932738Y12450239D01*
X6027976Y12545477D01*
X6075595Y12640715D01*
X6123214Y12831191D01*
X6123214Y12974048D01*
X6075595Y13164524D01*
X6027976Y13259762D01*
X5932738Y13355000D01*
X5789880Y13402620D01*
X5694642Y13402620D01*
X5551785Y13355000D01*
X5504166Y13307381D01*
X5170833Y13402620D02*
X4504166Y13402620D01*
X4932738Y12402620D01*
%TO.C,C6*%
X26536666Y10167858D02*
X26584285Y10120239D01*
X26727142Y10072620D01*
X26822380Y10072620D01*
X26965238Y10120239D01*
X27060476Y10215477D01*
X27108095Y10310715D01*
X27155714Y10501191D01*
X27155714Y10644048D01*
X27108095Y10834524D01*
X27060476Y10929762D01*
X26965238Y11025000D01*
X26822380Y11072620D01*
X26727142Y11072620D01*
X26584285Y11025000D01*
X26536666Y10977381D01*
X25679523Y11072620D02*
X25870000Y11072620D01*
X25965238Y11025000D01*
X26012857Y10977381D01*
X26108095Y10834524D01*
X26155714Y10644048D01*
X26155714Y10263096D01*
X26108095Y10167858D01*
X26060476Y10120239D01*
X25965238Y10072620D01*
X25774761Y10072620D01*
X25679523Y10120239D01*
X25631904Y10167858D01*
X25584285Y10263096D01*
X25584285Y10501191D01*
X25631904Y10596429D01*
X25679523Y10644048D01*
X25774761Y10691667D01*
X25965238Y10691667D01*
X26060476Y10644048D01*
X26108095Y10596429D01*
X26155714Y10501191D01*
%TO.C,C5*%
D10*
X22405714Y2133334D02*
X22443809Y2171429D01*
X22481904Y2285715D01*
X22481904Y2361905D01*
X22443809Y2476191D01*
X22367619Y2552381D01*
X22291428Y2590477D01*
X22139047Y2628572D01*
X22024761Y2628572D01*
X21872380Y2590477D01*
X21796190Y2552381D01*
X21720000Y2476191D01*
X21681904Y2361905D01*
X21681904Y2285715D01*
X21720000Y2171429D01*
X21758095Y2133334D01*
X21681904Y1409524D02*
X21681904Y1790477D01*
X22062857Y1828572D01*
X22024761Y1790477D01*
X21986666Y1714286D01*
X21986666Y1523810D01*
X22024761Y1447620D01*
X22062857Y1409524D01*
X22139047Y1371429D01*
X22329523Y1371429D01*
X22405714Y1409524D01*
X22443809Y1447620D01*
X22481904Y1523810D01*
X22481904Y1714286D01*
X22443809Y1790477D01*
X22405714Y1828572D01*
%TO.C,C4*%
D11*
X5391666Y10917858D02*
X5439285Y10870239D01*
X5582142Y10822620D01*
X5677380Y10822620D01*
X5820238Y10870239D01*
X5915476Y10965477D01*
X5963095Y11060715D01*
X6010714Y11251191D01*
X6010714Y11394048D01*
X5963095Y11584524D01*
X5915476Y11679762D01*
X5820238Y11775000D01*
X5677380Y11822620D01*
X5582142Y11822620D01*
X5439285Y11775000D01*
X5391666Y11727381D01*
X4534523Y11489286D02*
X4534523Y10822620D01*
X4772619Y11870239D02*
X5010714Y11155953D01*
X4391666Y11155953D01*
%TO.C,C3*%
X4316666Y3217858D02*
X4364285Y3170239D01*
X4507142Y3122620D01*
X4602380Y3122620D01*
X4745238Y3170239D01*
X4840476Y3265477D01*
X4888095Y3360715D01*
X4935714Y3551191D01*
X4935714Y3694048D01*
X4888095Y3884524D01*
X4840476Y3979762D01*
X4745238Y4075000D01*
X4602380Y4122620D01*
X4507142Y4122620D01*
X4364285Y4075000D01*
X4316666Y4027381D01*
X3983333Y4122620D02*
X3364285Y4122620D01*
X3697619Y3741667D01*
X3554761Y3741667D01*
X3459523Y3694048D01*
X3411904Y3646429D01*
X3364285Y3551191D01*
X3364285Y3313096D01*
X3411904Y3217858D01*
X3459523Y3170239D01*
X3554761Y3122620D01*
X3840476Y3122620D01*
X3935714Y3170239D01*
X3983333Y3217858D01*
%TO.C,C2*%
X4291666Y4892858D02*
X4339285Y4845239D01*
X4482142Y4797620D01*
X4577380Y4797620D01*
X4720238Y4845239D01*
X4815476Y4940477D01*
X4863095Y5035715D01*
X4910714Y5226191D01*
X4910714Y5369048D01*
X4863095Y5559524D01*
X4815476Y5654762D01*
X4720238Y5750000D01*
X4577380Y5797620D01*
X4482142Y5797620D01*
X4339285Y5750000D01*
X4291666Y5702381D01*
X3910714Y5702381D02*
X3863095Y5750000D01*
X3767857Y5797620D01*
X3529761Y5797620D01*
X3434523Y5750000D01*
X3386904Y5702381D01*
X3339285Y5607143D01*
X3339285Y5511905D01*
X3386904Y5369048D01*
X3958333Y4797620D01*
X3339285Y4797620D01*
%TO.C,U1*%
X21452380Y16061905D02*
X22261904Y16061905D01*
X22357142Y16014286D01*
X22404761Y15966667D01*
X22452380Y15871429D01*
X22452380Y15680953D01*
X22404761Y15585715D01*
X22357142Y15538096D01*
X22261904Y15490477D01*
X21452380Y15490477D01*
X22452380Y14490477D02*
X22452380Y15061905D01*
X22452380Y14776191D02*
X21452380Y14776191D01*
X21595238Y14871429D01*
X21690476Y14966667D01*
X21738095Y15061905D01*
%TD*%
M02*
