%TF.GenerationSoftware,KiCad,Pcbnew,5.1.8-db9833491~88~ubuntu20.04.1*%
%TF.CreationDate,2021-02-21T13:37:15+01:00*%
%TF.ProjectId,RF_STICK,52465f53-5449-4434-9b2e-6b696361645f,rev?*%
%TF.SameCoordinates,PX8f0d180PY41cdb40*%
%TF.FileFunction,Copper,L2,Bot*%
%TF.FilePolarity,Positive*%
%FSLAX46Y46*%
G04 Gerber Fmt 4.6, Leading zero omitted, Abs format (unit mm)*
G04 Created by KiCad (PCBNEW 5.1.8-db9833491~88~ubuntu20.04.1) date 2021-02-21 13:37:15*
%MOMM*%
%LPD*%
G01*
G04 APERTURE LIST*
%TA.AperFunction,ComponentPad*%
%ADD10R,1.000000X1.000000*%
%TD*%
%TA.AperFunction,ComponentPad*%
%ADD11O,1.000000X1.000000*%
%TD*%
%TA.AperFunction,SMDPad,CuDef*%
%ADD12R,0.650000X1.060000*%
%TD*%
%TA.AperFunction,ComponentPad*%
%ADD13C,2.500000*%
%TD*%
%TA.AperFunction,ViaPad*%
%ADD14C,0.600000*%
%TD*%
%TA.AperFunction,Conductor*%
%ADD15C,0.254000*%
%TD*%
%TA.AperFunction,Conductor*%
%ADD16C,0.400000*%
%TD*%
%TA.AperFunction,Conductor*%
%ADD17C,0.800000*%
%TD*%
%TA.AperFunction,Conductor*%
%ADD18C,0.300000*%
%TD*%
%TA.AperFunction,Conductor*%
%ADD19C,0.200000*%
%TD*%
%TA.AperFunction,Conductor*%
%ADD20C,0.500000*%
%TD*%
%TA.AperFunction,Conductor*%
%ADD21C,0.600000*%
%TD*%
%TA.AperFunction,Conductor*%
%ADD22C,0.250000*%
%TD*%
%TA.AperFunction,Conductor*%
%ADD23C,2.500000*%
%TD*%
%TA.AperFunction,Conductor*%
%ADD24C,0.100000*%
%TD*%
G04 APERTURE END LIST*
%TO.P,R10,2*%
%TO.N,GND*%
%TA.AperFunction,SMDPad,CuDef*%
G36*
G01*
X4600000Y8513750D02*
X4600000Y9026250D01*
G75*
G02*
X4818750Y9245000I218750J0D01*
G01*
X5256250Y9245000D01*
G75*
G02*
X5475000Y9026250I0J-218750D01*
G01*
X5475000Y8513750D01*
G75*
G02*
X5256250Y8295000I-218750J0D01*
G01*
X4818750Y8295000D01*
G75*
G02*
X4600000Y8513750I0J218750D01*
G01*
G37*
%TD.AperFunction*%
%TO.P,R10,1*%
%TO.N,Net-(C8-Pad1)*%
%TA.AperFunction,SMDPad,CuDef*%
G36*
G01*
X3025000Y8513750D02*
X3025000Y9026250D01*
G75*
G02*
X3243750Y9245000I218750J0D01*
G01*
X3681250Y9245000D01*
G75*
G02*
X3900000Y9026250I0J-218750D01*
G01*
X3900000Y8513750D01*
G75*
G02*
X3681250Y8295000I-218750J0D01*
G01*
X3243750Y8295000D01*
G75*
G02*
X3025000Y8513750I0J218750D01*
G01*
G37*
%TD.AperFunction*%
%TD*%
%TO.P,C8,2*%
%TO.N,GND*%
%TA.AperFunction,SMDPad,CuDef*%
G36*
G01*
X4600000Y9973750D02*
X4600000Y10486250D01*
G75*
G02*
X4818750Y10705000I218750J0D01*
G01*
X5256250Y10705000D01*
G75*
G02*
X5475000Y10486250I0J-218750D01*
G01*
X5475000Y9973750D01*
G75*
G02*
X5256250Y9755000I-218750J0D01*
G01*
X4818750Y9755000D01*
G75*
G02*
X4600000Y9973750I0J218750D01*
G01*
G37*
%TD.AperFunction*%
%TO.P,C8,1*%
%TO.N,Net-(C8-Pad1)*%
%TA.AperFunction,SMDPad,CuDef*%
G36*
G01*
X3025000Y9973750D02*
X3025000Y10486250D01*
G75*
G02*
X3243750Y10705000I218750J0D01*
G01*
X3681250Y10705000D01*
G75*
G02*
X3900000Y10486250I0J-218750D01*
G01*
X3900000Y9973750D01*
G75*
G02*
X3681250Y9755000I-218750J0D01*
G01*
X3243750Y9755000D01*
G75*
G02*
X3025000Y9973750I0J218750D01*
G01*
G37*
%TD.AperFunction*%
%TD*%
%TO.P,U5,20*%
%TO.N,+3V3*%
%TA.AperFunction,SMDPad,CuDef*%
G36*
G01*
X19137500Y7250000D02*
X18912500Y7250000D01*
G75*
G02*
X18800000Y7362500I0J112500D01*
G01*
X18800000Y9037500D01*
G75*
G02*
X18912500Y9150000I112500J0D01*
G01*
X19137500Y9150000D01*
G75*
G02*
X19250000Y9037500I0J-112500D01*
G01*
X19250000Y7362500D01*
G75*
G02*
X19137500Y7250000I-112500J0D01*
G01*
G37*
%TD.AperFunction*%
%TO.P,U5,19*%
%TO.N,GND*%
%TA.AperFunction,SMDPad,CuDef*%
G36*
G01*
X18487500Y7250000D02*
X18262500Y7250000D01*
G75*
G02*
X18150000Y7362500I0J112500D01*
G01*
X18150000Y9037500D01*
G75*
G02*
X18262500Y9150000I112500J0D01*
G01*
X18487500Y9150000D01*
G75*
G02*
X18600000Y9037500I0J-112500D01*
G01*
X18600000Y7362500D01*
G75*
G02*
X18487500Y7250000I-112500J0D01*
G01*
G37*
%TD.AperFunction*%
%TO.P,U5,18*%
%TO.N,/RFM_NSS*%
%TA.AperFunction,SMDPad,CuDef*%
G36*
G01*
X17837500Y7250000D02*
X17612500Y7250000D01*
G75*
G02*
X17500000Y7362500I0J112500D01*
G01*
X17500000Y9037500D01*
G75*
G02*
X17612500Y9150000I112500J0D01*
G01*
X17837500Y9150000D01*
G75*
G02*
X17950000Y9037500I0J-112500D01*
G01*
X17950000Y7362500D01*
G75*
G02*
X17837500Y7250000I-112500J0D01*
G01*
G37*
%TD.AperFunction*%
%TO.P,U5,17*%
%TO.N,/MISO_SDI*%
%TA.AperFunction,SMDPad,CuDef*%
G36*
G01*
X17187500Y7250000D02*
X16962500Y7250000D01*
G75*
G02*
X16850000Y7362500I0J112500D01*
G01*
X16850000Y9037500D01*
G75*
G02*
X16962500Y9150000I112500J0D01*
G01*
X17187500Y9150000D01*
G75*
G02*
X17300000Y9037500I0J-112500D01*
G01*
X17300000Y7362500D01*
G75*
G02*
X17187500Y7250000I-112500J0D01*
G01*
G37*
%TD.AperFunction*%
%TO.P,U5,16*%
%TO.N,/PC_TX_PIC_RX*%
%TA.AperFunction,SMDPad,CuDef*%
G36*
G01*
X16537500Y7250000D02*
X16312500Y7250000D01*
G75*
G02*
X16200000Y7362500I0J112500D01*
G01*
X16200000Y9037500D01*
G75*
G02*
X16312500Y9150000I112500J0D01*
G01*
X16537500Y9150000D01*
G75*
G02*
X16650000Y9037500I0J-112500D01*
G01*
X16650000Y7362500D01*
G75*
G02*
X16537500Y7250000I-112500J0D01*
G01*
G37*
%TD.AperFunction*%
%TO.P,U5,15*%
%TO.N,/PC_RX_PIC_TX*%
%TA.AperFunction,SMDPad,CuDef*%
G36*
G01*
X15887500Y7250000D02*
X15662500Y7250000D01*
G75*
G02*
X15550000Y7362500I0J112500D01*
G01*
X15550000Y9037500D01*
G75*
G02*
X15662500Y9150000I112500J0D01*
G01*
X15887500Y9150000D01*
G75*
G02*
X16000000Y9037500I0J-112500D01*
G01*
X16000000Y7362500D01*
G75*
G02*
X15887500Y7250000I-112500J0D01*
G01*
G37*
%TD.AperFunction*%
%TO.P,U5,14*%
%TO.N,/VCAP*%
%TA.AperFunction,SMDPad,CuDef*%
G36*
G01*
X15237500Y7250000D02*
X15012500Y7250000D01*
G75*
G02*
X14900000Y7362500I0J112500D01*
G01*
X14900000Y9037500D01*
G75*
G02*
X15012500Y9150000I112500J0D01*
G01*
X15237500Y9150000D01*
G75*
G02*
X15350000Y9037500I0J-112500D01*
G01*
X15350000Y7362500D01*
G75*
G02*
X15237500Y7250000I-112500J0D01*
G01*
G37*
%TD.AperFunction*%
%TO.P,U5,13*%
%TO.N,/MOSI_SDO*%
%TA.AperFunction,SMDPad,CuDef*%
G36*
G01*
X14587500Y7250000D02*
X14362500Y7250000D01*
G75*
G02*
X14250000Y7362500I0J112500D01*
G01*
X14250000Y9037500D01*
G75*
G02*
X14362500Y9150000I112500J0D01*
G01*
X14587500Y9150000D01*
G75*
G02*
X14700000Y9037500I0J-112500D01*
G01*
X14700000Y7362500D01*
G75*
G02*
X14587500Y7250000I-112500J0D01*
G01*
G37*
%TD.AperFunction*%
%TO.P,U5,12*%
%TO.N,/SCK*%
%TA.AperFunction,SMDPad,CuDef*%
G36*
G01*
X13937500Y7250000D02*
X13712500Y7250000D01*
G75*
G02*
X13600000Y7362500I0J112500D01*
G01*
X13600000Y9037500D01*
G75*
G02*
X13712500Y9150000I112500J0D01*
G01*
X13937500Y9150000D01*
G75*
G02*
X14050000Y9037500I0J-112500D01*
G01*
X14050000Y7362500D01*
G75*
G02*
X13937500Y7250000I-112500J0D01*
G01*
G37*
%TD.AperFunction*%
%TO.P,U5,11*%
%TO.N,/OOK_DATA_PIC*%
%TA.AperFunction,SMDPad,CuDef*%
G36*
G01*
X13287500Y7250000D02*
X13062500Y7250000D01*
G75*
G02*
X12950000Y7362500I0J112500D01*
G01*
X12950000Y9037500D01*
G75*
G02*
X13062500Y9150000I112500J0D01*
G01*
X13287500Y9150000D01*
G75*
G02*
X13400000Y9037500I0J-112500D01*
G01*
X13400000Y7362500D01*
G75*
G02*
X13287500Y7250000I-112500J0D01*
G01*
G37*
%TD.AperFunction*%
%TO.P,U5,10*%
%TO.N,/LED1*%
%TA.AperFunction,SMDPad,CuDef*%
G36*
G01*
X13287500Y250000D02*
X13062500Y250000D01*
G75*
G02*
X12950000Y362500I0J112500D01*
G01*
X12950000Y2037500D01*
G75*
G02*
X13062500Y2150000I112500J0D01*
G01*
X13287500Y2150000D01*
G75*
G02*
X13400000Y2037500I0J-112500D01*
G01*
X13400000Y362500D01*
G75*
G02*
X13287500Y250000I-112500J0D01*
G01*
G37*
%TD.AperFunction*%
%TO.P,U5,9*%
%TO.N,/LED2*%
%TA.AperFunction,SMDPad,CuDef*%
G36*
G01*
X13937500Y250000D02*
X13712500Y250000D01*
G75*
G02*
X13600000Y362500I0J112500D01*
G01*
X13600000Y2037500D01*
G75*
G02*
X13712500Y2150000I112500J0D01*
G01*
X13937500Y2150000D01*
G75*
G02*
X14050000Y2037500I0J-112500D01*
G01*
X14050000Y362500D01*
G75*
G02*
X13937500Y250000I-112500J0D01*
G01*
G37*
%TD.AperFunction*%
%TO.P,U5,8*%
%TO.N,/BTN*%
%TA.AperFunction,SMDPad,CuDef*%
G36*
G01*
X14587500Y250000D02*
X14362500Y250000D01*
G75*
G02*
X14250000Y362500I0J112500D01*
G01*
X14250000Y2037500D01*
G75*
G02*
X14362500Y2150000I112500J0D01*
G01*
X14587500Y2150000D01*
G75*
G02*
X14700000Y2037500I0J-112500D01*
G01*
X14700000Y362500D01*
G75*
G02*
X14587500Y250000I-112500J0D01*
G01*
G37*
%TD.AperFunction*%
%TO.P,U5,7*%
%TO.N,N/C*%
%TA.AperFunction,SMDPad,CuDef*%
G36*
G01*
X15237500Y250000D02*
X15012500Y250000D01*
G75*
G02*
X14900000Y362500I0J112500D01*
G01*
X14900000Y2037500D01*
G75*
G02*
X15012500Y2150000I112500J0D01*
G01*
X15237500Y2150000D01*
G75*
G02*
X15350000Y2037500I0J-112500D01*
G01*
X15350000Y362500D01*
G75*
G02*
X15237500Y250000I-112500J0D01*
G01*
G37*
%TD.AperFunction*%
%TO.P,U5,6*%
%TO.N,/RFM_RESET*%
%TA.AperFunction,SMDPad,CuDef*%
G36*
G01*
X15887500Y250000D02*
X15662500Y250000D01*
G75*
G02*
X15550000Y362500I0J112500D01*
G01*
X15550000Y2037500D01*
G75*
G02*
X15662500Y2150000I112500J0D01*
G01*
X15887500Y2150000D01*
G75*
G02*
X16000000Y2037500I0J-112500D01*
G01*
X16000000Y362500D01*
G75*
G02*
X15887500Y250000I-112500J0D01*
G01*
G37*
%TD.AperFunction*%
%TO.P,U5,5*%
%TO.N,N/C*%
%TA.AperFunction,SMDPad,CuDef*%
G36*
G01*
X16537500Y250000D02*
X16312500Y250000D01*
G75*
G02*
X16200000Y362500I0J112500D01*
G01*
X16200000Y2037500D01*
G75*
G02*
X16312500Y2150000I112500J0D01*
G01*
X16537500Y2150000D01*
G75*
G02*
X16650000Y2037500I0J-112500D01*
G01*
X16650000Y362500D01*
G75*
G02*
X16537500Y250000I-112500J0D01*
G01*
G37*
%TD.AperFunction*%
%TO.P,U5,4*%
%TA.AperFunction,SMDPad,CuDef*%
G36*
G01*
X17187500Y250000D02*
X16962500Y250000D01*
G75*
G02*
X16850000Y362500I0J112500D01*
G01*
X16850000Y2037500D01*
G75*
G02*
X16962500Y2150000I112500J0D01*
G01*
X17187500Y2150000D01*
G75*
G02*
X17300000Y2037500I0J-112500D01*
G01*
X17300000Y362500D01*
G75*
G02*
X17187500Y250000I-112500J0D01*
G01*
G37*
%TD.AperFunction*%
%TO.P,U5,3*%
%TO.N,/PGEC2*%
%TA.AperFunction,SMDPad,CuDef*%
G36*
G01*
X17837500Y250000D02*
X17612500Y250000D01*
G75*
G02*
X17500000Y362500I0J112500D01*
G01*
X17500000Y2037500D01*
G75*
G02*
X17612500Y2150000I112500J0D01*
G01*
X17837500Y2150000D01*
G75*
G02*
X17950000Y2037500I0J-112500D01*
G01*
X17950000Y362500D01*
G75*
G02*
X17837500Y250000I-112500J0D01*
G01*
G37*
%TD.AperFunction*%
%TO.P,U5,2*%
%TO.N,/PGED2*%
%TA.AperFunction,SMDPad,CuDef*%
G36*
G01*
X18487500Y250000D02*
X18262500Y250000D01*
G75*
G02*
X18150000Y362500I0J112500D01*
G01*
X18150000Y2037500D01*
G75*
G02*
X18262500Y2150000I112500J0D01*
G01*
X18487500Y2150000D01*
G75*
G02*
X18600000Y2037500I0J-112500D01*
G01*
X18600000Y362500D01*
G75*
G02*
X18487500Y250000I-112500J0D01*
G01*
G37*
%TD.AperFunction*%
%TO.P,U5,1*%
%TO.N,/~MCLR~*%
%TA.AperFunction,SMDPad,CuDef*%
G36*
G01*
X19137500Y250000D02*
X18912500Y250000D01*
G75*
G02*
X18800000Y362500I0J112500D01*
G01*
X18800000Y2037500D01*
G75*
G02*
X18912500Y2150000I112500J0D01*
G01*
X19137500Y2150000D01*
G75*
G02*
X19250000Y2037500I0J-112500D01*
G01*
X19250000Y362500D01*
G75*
G02*
X19137500Y250000I-112500J0D01*
G01*
G37*
%TD.AperFunction*%
%TD*%
%TO.P,R4,2*%
%TO.N,/~MCLR~*%
%TA.AperFunction,SMDPad,CuDef*%
G36*
G01*
X24168750Y1650000D02*
X24681250Y1650000D01*
G75*
G02*
X24900000Y1431250I0J-218750D01*
G01*
X24900000Y993750D01*
G75*
G02*
X24681250Y775000I-218750J0D01*
G01*
X24168750Y775000D01*
G75*
G02*
X23950000Y993750I0J218750D01*
G01*
X23950000Y1431250D01*
G75*
G02*
X24168750Y1650000I218750J0D01*
G01*
G37*
%TD.AperFunction*%
%TO.P,R4,1*%
%TO.N,+3V3*%
%TA.AperFunction,SMDPad,CuDef*%
G36*
G01*
X24168750Y3225000D02*
X24681250Y3225000D01*
G75*
G02*
X24900000Y3006250I0J-218750D01*
G01*
X24900000Y2568750D01*
G75*
G02*
X24681250Y2350000I-218750J0D01*
G01*
X24168750Y2350000D01*
G75*
G02*
X23950000Y2568750I0J218750D01*
G01*
X23950000Y3006250D01*
G75*
G02*
X24168750Y3225000I218750J0D01*
G01*
G37*
%TD.AperFunction*%
%TD*%
D10*
%TO.P,J2,1*%
%TO.N,/~MCLR~*%
X26725000Y1150000D03*
D11*
%TO.P,J2,2*%
%TO.N,+3V3*%
X26725000Y2420000D03*
%TO.P,J2,3*%
%TO.N,GND*%
X26725000Y3690000D03*
%TO.P,J2,4*%
%TO.N,/PGED2*%
X26725000Y4960000D03*
%TO.P,J2,5*%
%TO.N,/PGEC2*%
X26725000Y6230000D03*
%TD*%
D12*
%TO.P,U4,5*%
%TO.N,+3V3*%
X8700000Y9350000D03*
%TO.P,U4,4*%
%TO.N,N/C*%
X6800000Y9350000D03*
%TO.P,U4,3*%
%TO.N,+5V*%
X6800000Y7150000D03*
%TO.P,U4,2*%
%TO.N,GND*%
X7750000Y7150000D03*
%TO.P,U4,1*%
%TO.N,+5V*%
X8700000Y7150000D03*
%TD*%
%TO.P,R9,2*%
%TO.N,GND*%
%TA.AperFunction,SMDPad,CuDef*%
G36*
G01*
X11762500Y10756250D02*
X11762500Y10243750D01*
G75*
G02*
X11543750Y10025000I-218750J0D01*
G01*
X11106250Y10025000D01*
G75*
G02*
X10887500Y10243750I0J218750D01*
G01*
X10887500Y10756250D01*
G75*
G02*
X11106250Y10975000I218750J0D01*
G01*
X11543750Y10975000D01*
G75*
G02*
X11762500Y10756250I0J-218750D01*
G01*
G37*
%TD.AperFunction*%
%TO.P,R9,1*%
%TO.N,/OOK_DATA*%
%TA.AperFunction,SMDPad,CuDef*%
G36*
G01*
X13337500Y10756250D02*
X13337500Y10243750D01*
G75*
G02*
X13118750Y10025000I-218750J0D01*
G01*
X12681250Y10025000D01*
G75*
G02*
X12462500Y10243750I0J218750D01*
G01*
X12462500Y10756250D01*
G75*
G02*
X12681250Y10975000I218750J0D01*
G01*
X13118750Y10975000D01*
G75*
G02*
X13337500Y10756250I0J-218750D01*
G01*
G37*
%TD.AperFunction*%
%TD*%
%TO.P,R8,1*%
%TO.N,/OOK_DATA_PIC*%
%TA.AperFunction,SMDPad,CuDef*%
G36*
G01*
X16325000Y10756250D02*
X16325000Y10243750D01*
G75*
G02*
X16106250Y10025000I-218750J0D01*
G01*
X15668750Y10025000D01*
G75*
G02*
X15450000Y10243750I0J218750D01*
G01*
X15450000Y10756250D01*
G75*
G02*
X15668750Y10975000I218750J0D01*
G01*
X16106250Y10975000D01*
G75*
G02*
X16325000Y10756250I0J-218750D01*
G01*
G37*
%TD.AperFunction*%
%TO.P,R8,2*%
%TO.N,/OOK_DATA*%
%TA.AperFunction,SMDPad,CuDef*%
G36*
G01*
X14750000Y10756250D02*
X14750000Y10243750D01*
G75*
G02*
X14531250Y10025000I-218750J0D01*
G01*
X14093750Y10025000D01*
G75*
G02*
X13875000Y10243750I0J218750D01*
G01*
X13875000Y10756250D01*
G75*
G02*
X14093750Y10975000I218750J0D01*
G01*
X14531250Y10975000D01*
G75*
G02*
X14750000Y10756250I0J-218750D01*
G01*
G37*
%TD.AperFunction*%
%TD*%
%TO.P,R7,1*%
%TO.N,Net-(D3-Pad2)*%
%TA.AperFunction,SMDPad,CuDef*%
G36*
G01*
X7550000Y2068750D02*
X7550000Y2581250D01*
G75*
G02*
X7768750Y2800000I218750J0D01*
G01*
X8206250Y2800000D01*
G75*
G02*
X8425000Y2581250I0J-218750D01*
G01*
X8425000Y2068750D01*
G75*
G02*
X8206250Y1850000I-218750J0D01*
G01*
X7768750Y1850000D01*
G75*
G02*
X7550000Y2068750I0J218750D01*
G01*
G37*
%TD.AperFunction*%
%TO.P,R7,2*%
%TO.N,/LED2*%
%TA.AperFunction,SMDPad,CuDef*%
G36*
G01*
X9125000Y2068750D02*
X9125000Y2581250D01*
G75*
G02*
X9343750Y2800000I218750J0D01*
G01*
X9781250Y2800000D01*
G75*
G02*
X10000000Y2581250I0J-218750D01*
G01*
X10000000Y2068750D01*
G75*
G02*
X9781250Y1850000I-218750J0D01*
G01*
X9343750Y1850000D01*
G75*
G02*
X9125000Y2068750I0J218750D01*
G01*
G37*
%TD.AperFunction*%
%TD*%
%TO.P,R6,1*%
%TO.N,Net-(D2-Pad2)*%
%TA.AperFunction,SMDPad,CuDef*%
G36*
G01*
X7550000Y543750D02*
X7550000Y1056250D01*
G75*
G02*
X7768750Y1275000I218750J0D01*
G01*
X8206250Y1275000D01*
G75*
G02*
X8425000Y1056250I0J-218750D01*
G01*
X8425000Y543750D01*
G75*
G02*
X8206250Y325000I-218750J0D01*
G01*
X7768750Y325000D01*
G75*
G02*
X7550000Y543750I0J218750D01*
G01*
G37*
%TD.AperFunction*%
%TO.P,R6,2*%
%TO.N,/LED1*%
%TA.AperFunction,SMDPad,CuDef*%
G36*
G01*
X9125000Y543750D02*
X9125000Y1056250D01*
G75*
G02*
X9343750Y1275000I218750J0D01*
G01*
X9781250Y1275000D01*
G75*
G02*
X10000000Y1056250I0J-218750D01*
G01*
X10000000Y543750D01*
G75*
G02*
X9781250Y325000I-218750J0D01*
G01*
X9343750Y325000D01*
G75*
G02*
X9125000Y543750I0J218750D01*
G01*
G37*
%TD.AperFunction*%
%TD*%
%TO.P,C9,2*%
%TO.N,GND*%
%TA.AperFunction,SMDPad,CuDef*%
G36*
G01*
X20643750Y7150000D02*
X21156250Y7150000D01*
G75*
G02*
X21375000Y6931250I0J-218750D01*
G01*
X21375000Y6493750D01*
G75*
G02*
X21156250Y6275000I-218750J0D01*
G01*
X20643750Y6275000D01*
G75*
G02*
X20425000Y6493750I0J218750D01*
G01*
X20425000Y6931250D01*
G75*
G02*
X20643750Y7150000I218750J0D01*
G01*
G37*
%TD.AperFunction*%
%TO.P,C9,1*%
%TO.N,+3V3*%
%TA.AperFunction,SMDPad,CuDef*%
G36*
G01*
X20643750Y8725000D02*
X21156250Y8725000D01*
G75*
G02*
X21375000Y8506250I0J-218750D01*
G01*
X21375000Y8068750D01*
G75*
G02*
X21156250Y7850000I-218750J0D01*
G01*
X20643750Y7850000D01*
G75*
G02*
X20425000Y8068750I0J218750D01*
G01*
X20425000Y8506250D01*
G75*
G02*
X20643750Y8725000I218750J0D01*
G01*
G37*
%TD.AperFunction*%
%TD*%
%TO.P,C7,2*%
%TO.N,GND*%
%TA.AperFunction,SMDPad,CuDef*%
G36*
G01*
X7512500Y13306250D02*
X7512500Y12793750D01*
G75*
G02*
X7293750Y12575000I-218750J0D01*
G01*
X6856250Y12575000D01*
G75*
G02*
X6637500Y12793750I0J218750D01*
G01*
X6637500Y13306250D01*
G75*
G02*
X6856250Y13525000I218750J0D01*
G01*
X7293750Y13525000D01*
G75*
G02*
X7512500Y13306250I0J-218750D01*
G01*
G37*
%TD.AperFunction*%
%TO.P,C7,1*%
%TO.N,+3V3*%
%TA.AperFunction,SMDPad,CuDef*%
G36*
G01*
X9087500Y13306250D02*
X9087500Y12793750D01*
G75*
G02*
X8868750Y12575000I-218750J0D01*
G01*
X8431250Y12575000D01*
G75*
G02*
X8212500Y12793750I0J218750D01*
G01*
X8212500Y13306250D01*
G75*
G02*
X8431250Y13525000I218750J0D01*
G01*
X8868750Y13525000D01*
G75*
G02*
X9087500Y13306250I0J-218750D01*
G01*
G37*
%TD.AperFunction*%
%TD*%
%TO.P,C6,1*%
%TO.N,/VCAP*%
%TA.AperFunction,SMDPad,CuDef*%
G36*
G01*
X16975000Y9943750D02*
X16975000Y10856250D01*
G75*
G02*
X17218750Y11100000I243750J0D01*
G01*
X17706250Y11100000D01*
G75*
G02*
X17950000Y10856250I0J-243750D01*
G01*
X17950000Y9943750D01*
G75*
G02*
X17706250Y9700000I-243750J0D01*
G01*
X17218750Y9700000D01*
G75*
G02*
X16975000Y9943750I0J243750D01*
G01*
G37*
%TD.AperFunction*%
%TO.P,C6,2*%
%TO.N,GND*%
%TA.AperFunction,SMDPad,CuDef*%
G36*
G01*
X18850000Y9943750D02*
X18850000Y10856250D01*
G75*
G02*
X19093750Y11100000I243750J0D01*
G01*
X19581250Y11100000D01*
G75*
G02*
X19825000Y10856250I0J-243750D01*
G01*
X19825000Y9943750D01*
G75*
G02*
X19581250Y9700000I-243750J0D01*
G01*
X19093750Y9700000D01*
G75*
G02*
X18850000Y9943750I0J243750D01*
G01*
G37*
%TD.AperFunction*%
%TD*%
%TO.P,C5,2*%
%TO.N,GND*%
%TA.AperFunction,SMDPad,CuDef*%
G36*
G01*
X21156250Y2350000D02*
X20643750Y2350000D01*
G75*
G02*
X20425000Y2568750I0J218750D01*
G01*
X20425000Y3006250D01*
G75*
G02*
X20643750Y3225000I218750J0D01*
G01*
X21156250Y3225000D01*
G75*
G02*
X21375000Y3006250I0J-218750D01*
G01*
X21375000Y2568750D01*
G75*
G02*
X21156250Y2350000I-218750J0D01*
G01*
G37*
%TD.AperFunction*%
%TO.P,C5,1*%
%TO.N,/~MCLR~*%
%TA.AperFunction,SMDPad,CuDef*%
G36*
G01*
X21156250Y775000D02*
X20643750Y775000D01*
G75*
G02*
X20425000Y993750I0J218750D01*
G01*
X20425000Y1431250D01*
G75*
G02*
X20643750Y1650000I218750J0D01*
G01*
X21156250Y1650000D01*
G75*
G02*
X21375000Y1431250I0J-218750D01*
G01*
X21375000Y993750D01*
G75*
G02*
X21156250Y775000I-218750J0D01*
G01*
G37*
%TD.AperFunction*%
%TD*%
%TO.P,C4,2*%
%TO.N,GND*%
%TA.AperFunction,SMDPad,CuDef*%
G36*
G01*
X7300000Y11706250D02*
X7300000Y10793750D01*
G75*
G02*
X7056250Y10550000I-243750J0D01*
G01*
X6568750Y10550000D01*
G75*
G02*
X6325000Y10793750I0J243750D01*
G01*
X6325000Y11706250D01*
G75*
G02*
X6568750Y11950000I243750J0D01*
G01*
X7056250Y11950000D01*
G75*
G02*
X7300000Y11706250I0J-243750D01*
G01*
G37*
%TD.AperFunction*%
%TO.P,C4,1*%
%TO.N,+3V3*%
%TA.AperFunction,SMDPad,CuDef*%
G36*
G01*
X9175000Y11706250D02*
X9175000Y10793750D01*
G75*
G02*
X8931250Y10550000I-243750J0D01*
G01*
X8443750Y10550000D01*
G75*
G02*
X8200000Y10793750I0J243750D01*
G01*
X8200000Y11706250D01*
G75*
G02*
X8443750Y11950000I243750J0D01*
G01*
X8931250Y11950000D01*
G75*
G02*
X9175000Y11706250I0J-243750D01*
G01*
G37*
%TD.AperFunction*%
%TD*%
%TO.P,C3,2*%
%TO.N,GND*%
%TA.AperFunction,SMDPad,CuDef*%
G36*
G01*
X7700000Y3906250D02*
X7700000Y3393750D01*
G75*
G02*
X7481250Y3175000I-218750J0D01*
G01*
X7043750Y3175000D01*
G75*
G02*
X6825000Y3393750I0J218750D01*
G01*
X6825000Y3906250D01*
G75*
G02*
X7043750Y4125000I218750J0D01*
G01*
X7481250Y4125000D01*
G75*
G02*
X7700000Y3906250I0J-218750D01*
G01*
G37*
%TD.AperFunction*%
%TO.P,C3,1*%
%TO.N,+5V*%
%TA.AperFunction,SMDPad,CuDef*%
G36*
G01*
X9275000Y3906250D02*
X9275000Y3393750D01*
G75*
G02*
X9056250Y3175000I-218750J0D01*
G01*
X8618750Y3175000D01*
G75*
G02*
X8400000Y3393750I0J218750D01*
G01*
X8400000Y3906250D01*
G75*
G02*
X8618750Y4125000I218750J0D01*
G01*
X9056250Y4125000D01*
G75*
G02*
X9275000Y3906250I0J-218750D01*
G01*
G37*
%TD.AperFunction*%
%TD*%
%TO.P,C2,2*%
%TO.N,GND*%
%TA.AperFunction,SMDPad,CuDef*%
G36*
G01*
X7337500Y5806250D02*
X7337500Y4893750D01*
G75*
G02*
X7093750Y4650000I-243750J0D01*
G01*
X6606250Y4650000D01*
G75*
G02*
X6362500Y4893750I0J243750D01*
G01*
X6362500Y5806250D01*
G75*
G02*
X6606250Y6050000I243750J0D01*
G01*
X7093750Y6050000D01*
G75*
G02*
X7337500Y5806250I0J-243750D01*
G01*
G37*
%TD.AperFunction*%
%TO.P,C2,1*%
%TO.N,+5V*%
%TA.AperFunction,SMDPad,CuDef*%
G36*
G01*
X9212500Y5806250D02*
X9212500Y4893750D01*
G75*
G02*
X8968750Y4650000I-243750J0D01*
G01*
X8481250Y4650000D01*
G75*
G02*
X8237500Y4893750I0J243750D01*
G01*
X8237500Y5806250D01*
G75*
G02*
X8481250Y6050000I243750J0D01*
G01*
X8968750Y6050000D01*
G75*
G02*
X9212500Y5806250I0J-243750D01*
G01*
G37*
%TD.AperFunction*%
%TD*%
%TO.P,U1,16*%
%TO.N,+3V3*%
%TA.AperFunction,SMDPad,CuDef*%
G36*
G01*
X20695000Y16800000D02*
X20395000Y16800000D01*
G75*
G02*
X20245000Y16950000I0J150000D01*
G01*
X20245000Y18600000D01*
G75*
G02*
X20395000Y18750000I150000J0D01*
G01*
X20695000Y18750000D01*
G75*
G02*
X20845000Y18600000I0J-150000D01*
G01*
X20845000Y16950000D01*
G75*
G02*
X20695000Y16800000I-150000J0D01*
G01*
G37*
%TD.AperFunction*%
%TO.P,U1,15*%
%TO.N,N/C*%
%TA.AperFunction,SMDPad,CuDef*%
G36*
G01*
X19425000Y16800000D02*
X19125000Y16800000D01*
G75*
G02*
X18975000Y16950000I0J150000D01*
G01*
X18975000Y18600000D01*
G75*
G02*
X19125000Y18750000I150000J0D01*
G01*
X19425000Y18750000D01*
G75*
G02*
X19575000Y18600000I0J-150000D01*
G01*
X19575000Y16950000D01*
G75*
G02*
X19425000Y16800000I-150000J0D01*
G01*
G37*
%TD.AperFunction*%
%TO.P,U1,14*%
%TA.AperFunction,SMDPad,CuDef*%
G36*
G01*
X18155000Y16800000D02*
X17855000Y16800000D01*
G75*
G02*
X17705000Y16950000I0J150000D01*
G01*
X17705000Y18600000D01*
G75*
G02*
X17855000Y18750000I150000J0D01*
G01*
X18155000Y18750000D01*
G75*
G02*
X18305000Y18600000I0J-150000D01*
G01*
X18305000Y16950000D01*
G75*
G02*
X18155000Y16800000I-150000J0D01*
G01*
G37*
%TD.AperFunction*%
%TO.P,U1,13*%
%TA.AperFunction,SMDPad,CuDef*%
G36*
G01*
X16885000Y16800000D02*
X16585000Y16800000D01*
G75*
G02*
X16435000Y16950000I0J150000D01*
G01*
X16435000Y18600000D01*
G75*
G02*
X16585000Y18750000I150000J0D01*
G01*
X16885000Y18750000D01*
G75*
G02*
X17035000Y18600000I0J-150000D01*
G01*
X17035000Y16950000D01*
G75*
G02*
X16885000Y16800000I-150000J0D01*
G01*
G37*
%TD.AperFunction*%
%TO.P,U1,12*%
%TA.AperFunction,SMDPad,CuDef*%
G36*
G01*
X15615000Y16800000D02*
X15315000Y16800000D01*
G75*
G02*
X15165000Y16950000I0J150000D01*
G01*
X15165000Y18600000D01*
G75*
G02*
X15315000Y18750000I150000J0D01*
G01*
X15615000Y18750000D01*
G75*
G02*
X15765000Y18600000I0J-150000D01*
G01*
X15765000Y16950000D01*
G75*
G02*
X15615000Y16800000I-150000J0D01*
G01*
G37*
%TD.AperFunction*%
%TO.P,U1,11*%
%TA.AperFunction,SMDPad,CuDef*%
G36*
G01*
X14345000Y16800000D02*
X14045000Y16800000D01*
G75*
G02*
X13895000Y16950000I0J150000D01*
G01*
X13895000Y18600000D01*
G75*
G02*
X14045000Y18750000I150000J0D01*
G01*
X14345000Y18750000D01*
G75*
G02*
X14495000Y18600000I0J-150000D01*
G01*
X14495000Y16950000D01*
G75*
G02*
X14345000Y16800000I-150000J0D01*
G01*
G37*
%TD.AperFunction*%
%TO.P,U1,10*%
%TA.AperFunction,SMDPad,CuDef*%
G36*
G01*
X13075000Y16800000D02*
X12775000Y16800000D01*
G75*
G02*
X12625000Y16950000I0J150000D01*
G01*
X12625000Y18600000D01*
G75*
G02*
X12775000Y18750000I150000J0D01*
G01*
X13075000Y18750000D01*
G75*
G02*
X13225000Y18600000I0J-150000D01*
G01*
X13225000Y16950000D01*
G75*
G02*
X13075000Y16800000I-150000J0D01*
G01*
G37*
%TD.AperFunction*%
%TO.P,U1,9*%
%TA.AperFunction,SMDPad,CuDef*%
G36*
G01*
X11805000Y16800000D02*
X11505000Y16800000D01*
G75*
G02*
X11355000Y16950000I0J150000D01*
G01*
X11355000Y18600000D01*
G75*
G02*
X11505000Y18750000I150000J0D01*
G01*
X11805000Y18750000D01*
G75*
G02*
X11955000Y18600000I0J-150000D01*
G01*
X11955000Y16950000D01*
G75*
G02*
X11805000Y16800000I-150000J0D01*
G01*
G37*
%TD.AperFunction*%
%TO.P,U1,8*%
%TA.AperFunction,SMDPad,CuDef*%
G36*
G01*
X11805000Y11850000D02*
X11505000Y11850000D01*
G75*
G02*
X11355000Y12000000I0J150000D01*
G01*
X11355000Y13650000D01*
G75*
G02*
X11505000Y13800000I150000J0D01*
G01*
X11805000Y13800000D01*
G75*
G02*
X11955000Y13650000I0J-150000D01*
G01*
X11955000Y12000000D01*
G75*
G02*
X11805000Y11850000I-150000J0D01*
G01*
G37*
%TD.AperFunction*%
%TO.P,U1,7*%
%TA.AperFunction,SMDPad,CuDef*%
G36*
G01*
X13075000Y11850000D02*
X12775000Y11850000D01*
G75*
G02*
X12625000Y12000000I0J150000D01*
G01*
X12625000Y13650000D01*
G75*
G02*
X12775000Y13800000I150000J0D01*
G01*
X13075000Y13800000D01*
G75*
G02*
X13225000Y13650000I0J-150000D01*
G01*
X13225000Y12000000D01*
G75*
G02*
X13075000Y11850000I-150000J0D01*
G01*
G37*
%TD.AperFunction*%
%TO.P,U1,6*%
%TO.N,/DM*%
%TA.AperFunction,SMDPad,CuDef*%
G36*
G01*
X14345000Y11850000D02*
X14045000Y11850000D01*
G75*
G02*
X13895000Y12000000I0J150000D01*
G01*
X13895000Y13650000D01*
G75*
G02*
X14045000Y13800000I150000J0D01*
G01*
X14345000Y13800000D01*
G75*
G02*
X14495000Y13650000I0J-150000D01*
G01*
X14495000Y12000000D01*
G75*
G02*
X14345000Y11850000I-150000J0D01*
G01*
G37*
%TD.AperFunction*%
%TO.P,U1,5*%
%TO.N,/DP*%
%TA.AperFunction,SMDPad,CuDef*%
G36*
G01*
X15615000Y11850000D02*
X15315000Y11850000D01*
G75*
G02*
X15165000Y12000000I0J150000D01*
G01*
X15165000Y13650000D01*
G75*
G02*
X15315000Y13800000I150000J0D01*
G01*
X15615000Y13800000D01*
G75*
G02*
X15765000Y13650000I0J-150000D01*
G01*
X15765000Y12000000D01*
G75*
G02*
X15615000Y11850000I-150000J0D01*
G01*
G37*
%TD.AperFunction*%
%TO.P,U1,4*%
%TO.N,+3V3*%
%TA.AperFunction,SMDPad,CuDef*%
G36*
G01*
X16885000Y11850000D02*
X16585000Y11850000D01*
G75*
G02*
X16435000Y12000000I0J150000D01*
G01*
X16435000Y13650000D01*
G75*
G02*
X16585000Y13800000I150000J0D01*
G01*
X16885000Y13800000D01*
G75*
G02*
X17035000Y13650000I0J-150000D01*
G01*
X17035000Y12000000D01*
G75*
G02*
X16885000Y11850000I-150000J0D01*
G01*
G37*
%TD.AperFunction*%
%TO.P,U1,3*%
%TO.N,/PC_RX_PIC_TX*%
%TA.AperFunction,SMDPad,CuDef*%
G36*
G01*
X18155000Y11850000D02*
X17855000Y11850000D01*
G75*
G02*
X17705000Y12000000I0J150000D01*
G01*
X17705000Y13650000D01*
G75*
G02*
X17855000Y13800000I150000J0D01*
G01*
X18155000Y13800000D01*
G75*
G02*
X18305000Y13650000I0J-150000D01*
G01*
X18305000Y12000000D01*
G75*
G02*
X18155000Y11850000I-150000J0D01*
G01*
G37*
%TD.AperFunction*%
%TO.P,U1,2*%
%TO.N,/PC_TX_PIC_RX*%
%TA.AperFunction,SMDPad,CuDef*%
G36*
G01*
X19425000Y11850000D02*
X19125000Y11850000D01*
G75*
G02*
X18975000Y12000000I0J150000D01*
G01*
X18975000Y13650000D01*
G75*
G02*
X19125000Y13800000I150000J0D01*
G01*
X19425000Y13800000D01*
G75*
G02*
X19575000Y13650000I0J-150000D01*
G01*
X19575000Y12000000D01*
G75*
G02*
X19425000Y11850000I-150000J0D01*
G01*
G37*
%TD.AperFunction*%
%TO.P,U1,1*%
%TO.N,GND*%
%TA.AperFunction,SMDPad,CuDef*%
G36*
G01*
X20695000Y11850000D02*
X20395000Y11850000D01*
G75*
G02*
X20245000Y12000000I0J150000D01*
G01*
X20245000Y13650000D01*
G75*
G02*
X20395000Y13800000I150000J0D01*
G01*
X20695000Y13800000D01*
G75*
G02*
X20845000Y13650000I0J-150000D01*
G01*
X20845000Y12000000D01*
G75*
G02*
X20695000Y11850000I-150000J0D01*
G01*
G37*
%TD.AperFunction*%
%TD*%
D13*
%TO.P,J1,5*%
%TO.N,Net-(C8-Pad1)*%
X2150000Y7250000D03*
X2150000Y11750000D03*
%TD*%
D14*
%TO.N,GND*%
X29500000Y800000D03*
X29500000Y8200000D03*
X29500000Y4500000D03*
X29500000Y2650000D03*
X29500000Y6350000D03*
X29500000Y10800000D03*
X29500000Y15350000D03*
X29500000Y13050000D03*
X29500000Y14250000D03*
X29500000Y11900000D03*
X29500000Y7250000D03*
X29500000Y5450000D03*
X29500000Y3600000D03*
X29500000Y1700000D03*
X28150000Y17000000D03*
X27250000Y17000000D03*
X27700000Y17550000D03*
X27350000Y18200000D03*
X28050000Y18200000D03*
X25300000Y17250000D03*
X23150000Y15800000D03*
X22200000Y15800000D03*
X10550000Y11550000D03*
X21450000Y12850000D03*
X20300000Y14575000D03*
X17100000Y14950000D03*
X25125000Y14300000D03*
X25125000Y13450000D03*
X23475000Y14900000D03*
X24125000Y14375000D03*
X26250000Y12750000D03*
X26725000Y11675000D03*
X26225000Y10625000D03*
X25125000Y9975000D03*
X25125000Y8950000D03*
X26225000Y8300000D03*
X20550000Y10075000D03*
X10525000Y3200000D03*
X12075000Y3175000D03*
X11175000Y16125000D03*
X9075000Y18350000D03*
X24510000Y6100000D03*
X9725000Y6350000D03*
X9675000Y7225000D03*
X9550000Y8325000D03*
X9050000Y15325000D03*
X15075000Y14800000D03*
X5250000Y3825000D03*
X5250000Y4600000D03*
X10750000Y4800000D03*
X12350000Y4775000D03*
X22175000Y3175000D03*
X20925000Y3775000D03*
X18475000Y6450000D03*
X18475000Y5100000D03*
X17050000Y5580000D03*
X16780000Y4650000D03*
X16710000Y3450000D03*
X13100000Y6550000D03*
X12200000Y8025000D03*
X19700000Y6300000D03*
X20950000Y5600000D03*
X22150000Y6650000D03*
X23375000Y8750000D03*
X23375000Y3675000D03*
X11125000Y1625000D03*
X7825000Y12275000D03*
X5330000Y11770000D03*
X6025000Y13575000D03*
X3075000Y13300000D03*
X10650000Y14175000D03*
X12600000Y15175000D03*
X15150000Y5190000D03*
X580000Y580000D03*
X5380000Y580000D03*
X3980000Y11770000D03*
X4660000Y11770000D03*
X5970000Y12480000D03*
X4500000Y14240000D03*
X900000Y5500000D03*
X3000000Y5500000D03*
X1900000Y5400000D03*
X27800000Y8300000D03*
%TO.N,+5V*%
X9600000Y4875000D03*
%TO.N,+3V3*%
X24430000Y3880000D03*
X8650000Y14100000D03*
X16200000Y16049996D03*
X23350000Y5750000D03*
%TO.N,/DM*%
X13550000Y11450000D03*
%TO.N,/DP*%
X14750000Y11450000D03*
%TO.N,/OOK_DATA*%
X13050000Y14425000D03*
%TO.N,/BTN*%
X10000000Y4025000D03*
%TO.N,/PC_RX_PIC_TX*%
X14900000Y6275000D03*
X18400000Y11300000D03*
%TO.N,/PC_TX_PIC_RX*%
X15794671Y6277180D03*
X20199998Y11300000D03*
%TO.N,/RFM_RESET*%
X19160000Y4440000D03*
%TO.N,/RFM_NSS*%
X17720000Y4400000D03*
%TO.N,/SCK*%
X13875000Y3775000D03*
%TO.N,/MOSI_SDO*%
X14475000Y3025000D03*
%TO.N,/MISO_SDI*%
X15650000Y3800000D03*
%TO.N,Net-(D2-Pad2)*%
X7175000Y1550000D03*
%TO.N,Net-(D3-Pad2)*%
X8775000Y1550000D03*
%TD*%
D15*
%TO.N,GND*%
X6850000Y5875000D02*
X6850000Y5350000D01*
X7750000Y6775000D02*
X6850000Y5875000D01*
X7750000Y7150000D02*
X7750000Y6775000D01*
D16*
X7075000Y13050000D02*
X7750000Y12375000D01*
X7750000Y12375000D02*
X7750000Y12000000D01*
X7100000Y5100000D02*
X6850000Y5350000D01*
X7100000Y3812500D02*
X7100000Y5100000D01*
X7262500Y3650000D02*
X7100000Y3812500D01*
D15*
X7262500Y3650000D02*
X7262500Y2962500D01*
X7262500Y2962500D02*
X6950000Y2650000D01*
X7262500Y3650000D02*
X7825000Y4212500D01*
X7825000Y4212500D02*
X7825000Y4600000D01*
D17*
X5037500Y8770000D02*
X5037500Y10230000D01*
X5037500Y11392500D02*
X4660000Y11770000D01*
X5037500Y10230000D02*
X5037500Y11392500D01*
X5792500Y10230000D02*
X6812500Y11250000D01*
X5037500Y10230000D02*
X5792500Y10230000D01*
D18*
%TO.N,+5V*%
X8600000Y5400000D02*
X8600000Y4850000D01*
D19*
X7184999Y7980001D02*
X8419999Y7980001D01*
X6800000Y7595002D02*
X7184999Y7980001D01*
X6800000Y7150000D02*
X6800000Y7595002D01*
X8700000Y7700000D02*
X8700000Y7150000D01*
X8419999Y7980001D02*
X8700000Y7700000D01*
D15*
X8725000Y7125000D02*
X8700000Y7150000D01*
X8725000Y5350000D02*
X8725000Y7125000D01*
X8725000Y3762500D02*
X8837500Y3650000D01*
X8725000Y5350000D02*
X8725000Y3762500D01*
X9125000Y5350000D02*
X9600000Y4875000D01*
X8725000Y5350000D02*
X9125000Y5350000D01*
D19*
%TO.N,+3V3*%
X19000000Y8275000D02*
X19025000Y8300000D01*
D15*
X8700000Y11237500D02*
X8687500Y11250000D01*
X8700000Y9350000D02*
X8700000Y11237500D01*
X8687500Y13012500D02*
X8650000Y13050000D01*
X8687500Y11250000D02*
X8687500Y13012500D01*
D20*
X8650000Y14100000D02*
X8650000Y13050000D01*
X16624264Y16049996D02*
X16200000Y16049996D01*
X16735000Y12825000D02*
X16735000Y13800000D01*
X16735000Y13800000D02*
X16200000Y14335000D01*
X16200000Y14335000D02*
X16200000Y16049996D01*
D16*
X20812500Y8200000D02*
X20900000Y8287500D01*
X24425000Y3875000D02*
X24430000Y3880000D01*
X24425000Y2787500D02*
X24425000Y3875000D01*
X25202500Y2787500D02*
X25570000Y2420000D01*
X24425000Y2787500D02*
X25202500Y2787500D01*
X26725000Y2420000D02*
X25570000Y2420000D01*
D21*
X22400000Y8287500D02*
X20900000Y8287500D01*
X23350000Y7337500D02*
X23350000Y5750000D01*
X22400000Y8287500D02*
X23350000Y7337500D01*
D20*
X12274996Y16049996D02*
X16200000Y16049996D01*
X11487500Y15262500D02*
X12274996Y16049996D01*
X10487500Y15262500D02*
X11487500Y15262500D01*
X9325000Y14100000D02*
X10487500Y15262500D01*
X8650000Y14100000D02*
X9325000Y14100000D01*
D21*
X22400000Y14200000D02*
X22400000Y8287500D01*
X20545000Y16055000D02*
X22400000Y14200000D01*
X20545000Y17775000D02*
X20545000Y16055000D01*
X20539996Y16049996D02*
X20545000Y16055000D01*
X16624264Y16049996D02*
X20539996Y16049996D01*
D20*
X19137510Y8287500D02*
X19050010Y8200000D01*
X20900000Y8287500D02*
X19137510Y8287500D01*
D19*
%TO.N,/~MCLR~*%
X24442500Y920000D02*
X24430000Y932500D01*
D16*
X20887500Y1200000D02*
X20900000Y1212500D01*
X19025000Y1200000D02*
X20887500Y1200000D01*
X23787500Y575000D02*
X24425000Y1212500D01*
X21537500Y575000D02*
X23787500Y575000D01*
X20900000Y1212500D02*
X21537500Y575000D01*
X24487500Y1150000D02*
X24425000Y1212500D01*
X26725000Y1150000D02*
X24487500Y1150000D01*
D22*
%TO.N,/VCAP*%
X17462500Y10262500D02*
X17462500Y10500000D01*
X15489988Y9699990D02*
X16899990Y9699990D01*
X16899990Y9699990D02*
X17462500Y10262500D01*
X15125000Y9335002D02*
X15489988Y9699990D01*
X15125000Y8300000D02*
X15125000Y9335002D01*
D16*
%TO.N,/LED1*%
X12775000Y800000D02*
X13175000Y1200000D01*
X9837500Y800000D02*
X12775000Y800000D01*
D19*
%TO.N,/LED2*%
X13825000Y2150000D02*
X13825000Y1200000D01*
X13375000Y2600000D02*
X13825000Y2150000D01*
X12675000Y2600000D02*
X13375000Y2600000D01*
X12400000Y2325000D02*
X12675000Y2600000D01*
X9562500Y2325000D02*
X12400000Y2325000D01*
%TO.N,/DM*%
X14195000Y11895000D02*
X13750000Y11450000D01*
X13750000Y11450000D02*
X13550000Y11450000D01*
X14195000Y12825000D02*
X14195000Y11895000D01*
%TO.N,/DP*%
X15465000Y11865000D02*
X15465000Y12825000D01*
X15050000Y11450000D02*
X15465000Y11865000D01*
X14750000Y11450000D02*
X15050000Y11450000D01*
D20*
%TO.N,/OOK_DATA*%
X14312500Y10500000D02*
X12900000Y10500000D01*
D19*
X12900000Y10500000D02*
X12300001Y11099999D01*
X12300001Y11099999D02*
X12300001Y14099265D01*
X12625736Y14425000D02*
X13050000Y14425000D01*
X12300001Y14099265D02*
X12625736Y14425000D01*
D22*
%TO.N,/OOK_DATA_PIC*%
X15653588Y10500000D02*
X15887500Y10500000D01*
D19*
X13175000Y9101056D02*
X13748944Y9675000D01*
X13175000Y8200000D02*
X13175000Y9101056D01*
X15688944Y10500000D02*
X15887500Y10500000D01*
X14863944Y9675000D02*
X15688944Y10500000D01*
X13748944Y9675000D02*
X14863944Y9675000D01*
%TO.N,/BTN*%
X12551056Y4025000D02*
X10000000Y4025000D01*
X14475000Y2101056D02*
X12551056Y4025000D01*
X14475000Y1200000D02*
X14475000Y2101056D01*
%TO.N,/PC_RX_PIC_TX*%
X18000000Y12830000D02*
X18005000Y12825000D01*
X15775000Y7150000D02*
X14900000Y6275000D01*
X15775000Y8200000D02*
X15775000Y7150000D01*
X18000000Y12820000D02*
X18005000Y12825000D01*
X18000000Y11700000D02*
X18000000Y12820000D01*
X18400000Y11300000D02*
X18000000Y11700000D01*
%TO.N,/PC_TX_PIC_RX*%
X16425000Y8300000D02*
X16425000Y7225000D01*
X15794671Y6281669D02*
X15794671Y6277180D01*
X16425000Y6911998D02*
X15794671Y6281669D01*
X16425000Y7225000D02*
X16425000Y6911998D01*
X19300000Y12199998D02*
X20199998Y11300000D01*
X19300000Y12800000D02*
X19300000Y12199998D01*
X19275000Y12825000D02*
X19300000Y12800000D01*
%TO.N,/RFM_RESET*%
X19160000Y4170000D02*
X19160000Y4440000D01*
X17765000Y2775000D02*
X19160000Y4170000D01*
X16400000Y2775000D02*
X17765000Y2775000D01*
X15775000Y2150000D02*
X16400000Y2775000D01*
X15775000Y1200000D02*
X15775000Y2150000D01*
%TO.N,/RFM_NSS*%
X17725000Y8200000D02*
X17725000Y4405000D01*
X17725000Y4405000D02*
X17720000Y4400000D01*
%TO.N,/SCK*%
X13825000Y3825000D02*
X13875000Y3775000D01*
X13825000Y8200000D02*
X13825000Y3825000D01*
%TO.N,/MOSI_SDO*%
X14475000Y8200000D02*
X14475000Y6724990D01*
X14475000Y6724990D02*
X14225010Y6475000D01*
X14225010Y4324990D02*
X14475000Y4075000D01*
X14225010Y6475000D02*
X14225010Y4324990D01*
X14475000Y4075000D02*
X14475000Y3025000D01*
%TO.N,/MISO_SDI*%
X15949999Y4099999D02*
X15650000Y3800000D01*
X15949999Y5454263D02*
X15949999Y4099999D01*
X17075000Y6579264D02*
X15949999Y5454263D01*
X17075000Y8200000D02*
X17075000Y6579264D01*
%TO.N,Net-(D2-Pad2)*%
X7987500Y800000D02*
X7928687Y800000D01*
X7928687Y800000D02*
X7213252Y1515435D01*
%TO.N,Net-(D3-Pad2)*%
X8762500Y1550000D02*
X7987500Y2325000D01*
X8775000Y1550000D02*
X8762500Y1550000D01*
%TO.N,/PGED2*%
X24510000Y4960000D02*
X26725000Y4960000D01*
X24000000Y4450000D02*
X24510000Y4960000D01*
X20600000Y4450000D02*
X24000000Y4450000D01*
X18375000Y2225000D02*
X20600000Y4450000D01*
X18375000Y1200000D02*
X18375000Y2225000D01*
%TO.N,/PGEC2*%
X17725000Y2150000D02*
X20425010Y4850010D01*
X17725000Y1200000D02*
X17725000Y2150000D01*
X20425010Y4850010D02*
X23824990Y4850010D01*
X23959302Y4975000D02*
X24344311Y5360010D01*
X23949980Y4975000D02*
X23959302Y4975000D01*
X23824990Y4850010D02*
X23949980Y4975000D01*
X25855010Y5360010D02*
X26725000Y6230000D01*
X24344311Y5360010D02*
X25855010Y5360010D01*
D23*
%TO.N,Net-(C8-Pad1)*%
X2150000Y7250000D02*
X2150000Y11750000D01*
D17*
X3462500Y10437500D02*
X2150000Y11750000D01*
X3462500Y10230000D02*
X3462500Y10437500D01*
X3462500Y8562500D02*
X2150000Y7250000D01*
X3462500Y8770000D02*
X3462500Y8562500D01*
%TD*%
D19*
%TO.N,GND*%
X10999288Y18600000D02*
X10999288Y16950000D01*
X11009005Y16851340D01*
X11037783Y16756472D01*
X11084516Y16669041D01*
X11147408Y16592408D01*
X11224041Y16529516D01*
X11311472Y16482783D01*
X11406340Y16454005D01*
X11505000Y16444288D01*
X11805000Y16444288D01*
X11816207Y16445392D01*
X11237316Y15866500D01*
X10517164Y15866500D01*
X10487499Y15869422D01*
X10457835Y15866500D01*
X10457833Y15866500D01*
X10369095Y15857760D01*
X10255241Y15823223D01*
X10150312Y15767137D01*
X10058341Y15691659D01*
X10039429Y15668614D01*
X9074816Y14704000D01*
X8900799Y14704000D01*
X8840765Y14728867D01*
X8714413Y14754000D01*
X8585587Y14754000D01*
X8459235Y14728867D01*
X8340215Y14679567D01*
X8233100Y14607995D01*
X8142005Y14516900D01*
X8070433Y14409785D01*
X8021133Y14290765D01*
X7996000Y14164413D01*
X7996000Y14035587D01*
X8021133Y13909235D01*
X8046000Y13849201D01*
X8046000Y13729655D01*
X8025044Y13712456D01*
X7953602Y13625404D01*
X7900516Y13526087D01*
X7867826Y13418322D01*
X7867661Y13416651D01*
X7868213Y13525000D01*
X7861378Y13594396D01*
X7841136Y13661125D01*
X7808265Y13722624D01*
X7764027Y13776527D01*
X7710124Y13820765D01*
X7648625Y13853636D01*
X7581896Y13873878D01*
X7512500Y13880713D01*
X7213500Y13879000D01*
X7125000Y13790500D01*
X7125000Y13100000D01*
X7145000Y13100000D01*
X7145000Y13000000D01*
X7125000Y13000000D01*
X7125000Y12980000D01*
X7025000Y12980000D01*
X7025000Y13000000D01*
X6372000Y13000000D01*
X6283500Y12911500D01*
X6281787Y12575000D01*
X6288622Y12505604D01*
X6308864Y12438875D01*
X6341735Y12377376D01*
X6385973Y12323473D01*
X6408110Y12305305D01*
X6325000Y12305713D01*
X6255604Y12298878D01*
X6188875Y12278636D01*
X6127376Y12245765D01*
X6073473Y12201527D01*
X6029235Y12147624D01*
X5996364Y12086125D01*
X5976122Y12019396D01*
X5969287Y11950000D01*
X5971000Y11388500D01*
X6059500Y11300000D01*
X6762500Y11300000D01*
X6762500Y11320000D01*
X6862500Y11320000D01*
X6862500Y11300000D01*
X7565500Y11300000D01*
X7654000Y11388500D01*
X7655713Y11950000D01*
X7648878Y12019396D01*
X7628636Y12086125D01*
X7595765Y12147624D01*
X7551527Y12201527D01*
X7528024Y12220816D01*
X7581896Y12226122D01*
X7648625Y12246364D01*
X7710124Y12279235D01*
X7764027Y12323473D01*
X7808265Y12377376D01*
X7841136Y12438875D01*
X7861378Y12505604D01*
X7868213Y12575000D01*
X7867661Y12683349D01*
X7867826Y12681678D01*
X7900516Y12573913D01*
X7953602Y12474596D01*
X8025044Y12387544D01*
X8112096Y12316102D01*
X8206501Y12265642D01*
X8206501Y12255887D01*
X8110707Y12204684D01*
X8019866Y12130134D01*
X7945316Y12039293D01*
X7889919Y11935654D01*
X7855806Y11823199D01*
X7844288Y11706250D01*
X7844288Y10793750D01*
X7855806Y10676801D01*
X7889919Y10564346D01*
X7945316Y10460707D01*
X8019866Y10369866D01*
X8110707Y10295316D01*
X8214346Y10239919D01*
X8219000Y10238507D01*
X8219000Y10198012D01*
X8177377Y10175764D01*
X8123474Y10131526D01*
X8079236Y10077623D01*
X8046365Y10016125D01*
X8026123Y9949396D01*
X8019288Y9880000D01*
X8019288Y8820000D01*
X8026123Y8750604D01*
X8046365Y8683875D01*
X8079236Y8622377D01*
X8123474Y8568474D01*
X8177377Y8524236D01*
X8238875Y8491365D01*
X8305604Y8471123D01*
X8375000Y8464288D01*
X9025000Y8464288D01*
X9094396Y8471123D01*
X9161125Y8491365D01*
X9222623Y8524236D01*
X9276526Y8568474D01*
X9320764Y8622377D01*
X9353635Y8683875D01*
X9373877Y8750604D01*
X9380712Y8820000D01*
X9380712Y9880000D01*
X9373877Y9949396D01*
X9353635Y10016125D01*
X9348892Y10025000D01*
X10531787Y10025000D01*
X10538622Y9955604D01*
X10558864Y9888875D01*
X10591735Y9827376D01*
X10635973Y9773473D01*
X10689876Y9729235D01*
X10751375Y9696364D01*
X10818104Y9676122D01*
X10887500Y9669287D01*
X11186500Y9671000D01*
X11275000Y9759500D01*
X11275000Y10450000D01*
X10622000Y10450000D01*
X10533500Y10361500D01*
X10531787Y10025000D01*
X9348892Y10025000D01*
X9320764Y10077623D01*
X9276526Y10131526D01*
X9222623Y10175764D01*
X9181000Y10198012D01*
X9181000Y10250794D01*
X9264293Y10295316D01*
X9355134Y10369866D01*
X9429684Y10460707D01*
X9485081Y10564346D01*
X9519194Y10676801D01*
X9530712Y10793750D01*
X9530712Y10975000D01*
X10531787Y10975000D01*
X10533500Y10638500D01*
X10622000Y10550000D01*
X11275000Y10550000D01*
X11275000Y11240500D01*
X11186500Y11329000D01*
X10887500Y11330713D01*
X10818104Y11323878D01*
X10751375Y11303636D01*
X10689876Y11270765D01*
X10635973Y11226527D01*
X10591735Y11172624D01*
X10558864Y11111125D01*
X10538622Y11044396D01*
X10531787Y10975000D01*
X9530712Y10975000D01*
X9530712Y11706250D01*
X9519194Y11823199D01*
X9485081Y11935654D01*
X9429684Y12039293D01*
X9355134Y12130134D01*
X9264293Y12204684D01*
X9168500Y12255887D01*
X9168500Y12305730D01*
X9187904Y12316102D01*
X9274956Y12387544D01*
X9346398Y12474596D01*
X9399484Y12573913D01*
X9432174Y12681678D01*
X9443212Y12793750D01*
X9443212Y13306250D01*
X9432174Y13418322D01*
X9407046Y13501159D01*
X9443405Y13504740D01*
X9557259Y13539277D01*
X9662188Y13595363D01*
X9754159Y13670841D01*
X9773078Y13693894D01*
X10737685Y14658500D01*
X11457833Y14658500D01*
X11487500Y14655578D01*
X11517167Y14658500D01*
X11605905Y14667240D01*
X11719759Y14701777D01*
X11824688Y14757863D01*
X11916659Y14833341D01*
X11935577Y14856393D01*
X12525181Y15445996D01*
X15596001Y15445996D01*
X15596000Y14364667D01*
X15593078Y14335000D01*
X15603211Y14232124D01*
X15604740Y14216596D01*
X15623462Y14154879D01*
X15615000Y14155712D01*
X15315000Y14155712D01*
X15216340Y14145995D01*
X15121472Y14117217D01*
X15034041Y14070484D01*
X14957408Y14007592D01*
X14894516Y13930959D01*
X14847783Y13843528D01*
X14830000Y13784906D01*
X14812217Y13843528D01*
X14765484Y13930959D01*
X14702592Y14007592D01*
X14625959Y14070484D01*
X14538528Y14117217D01*
X14443660Y14145995D01*
X14345000Y14155712D01*
X14045000Y14155712D01*
X13946340Y14145995D01*
X13851472Y14117217D01*
X13764041Y14070484D01*
X13687408Y14007592D01*
X13624516Y13930959D01*
X13577783Y13843528D01*
X13560000Y13784906D01*
X13542217Y13843528D01*
X13495484Y13930959D01*
X13488889Y13938994D01*
X13557995Y14008100D01*
X13629567Y14115215D01*
X13678867Y14234235D01*
X13704000Y14360587D01*
X13704000Y14489413D01*
X13678867Y14615765D01*
X13629567Y14734785D01*
X13557995Y14841900D01*
X13466900Y14932995D01*
X13359785Y15004567D01*
X13240765Y15053867D01*
X13114413Y15079000D01*
X12985587Y15079000D01*
X12859235Y15053867D01*
X12740215Y15004567D01*
X12633100Y14932995D01*
X12576446Y14876341D01*
X12545157Y14873259D01*
X12536736Y14872430D01*
X12486411Y14857164D01*
X12451157Y14846470D01*
X12372287Y14804313D01*
X12303157Y14747579D01*
X12288946Y14730263D01*
X11994738Y14436055D01*
X11977423Y14421844D01*
X11920689Y14352714D01*
X11911756Y14336001D01*
X11878531Y14273843D01*
X11852571Y14188264D01*
X11848939Y14151384D01*
X11805000Y14155712D01*
X11505000Y14155712D01*
X11406340Y14145995D01*
X11311472Y14117217D01*
X11224041Y14070484D01*
X11147408Y14007592D01*
X11084516Y13930959D01*
X11037783Y13843528D01*
X11009005Y13748660D01*
X10999288Y13650000D01*
X10999288Y12000000D01*
X11009005Y11901340D01*
X11037783Y11806472D01*
X11084516Y11719041D01*
X11147408Y11642408D01*
X11224041Y11579516D01*
X11311472Y11532783D01*
X11406340Y11504005D01*
X11505000Y11494288D01*
X11805000Y11494288D01*
X11846001Y11498326D01*
X11846001Y11319599D01*
X11831896Y11323878D01*
X11762500Y11330713D01*
X11463500Y11329000D01*
X11375000Y11240500D01*
X11375000Y10550000D01*
X11395000Y10550000D01*
X11395000Y10450000D01*
X11375000Y10450000D01*
X11375000Y9759500D01*
X11463500Y9671000D01*
X11762500Y9669287D01*
X11831896Y9676122D01*
X11898625Y9696364D01*
X11960124Y9729235D01*
X12014027Y9773473D01*
X12058265Y9827376D01*
X12091136Y9888875D01*
X12111378Y9955604D01*
X12118213Y10025000D01*
X12117661Y10133349D01*
X12117826Y10131678D01*
X12150516Y10023913D01*
X12203602Y9924596D01*
X12275044Y9837544D01*
X12362096Y9766102D01*
X12461413Y9713016D01*
X12569178Y9680326D01*
X12681250Y9669288D01*
X13101180Y9669288D01*
X12910079Y9478188D01*
X12883323Y9470071D01*
X12802375Y9426804D01*
X12731424Y9368576D01*
X12673196Y9297625D01*
X12629929Y9216677D01*
X12603285Y9128844D01*
X12594288Y9037500D01*
X12594288Y7362500D01*
X12603285Y7271156D01*
X12629929Y7183323D01*
X12673196Y7102375D01*
X12731424Y7031424D01*
X12802375Y6973196D01*
X12883323Y6929929D01*
X12971156Y6903285D01*
X13062500Y6894288D01*
X13287500Y6894288D01*
X13371000Y6902512D01*
X13371001Y4195896D01*
X13367005Y4191900D01*
X13295433Y4084785D01*
X13247952Y3970156D01*
X12887850Y4330258D01*
X12873635Y4347579D01*
X12804505Y4404313D01*
X12725635Y4446470D01*
X12640055Y4472430D01*
X12573351Y4479000D01*
X12573344Y4479000D01*
X12551056Y4481195D01*
X12528768Y4479000D01*
X10470895Y4479000D01*
X10416900Y4532995D01*
X10309785Y4604567D01*
X10212550Y4644843D01*
X10228867Y4684235D01*
X10254000Y4810587D01*
X10254000Y4939413D01*
X10228867Y5065765D01*
X10179567Y5184785D01*
X10107995Y5291900D01*
X10016900Y5382995D01*
X9909785Y5454567D01*
X9790765Y5503867D01*
X9664413Y5529000D01*
X9626236Y5529000D01*
X9568212Y5587024D01*
X9568212Y5806250D01*
X9556694Y5923199D01*
X9522581Y6035654D01*
X9467184Y6139293D01*
X9392634Y6230134D01*
X9301793Y6304684D01*
X9239422Y6338023D01*
X9276526Y6368474D01*
X9320764Y6422377D01*
X9353635Y6483875D01*
X9373877Y6550604D01*
X9380712Y6620000D01*
X9380712Y7680000D01*
X9373877Y7749396D01*
X9353635Y7816125D01*
X9320764Y7877623D01*
X9276526Y7931526D01*
X9222623Y7975764D01*
X9161125Y8008635D01*
X9094396Y8028877D01*
X9025000Y8035712D01*
X9006576Y8035712D01*
X9005259Y8036793D01*
X8756794Y8285258D01*
X8742578Y8302580D01*
X8673448Y8359314D01*
X8594578Y8401471D01*
X8508998Y8427431D01*
X8442294Y8434001D01*
X8442287Y8434001D01*
X8419999Y8436196D01*
X8397711Y8434001D01*
X7207287Y8434001D01*
X7184999Y8436196D01*
X7162711Y8434001D01*
X7162704Y8434001D01*
X7104420Y8428260D01*
X7095999Y8427431D01*
X7048532Y8413032D01*
X7010420Y8401471D01*
X6931550Y8359314D01*
X6862420Y8302580D01*
X6848209Y8285264D01*
X6598658Y8035712D01*
X6475000Y8035712D01*
X6405604Y8028877D01*
X6338875Y8008635D01*
X6277377Y7975764D01*
X6223474Y7931526D01*
X6179236Y7877623D01*
X6146365Y7816125D01*
X6126123Y7749396D01*
X6119288Y7680000D01*
X6119288Y6620000D01*
X6126123Y6550604D01*
X6146365Y6483875D01*
X6179236Y6422377D01*
X6218562Y6374460D01*
X6164876Y6345765D01*
X6110973Y6301527D01*
X6066735Y6247624D01*
X6033864Y6186125D01*
X6013622Y6119396D01*
X6006787Y6050000D01*
X6008500Y5488500D01*
X6097000Y5400000D01*
X6800000Y5400000D01*
X6800000Y5420000D01*
X6900000Y5420000D01*
X6900000Y5400000D01*
X7603000Y5400000D01*
X7691500Y5488500D01*
X7693213Y6050000D01*
X7686378Y6119396D01*
X7666136Y6186125D01*
X7633265Y6247624D01*
X7615171Y6269671D01*
X7700000Y6354500D01*
X7700000Y7100000D01*
X7680000Y7100000D01*
X7680000Y7200000D01*
X7700000Y7200000D01*
X7700000Y7220000D01*
X7800000Y7220000D01*
X7800000Y7200000D01*
X7820000Y7200000D01*
X7820000Y7100000D01*
X7800000Y7100000D01*
X7800000Y6354500D01*
X7888500Y6266000D01*
X8075000Y6264287D01*
X8102253Y6266971D01*
X8057366Y6230134D01*
X7982816Y6139293D01*
X7927419Y6035654D01*
X7893306Y5923199D01*
X7881788Y5806250D01*
X7881788Y4893750D01*
X7893306Y4776801D01*
X7927419Y4664346D01*
X7982816Y4560707D01*
X8057366Y4469866D01*
X8148207Y4395316D01*
X8244001Y4344112D01*
X8244001Y4338272D01*
X8212544Y4312456D01*
X8141102Y4225404D01*
X8088016Y4126087D01*
X8055326Y4018322D01*
X8055161Y4016651D01*
X8055713Y4125000D01*
X8048878Y4194396D01*
X8028636Y4261125D01*
X7995765Y4322624D01*
X7951527Y4376527D01*
X7897624Y4420765D01*
X7836125Y4453636D01*
X7769396Y4473878D01*
X7700000Y4480713D01*
X7648253Y4480417D01*
X7666136Y4513875D01*
X7686378Y4580604D01*
X7693213Y4650000D01*
X7691500Y5211500D01*
X7603000Y5300000D01*
X6900000Y5300000D01*
X6900000Y5280000D01*
X6800000Y5280000D01*
X6800000Y5300000D01*
X6097000Y5300000D01*
X6008500Y5211500D01*
X6006787Y4650000D01*
X6013622Y4580604D01*
X6033864Y4513875D01*
X6066735Y4452376D01*
X6110973Y4398473D01*
X6164876Y4354235D01*
X6226375Y4321364D01*
X6293104Y4301122D01*
X6362500Y4294287D01*
X6514488Y4295033D01*
X6496364Y4261125D01*
X6476122Y4194396D01*
X6469287Y4125000D01*
X6471000Y3788500D01*
X6559500Y3700000D01*
X7212500Y3700000D01*
X7212500Y3720000D01*
X7312500Y3720000D01*
X7312500Y3700000D01*
X7332500Y3700000D01*
X7332500Y3600000D01*
X7312500Y3600000D01*
X7312500Y3580000D01*
X7212500Y3580000D01*
X7212500Y3600000D01*
X6559500Y3600000D01*
X6471000Y3511500D01*
X6469287Y3175000D01*
X6476122Y3105604D01*
X6496364Y3038875D01*
X6529235Y2977376D01*
X6573473Y2923473D01*
X6627376Y2879235D01*
X6688875Y2846364D01*
X6755604Y2826122D01*
X6825000Y2819287D01*
X7124000Y2821000D01*
X7212498Y2909498D01*
X7212498Y2821000D01*
X7248660Y2821000D01*
X7238016Y2801087D01*
X7205326Y2693322D01*
X7194288Y2581250D01*
X7194288Y2204000D01*
X7110587Y2204000D01*
X6984235Y2178867D01*
X6865215Y2129567D01*
X6758100Y2057995D01*
X6667005Y1966900D01*
X6595433Y1859785D01*
X6546133Y1740765D01*
X6521000Y1614413D01*
X6521000Y1485587D01*
X6546133Y1359235D01*
X6595433Y1240215D01*
X6667005Y1133100D01*
X6758100Y1042005D01*
X6865215Y970433D01*
X6984235Y921133D01*
X7110587Y896000D01*
X7190635Y896000D01*
X7194288Y892347D01*
X7194288Y543750D01*
X7205326Y431678D01*
X7221306Y379000D01*
X379000Y379000D01*
X379000Y11907980D01*
X546000Y11907980D01*
X546000Y11592020D01*
X546001Y11592015D01*
X546000Y7407980D01*
X546000Y7092020D01*
X561448Y7014356D01*
X569209Y6935562D01*
X592192Y6859796D01*
X607641Y6782130D01*
X637944Y6708973D01*
X660927Y6633207D01*
X698251Y6563380D01*
X728554Y6490221D01*
X772548Y6424379D01*
X809870Y6354555D01*
X860098Y6293352D01*
X904092Y6227510D01*
X960082Y6171520D01*
X1010313Y6110313D01*
X1071521Y6060081D01*
X1127510Y6004092D01*
X1193348Y5960101D01*
X1254554Y5909870D01*
X1324383Y5872545D01*
X1390221Y5828554D01*
X1463375Y5798253D01*
X1533206Y5760927D01*
X1608975Y5737943D01*
X1682130Y5707641D01*
X1759793Y5692193D01*
X1835561Y5669209D01*
X1914357Y5661448D01*
X1992020Y5646000D01*
X2071202Y5646000D01*
X2150000Y5638239D01*
X2228797Y5646000D01*
X2307980Y5646000D01*
X2385644Y5661448D01*
X2464438Y5669209D01*
X2540204Y5692192D01*
X2617870Y5707641D01*
X2691027Y5737944D01*
X2766793Y5760927D01*
X2836620Y5798251D01*
X2909779Y5828554D01*
X2975621Y5872548D01*
X3045445Y5909870D01*
X3106648Y5960098D01*
X3172490Y6004092D01*
X3228480Y6060082D01*
X3289687Y6110313D01*
X3339919Y6171521D01*
X3395908Y6227510D01*
X3439899Y6293348D01*
X3490130Y6354554D01*
X3527455Y6424383D01*
X3571446Y6490221D01*
X3601747Y6563375D01*
X3639073Y6633206D01*
X3662057Y6708975D01*
X3692359Y6782130D01*
X3707807Y6859793D01*
X3730791Y6935561D01*
X3738552Y7014357D01*
X3754000Y7092020D01*
X3754000Y7787683D01*
X3969468Y8003151D01*
X3998238Y8026762D01*
X4017248Y8049925D01*
X4087456Y8107544D01*
X4158898Y8194596D01*
X4211984Y8293913D01*
X4244674Y8401678D01*
X4244839Y8403349D01*
X4244287Y8295000D01*
X4251122Y8225604D01*
X4271364Y8158875D01*
X4304235Y8097376D01*
X4348473Y8043473D01*
X4402376Y7999235D01*
X4463875Y7966364D01*
X4530604Y7946122D01*
X4600000Y7939287D01*
X4899000Y7941000D01*
X4987500Y8029500D01*
X4987500Y8720000D01*
X5087500Y8720000D01*
X5087500Y8029500D01*
X5176000Y7941000D01*
X5475000Y7939287D01*
X5544396Y7946122D01*
X5611125Y7966364D01*
X5672624Y7999235D01*
X5726527Y8043473D01*
X5770765Y8097376D01*
X5803636Y8158875D01*
X5823878Y8225604D01*
X5830713Y8295000D01*
X5829000Y8631500D01*
X5740500Y8720000D01*
X5087500Y8720000D01*
X4987500Y8720000D01*
X4967500Y8720000D01*
X4967500Y8820000D01*
X4987500Y8820000D01*
X4987500Y10180000D01*
X5087500Y10180000D01*
X5087500Y8820000D01*
X5740500Y8820000D01*
X5829000Y8908500D01*
X5830713Y9245000D01*
X5823878Y9314396D01*
X5803636Y9381125D01*
X5770765Y9442624D01*
X5726527Y9496527D01*
X5722295Y9500000D01*
X5726527Y9503473D01*
X5770765Y9557376D01*
X5803636Y9618875D01*
X5823878Y9685604D01*
X5830713Y9755000D01*
X5829000Y10091500D01*
X5740500Y10180000D01*
X5087500Y10180000D01*
X4987500Y10180000D01*
X4967500Y10180000D01*
X4967500Y10280000D01*
X4987500Y10280000D01*
X4987500Y10970500D01*
X5087500Y10970500D01*
X5087500Y10280000D01*
X5740500Y10280000D01*
X5829000Y10368500D01*
X5829923Y10550000D01*
X5969287Y10550000D01*
X5976122Y10480604D01*
X5996364Y10413875D01*
X6029235Y10352376D01*
X6073473Y10298473D01*
X6127376Y10254235D01*
X6188875Y10221364D01*
X6255604Y10201122D01*
X6314049Y10195366D01*
X6277377Y10175764D01*
X6223474Y10131526D01*
X6179236Y10077623D01*
X6146365Y10016125D01*
X6126123Y9949396D01*
X6119288Y9880000D01*
X6119288Y8820000D01*
X6126123Y8750604D01*
X6146365Y8683875D01*
X6179236Y8622377D01*
X6223474Y8568474D01*
X6277377Y8524236D01*
X6338875Y8491365D01*
X6405604Y8471123D01*
X6475000Y8464288D01*
X7125000Y8464288D01*
X7194396Y8471123D01*
X7261125Y8491365D01*
X7322623Y8524236D01*
X7376526Y8568474D01*
X7420764Y8622377D01*
X7453635Y8683875D01*
X7473877Y8750604D01*
X7480712Y8820000D01*
X7480712Y9880000D01*
X7473877Y9949396D01*
X7453635Y10016125D01*
X7420764Y10077623D01*
X7376526Y10131526D01*
X7322623Y10175764D01*
X7287857Y10194347D01*
X7300000Y10194287D01*
X7369396Y10201122D01*
X7436125Y10221364D01*
X7497624Y10254235D01*
X7551527Y10298473D01*
X7595765Y10352376D01*
X7628636Y10413875D01*
X7648878Y10480604D01*
X7655713Y10550000D01*
X7654000Y11111500D01*
X7565500Y11200000D01*
X6862500Y11200000D01*
X6862500Y11180000D01*
X6762500Y11180000D01*
X6762500Y11200000D01*
X6059500Y11200000D01*
X5971000Y11111500D01*
X5969287Y10550000D01*
X5829923Y10550000D01*
X5830713Y10705000D01*
X5823878Y10774396D01*
X5803636Y10841125D01*
X5770765Y10902624D01*
X5726527Y10956527D01*
X5672624Y11000765D01*
X5611125Y11033636D01*
X5544396Y11053878D01*
X5475000Y11060713D01*
X5176000Y11059000D01*
X5087500Y10970500D01*
X4987500Y10970500D01*
X4899000Y11059000D01*
X4600000Y11060713D01*
X4530604Y11053878D01*
X4463875Y11033636D01*
X4402376Y11000765D01*
X4348473Y10956527D01*
X4304235Y10902624D01*
X4271364Y10841125D01*
X4251122Y10774396D01*
X4244287Y10705000D01*
X4244839Y10596651D01*
X4244674Y10598322D01*
X4211984Y10706087D01*
X4158898Y10805404D01*
X4087456Y10892456D01*
X4017248Y10950075D01*
X3998238Y10973238D01*
X3969468Y10996849D01*
X3754000Y11212317D01*
X3754000Y11907980D01*
X3738552Y11985643D01*
X3730791Y12064439D01*
X3707807Y12140207D01*
X3692359Y12217870D01*
X3662057Y12291025D01*
X3639073Y12366794D01*
X3601747Y12436625D01*
X3571446Y12509779D01*
X3527455Y12575617D01*
X3490130Y12645446D01*
X3439899Y12706652D01*
X3395908Y12772490D01*
X3339919Y12828479D01*
X3289687Y12889687D01*
X3228479Y12939919D01*
X3172490Y12995908D01*
X3106652Y13039899D01*
X3045446Y13090130D01*
X2975617Y13127455D01*
X2909779Y13171446D01*
X2836625Y13201747D01*
X2766794Y13239073D01*
X2691025Y13262057D01*
X2617870Y13292359D01*
X2540207Y13307807D01*
X2464439Y13330791D01*
X2385643Y13338552D01*
X2307980Y13354000D01*
X2228798Y13354000D01*
X2150000Y13361761D01*
X2071203Y13354000D01*
X1992020Y13354000D01*
X1914356Y13338552D01*
X1835562Y13330791D01*
X1759796Y13307808D01*
X1682130Y13292359D01*
X1608973Y13262056D01*
X1533207Y13239073D01*
X1463380Y13201749D01*
X1390221Y13171446D01*
X1324379Y13127452D01*
X1254555Y13090130D01*
X1193353Y13039903D01*
X1127510Y12995908D01*
X1071516Y12939914D01*
X1010314Y12889687D01*
X960087Y12828485D01*
X904092Y12772490D01*
X860096Y12706646D01*
X809871Y12645446D01*
X772550Y12575624D01*
X728554Y12509779D01*
X698249Y12436617D01*
X660928Y12366794D01*
X637946Y12291034D01*
X607641Y12217870D01*
X592191Y12140197D01*
X569210Y12064439D01*
X561450Y11985653D01*
X546000Y11907980D01*
X379000Y11907980D01*
X379000Y13525000D01*
X6281787Y13525000D01*
X6283500Y13188500D01*
X6372000Y13100000D01*
X7025000Y13100000D01*
X7025000Y13790500D01*
X6936500Y13879000D01*
X6637500Y13880713D01*
X6568104Y13873878D01*
X6501375Y13853636D01*
X6439876Y13820765D01*
X6385973Y13776527D01*
X6341735Y13722624D01*
X6308864Y13661125D01*
X6288622Y13594396D01*
X6281787Y13525000D01*
X379000Y13525000D01*
X379000Y18621000D01*
X11001356Y18621000D01*
X10999288Y18600000D01*
%TA.AperFunction,Conductor*%
D24*
G36*
X10999288Y18600000D02*
G01*
X10999288Y16950000D01*
X11009005Y16851340D01*
X11037783Y16756472D01*
X11084516Y16669041D01*
X11147408Y16592408D01*
X11224041Y16529516D01*
X11311472Y16482783D01*
X11406340Y16454005D01*
X11505000Y16444288D01*
X11805000Y16444288D01*
X11816207Y16445392D01*
X11237316Y15866500D01*
X10517164Y15866500D01*
X10487499Y15869422D01*
X10457835Y15866500D01*
X10457833Y15866500D01*
X10369095Y15857760D01*
X10255241Y15823223D01*
X10150312Y15767137D01*
X10058341Y15691659D01*
X10039429Y15668614D01*
X9074816Y14704000D01*
X8900799Y14704000D01*
X8840765Y14728867D01*
X8714413Y14754000D01*
X8585587Y14754000D01*
X8459235Y14728867D01*
X8340215Y14679567D01*
X8233100Y14607995D01*
X8142005Y14516900D01*
X8070433Y14409785D01*
X8021133Y14290765D01*
X7996000Y14164413D01*
X7996000Y14035587D01*
X8021133Y13909235D01*
X8046000Y13849201D01*
X8046000Y13729655D01*
X8025044Y13712456D01*
X7953602Y13625404D01*
X7900516Y13526087D01*
X7867826Y13418322D01*
X7867661Y13416651D01*
X7868213Y13525000D01*
X7861378Y13594396D01*
X7841136Y13661125D01*
X7808265Y13722624D01*
X7764027Y13776527D01*
X7710124Y13820765D01*
X7648625Y13853636D01*
X7581896Y13873878D01*
X7512500Y13880713D01*
X7213500Y13879000D01*
X7125000Y13790500D01*
X7125000Y13100000D01*
X7145000Y13100000D01*
X7145000Y13000000D01*
X7125000Y13000000D01*
X7125000Y12980000D01*
X7025000Y12980000D01*
X7025000Y13000000D01*
X6372000Y13000000D01*
X6283500Y12911500D01*
X6281787Y12575000D01*
X6288622Y12505604D01*
X6308864Y12438875D01*
X6341735Y12377376D01*
X6385973Y12323473D01*
X6408110Y12305305D01*
X6325000Y12305713D01*
X6255604Y12298878D01*
X6188875Y12278636D01*
X6127376Y12245765D01*
X6073473Y12201527D01*
X6029235Y12147624D01*
X5996364Y12086125D01*
X5976122Y12019396D01*
X5969287Y11950000D01*
X5971000Y11388500D01*
X6059500Y11300000D01*
X6762500Y11300000D01*
X6762500Y11320000D01*
X6862500Y11320000D01*
X6862500Y11300000D01*
X7565500Y11300000D01*
X7654000Y11388500D01*
X7655713Y11950000D01*
X7648878Y12019396D01*
X7628636Y12086125D01*
X7595765Y12147624D01*
X7551527Y12201527D01*
X7528024Y12220816D01*
X7581896Y12226122D01*
X7648625Y12246364D01*
X7710124Y12279235D01*
X7764027Y12323473D01*
X7808265Y12377376D01*
X7841136Y12438875D01*
X7861378Y12505604D01*
X7868213Y12575000D01*
X7867661Y12683349D01*
X7867826Y12681678D01*
X7900516Y12573913D01*
X7953602Y12474596D01*
X8025044Y12387544D01*
X8112096Y12316102D01*
X8206501Y12265642D01*
X8206501Y12255887D01*
X8110707Y12204684D01*
X8019866Y12130134D01*
X7945316Y12039293D01*
X7889919Y11935654D01*
X7855806Y11823199D01*
X7844288Y11706250D01*
X7844288Y10793750D01*
X7855806Y10676801D01*
X7889919Y10564346D01*
X7945316Y10460707D01*
X8019866Y10369866D01*
X8110707Y10295316D01*
X8214346Y10239919D01*
X8219000Y10238507D01*
X8219000Y10198012D01*
X8177377Y10175764D01*
X8123474Y10131526D01*
X8079236Y10077623D01*
X8046365Y10016125D01*
X8026123Y9949396D01*
X8019288Y9880000D01*
X8019288Y8820000D01*
X8026123Y8750604D01*
X8046365Y8683875D01*
X8079236Y8622377D01*
X8123474Y8568474D01*
X8177377Y8524236D01*
X8238875Y8491365D01*
X8305604Y8471123D01*
X8375000Y8464288D01*
X9025000Y8464288D01*
X9094396Y8471123D01*
X9161125Y8491365D01*
X9222623Y8524236D01*
X9276526Y8568474D01*
X9320764Y8622377D01*
X9353635Y8683875D01*
X9373877Y8750604D01*
X9380712Y8820000D01*
X9380712Y9880000D01*
X9373877Y9949396D01*
X9353635Y10016125D01*
X9348892Y10025000D01*
X10531787Y10025000D01*
X10538622Y9955604D01*
X10558864Y9888875D01*
X10591735Y9827376D01*
X10635973Y9773473D01*
X10689876Y9729235D01*
X10751375Y9696364D01*
X10818104Y9676122D01*
X10887500Y9669287D01*
X11186500Y9671000D01*
X11275000Y9759500D01*
X11275000Y10450000D01*
X10622000Y10450000D01*
X10533500Y10361500D01*
X10531787Y10025000D01*
X9348892Y10025000D01*
X9320764Y10077623D01*
X9276526Y10131526D01*
X9222623Y10175764D01*
X9181000Y10198012D01*
X9181000Y10250794D01*
X9264293Y10295316D01*
X9355134Y10369866D01*
X9429684Y10460707D01*
X9485081Y10564346D01*
X9519194Y10676801D01*
X9530712Y10793750D01*
X9530712Y10975000D01*
X10531787Y10975000D01*
X10533500Y10638500D01*
X10622000Y10550000D01*
X11275000Y10550000D01*
X11275000Y11240500D01*
X11186500Y11329000D01*
X10887500Y11330713D01*
X10818104Y11323878D01*
X10751375Y11303636D01*
X10689876Y11270765D01*
X10635973Y11226527D01*
X10591735Y11172624D01*
X10558864Y11111125D01*
X10538622Y11044396D01*
X10531787Y10975000D01*
X9530712Y10975000D01*
X9530712Y11706250D01*
X9519194Y11823199D01*
X9485081Y11935654D01*
X9429684Y12039293D01*
X9355134Y12130134D01*
X9264293Y12204684D01*
X9168500Y12255887D01*
X9168500Y12305730D01*
X9187904Y12316102D01*
X9274956Y12387544D01*
X9346398Y12474596D01*
X9399484Y12573913D01*
X9432174Y12681678D01*
X9443212Y12793750D01*
X9443212Y13306250D01*
X9432174Y13418322D01*
X9407046Y13501159D01*
X9443405Y13504740D01*
X9557259Y13539277D01*
X9662188Y13595363D01*
X9754159Y13670841D01*
X9773078Y13693894D01*
X10737685Y14658500D01*
X11457833Y14658500D01*
X11487500Y14655578D01*
X11517167Y14658500D01*
X11605905Y14667240D01*
X11719759Y14701777D01*
X11824688Y14757863D01*
X11916659Y14833341D01*
X11935577Y14856393D01*
X12525181Y15445996D01*
X15596001Y15445996D01*
X15596000Y14364667D01*
X15593078Y14335000D01*
X15603211Y14232124D01*
X15604740Y14216596D01*
X15623462Y14154879D01*
X15615000Y14155712D01*
X15315000Y14155712D01*
X15216340Y14145995D01*
X15121472Y14117217D01*
X15034041Y14070484D01*
X14957408Y14007592D01*
X14894516Y13930959D01*
X14847783Y13843528D01*
X14830000Y13784906D01*
X14812217Y13843528D01*
X14765484Y13930959D01*
X14702592Y14007592D01*
X14625959Y14070484D01*
X14538528Y14117217D01*
X14443660Y14145995D01*
X14345000Y14155712D01*
X14045000Y14155712D01*
X13946340Y14145995D01*
X13851472Y14117217D01*
X13764041Y14070484D01*
X13687408Y14007592D01*
X13624516Y13930959D01*
X13577783Y13843528D01*
X13560000Y13784906D01*
X13542217Y13843528D01*
X13495484Y13930959D01*
X13488889Y13938994D01*
X13557995Y14008100D01*
X13629567Y14115215D01*
X13678867Y14234235D01*
X13704000Y14360587D01*
X13704000Y14489413D01*
X13678867Y14615765D01*
X13629567Y14734785D01*
X13557995Y14841900D01*
X13466900Y14932995D01*
X13359785Y15004567D01*
X13240765Y15053867D01*
X13114413Y15079000D01*
X12985587Y15079000D01*
X12859235Y15053867D01*
X12740215Y15004567D01*
X12633100Y14932995D01*
X12576446Y14876341D01*
X12545157Y14873259D01*
X12536736Y14872430D01*
X12486411Y14857164D01*
X12451157Y14846470D01*
X12372287Y14804313D01*
X12303157Y14747579D01*
X12288946Y14730263D01*
X11994738Y14436055D01*
X11977423Y14421844D01*
X11920689Y14352714D01*
X11911756Y14336001D01*
X11878531Y14273843D01*
X11852571Y14188264D01*
X11848939Y14151384D01*
X11805000Y14155712D01*
X11505000Y14155712D01*
X11406340Y14145995D01*
X11311472Y14117217D01*
X11224041Y14070484D01*
X11147408Y14007592D01*
X11084516Y13930959D01*
X11037783Y13843528D01*
X11009005Y13748660D01*
X10999288Y13650000D01*
X10999288Y12000000D01*
X11009005Y11901340D01*
X11037783Y11806472D01*
X11084516Y11719041D01*
X11147408Y11642408D01*
X11224041Y11579516D01*
X11311472Y11532783D01*
X11406340Y11504005D01*
X11505000Y11494288D01*
X11805000Y11494288D01*
X11846001Y11498326D01*
X11846001Y11319599D01*
X11831896Y11323878D01*
X11762500Y11330713D01*
X11463500Y11329000D01*
X11375000Y11240500D01*
X11375000Y10550000D01*
X11395000Y10550000D01*
X11395000Y10450000D01*
X11375000Y10450000D01*
X11375000Y9759500D01*
X11463500Y9671000D01*
X11762500Y9669287D01*
X11831896Y9676122D01*
X11898625Y9696364D01*
X11960124Y9729235D01*
X12014027Y9773473D01*
X12058265Y9827376D01*
X12091136Y9888875D01*
X12111378Y9955604D01*
X12118213Y10025000D01*
X12117661Y10133349D01*
X12117826Y10131678D01*
X12150516Y10023913D01*
X12203602Y9924596D01*
X12275044Y9837544D01*
X12362096Y9766102D01*
X12461413Y9713016D01*
X12569178Y9680326D01*
X12681250Y9669288D01*
X13101180Y9669288D01*
X12910079Y9478188D01*
X12883323Y9470071D01*
X12802375Y9426804D01*
X12731424Y9368576D01*
X12673196Y9297625D01*
X12629929Y9216677D01*
X12603285Y9128844D01*
X12594288Y9037500D01*
X12594288Y7362500D01*
X12603285Y7271156D01*
X12629929Y7183323D01*
X12673196Y7102375D01*
X12731424Y7031424D01*
X12802375Y6973196D01*
X12883323Y6929929D01*
X12971156Y6903285D01*
X13062500Y6894288D01*
X13287500Y6894288D01*
X13371000Y6902512D01*
X13371001Y4195896D01*
X13367005Y4191900D01*
X13295433Y4084785D01*
X13247952Y3970156D01*
X12887850Y4330258D01*
X12873635Y4347579D01*
X12804505Y4404313D01*
X12725635Y4446470D01*
X12640055Y4472430D01*
X12573351Y4479000D01*
X12573344Y4479000D01*
X12551056Y4481195D01*
X12528768Y4479000D01*
X10470895Y4479000D01*
X10416900Y4532995D01*
X10309785Y4604567D01*
X10212550Y4644843D01*
X10228867Y4684235D01*
X10254000Y4810587D01*
X10254000Y4939413D01*
X10228867Y5065765D01*
X10179567Y5184785D01*
X10107995Y5291900D01*
X10016900Y5382995D01*
X9909785Y5454567D01*
X9790765Y5503867D01*
X9664413Y5529000D01*
X9626236Y5529000D01*
X9568212Y5587024D01*
X9568212Y5806250D01*
X9556694Y5923199D01*
X9522581Y6035654D01*
X9467184Y6139293D01*
X9392634Y6230134D01*
X9301793Y6304684D01*
X9239422Y6338023D01*
X9276526Y6368474D01*
X9320764Y6422377D01*
X9353635Y6483875D01*
X9373877Y6550604D01*
X9380712Y6620000D01*
X9380712Y7680000D01*
X9373877Y7749396D01*
X9353635Y7816125D01*
X9320764Y7877623D01*
X9276526Y7931526D01*
X9222623Y7975764D01*
X9161125Y8008635D01*
X9094396Y8028877D01*
X9025000Y8035712D01*
X9006576Y8035712D01*
X9005259Y8036793D01*
X8756794Y8285258D01*
X8742578Y8302580D01*
X8673448Y8359314D01*
X8594578Y8401471D01*
X8508998Y8427431D01*
X8442294Y8434001D01*
X8442287Y8434001D01*
X8419999Y8436196D01*
X8397711Y8434001D01*
X7207287Y8434001D01*
X7184999Y8436196D01*
X7162711Y8434001D01*
X7162704Y8434001D01*
X7104420Y8428260D01*
X7095999Y8427431D01*
X7048532Y8413032D01*
X7010420Y8401471D01*
X6931550Y8359314D01*
X6862420Y8302580D01*
X6848209Y8285264D01*
X6598658Y8035712D01*
X6475000Y8035712D01*
X6405604Y8028877D01*
X6338875Y8008635D01*
X6277377Y7975764D01*
X6223474Y7931526D01*
X6179236Y7877623D01*
X6146365Y7816125D01*
X6126123Y7749396D01*
X6119288Y7680000D01*
X6119288Y6620000D01*
X6126123Y6550604D01*
X6146365Y6483875D01*
X6179236Y6422377D01*
X6218562Y6374460D01*
X6164876Y6345765D01*
X6110973Y6301527D01*
X6066735Y6247624D01*
X6033864Y6186125D01*
X6013622Y6119396D01*
X6006787Y6050000D01*
X6008500Y5488500D01*
X6097000Y5400000D01*
X6800000Y5400000D01*
X6800000Y5420000D01*
X6900000Y5420000D01*
X6900000Y5400000D01*
X7603000Y5400000D01*
X7691500Y5488500D01*
X7693213Y6050000D01*
X7686378Y6119396D01*
X7666136Y6186125D01*
X7633265Y6247624D01*
X7615171Y6269671D01*
X7700000Y6354500D01*
X7700000Y7100000D01*
X7680000Y7100000D01*
X7680000Y7200000D01*
X7700000Y7200000D01*
X7700000Y7220000D01*
X7800000Y7220000D01*
X7800000Y7200000D01*
X7820000Y7200000D01*
X7820000Y7100000D01*
X7800000Y7100000D01*
X7800000Y6354500D01*
X7888500Y6266000D01*
X8075000Y6264287D01*
X8102253Y6266971D01*
X8057366Y6230134D01*
X7982816Y6139293D01*
X7927419Y6035654D01*
X7893306Y5923199D01*
X7881788Y5806250D01*
X7881788Y4893750D01*
X7893306Y4776801D01*
X7927419Y4664346D01*
X7982816Y4560707D01*
X8057366Y4469866D01*
X8148207Y4395316D01*
X8244001Y4344112D01*
X8244001Y4338272D01*
X8212544Y4312456D01*
X8141102Y4225404D01*
X8088016Y4126087D01*
X8055326Y4018322D01*
X8055161Y4016651D01*
X8055713Y4125000D01*
X8048878Y4194396D01*
X8028636Y4261125D01*
X7995765Y4322624D01*
X7951527Y4376527D01*
X7897624Y4420765D01*
X7836125Y4453636D01*
X7769396Y4473878D01*
X7700000Y4480713D01*
X7648253Y4480417D01*
X7666136Y4513875D01*
X7686378Y4580604D01*
X7693213Y4650000D01*
X7691500Y5211500D01*
X7603000Y5300000D01*
X6900000Y5300000D01*
X6900000Y5280000D01*
X6800000Y5280000D01*
X6800000Y5300000D01*
X6097000Y5300000D01*
X6008500Y5211500D01*
X6006787Y4650000D01*
X6013622Y4580604D01*
X6033864Y4513875D01*
X6066735Y4452376D01*
X6110973Y4398473D01*
X6164876Y4354235D01*
X6226375Y4321364D01*
X6293104Y4301122D01*
X6362500Y4294287D01*
X6514488Y4295033D01*
X6496364Y4261125D01*
X6476122Y4194396D01*
X6469287Y4125000D01*
X6471000Y3788500D01*
X6559500Y3700000D01*
X7212500Y3700000D01*
X7212500Y3720000D01*
X7312500Y3720000D01*
X7312500Y3700000D01*
X7332500Y3700000D01*
X7332500Y3600000D01*
X7312500Y3600000D01*
X7312500Y3580000D01*
X7212500Y3580000D01*
X7212500Y3600000D01*
X6559500Y3600000D01*
X6471000Y3511500D01*
X6469287Y3175000D01*
X6476122Y3105604D01*
X6496364Y3038875D01*
X6529235Y2977376D01*
X6573473Y2923473D01*
X6627376Y2879235D01*
X6688875Y2846364D01*
X6755604Y2826122D01*
X6825000Y2819287D01*
X7124000Y2821000D01*
X7212498Y2909498D01*
X7212498Y2821000D01*
X7248660Y2821000D01*
X7238016Y2801087D01*
X7205326Y2693322D01*
X7194288Y2581250D01*
X7194288Y2204000D01*
X7110587Y2204000D01*
X6984235Y2178867D01*
X6865215Y2129567D01*
X6758100Y2057995D01*
X6667005Y1966900D01*
X6595433Y1859785D01*
X6546133Y1740765D01*
X6521000Y1614413D01*
X6521000Y1485587D01*
X6546133Y1359235D01*
X6595433Y1240215D01*
X6667005Y1133100D01*
X6758100Y1042005D01*
X6865215Y970433D01*
X6984235Y921133D01*
X7110587Y896000D01*
X7190635Y896000D01*
X7194288Y892347D01*
X7194288Y543750D01*
X7205326Y431678D01*
X7221306Y379000D01*
X379000Y379000D01*
X379000Y11907980D01*
X546000Y11907980D01*
X546000Y11592020D01*
X546001Y11592015D01*
X546000Y7407980D01*
X546000Y7092020D01*
X561448Y7014356D01*
X569209Y6935562D01*
X592192Y6859796D01*
X607641Y6782130D01*
X637944Y6708973D01*
X660927Y6633207D01*
X698251Y6563380D01*
X728554Y6490221D01*
X772548Y6424379D01*
X809870Y6354555D01*
X860098Y6293352D01*
X904092Y6227510D01*
X960082Y6171520D01*
X1010313Y6110313D01*
X1071521Y6060081D01*
X1127510Y6004092D01*
X1193348Y5960101D01*
X1254554Y5909870D01*
X1324383Y5872545D01*
X1390221Y5828554D01*
X1463375Y5798253D01*
X1533206Y5760927D01*
X1608975Y5737943D01*
X1682130Y5707641D01*
X1759793Y5692193D01*
X1835561Y5669209D01*
X1914357Y5661448D01*
X1992020Y5646000D01*
X2071202Y5646000D01*
X2150000Y5638239D01*
X2228797Y5646000D01*
X2307980Y5646000D01*
X2385644Y5661448D01*
X2464438Y5669209D01*
X2540204Y5692192D01*
X2617870Y5707641D01*
X2691027Y5737944D01*
X2766793Y5760927D01*
X2836620Y5798251D01*
X2909779Y5828554D01*
X2975621Y5872548D01*
X3045445Y5909870D01*
X3106648Y5960098D01*
X3172490Y6004092D01*
X3228480Y6060082D01*
X3289687Y6110313D01*
X3339919Y6171521D01*
X3395908Y6227510D01*
X3439899Y6293348D01*
X3490130Y6354554D01*
X3527455Y6424383D01*
X3571446Y6490221D01*
X3601747Y6563375D01*
X3639073Y6633206D01*
X3662057Y6708975D01*
X3692359Y6782130D01*
X3707807Y6859793D01*
X3730791Y6935561D01*
X3738552Y7014357D01*
X3754000Y7092020D01*
X3754000Y7787683D01*
X3969468Y8003151D01*
X3998238Y8026762D01*
X4017248Y8049925D01*
X4087456Y8107544D01*
X4158898Y8194596D01*
X4211984Y8293913D01*
X4244674Y8401678D01*
X4244839Y8403349D01*
X4244287Y8295000D01*
X4251122Y8225604D01*
X4271364Y8158875D01*
X4304235Y8097376D01*
X4348473Y8043473D01*
X4402376Y7999235D01*
X4463875Y7966364D01*
X4530604Y7946122D01*
X4600000Y7939287D01*
X4899000Y7941000D01*
X4987500Y8029500D01*
X4987500Y8720000D01*
X5087500Y8720000D01*
X5087500Y8029500D01*
X5176000Y7941000D01*
X5475000Y7939287D01*
X5544396Y7946122D01*
X5611125Y7966364D01*
X5672624Y7999235D01*
X5726527Y8043473D01*
X5770765Y8097376D01*
X5803636Y8158875D01*
X5823878Y8225604D01*
X5830713Y8295000D01*
X5829000Y8631500D01*
X5740500Y8720000D01*
X5087500Y8720000D01*
X4987500Y8720000D01*
X4967500Y8720000D01*
X4967500Y8820000D01*
X4987500Y8820000D01*
X4987500Y10180000D01*
X5087500Y10180000D01*
X5087500Y8820000D01*
X5740500Y8820000D01*
X5829000Y8908500D01*
X5830713Y9245000D01*
X5823878Y9314396D01*
X5803636Y9381125D01*
X5770765Y9442624D01*
X5726527Y9496527D01*
X5722295Y9500000D01*
X5726527Y9503473D01*
X5770765Y9557376D01*
X5803636Y9618875D01*
X5823878Y9685604D01*
X5830713Y9755000D01*
X5829000Y10091500D01*
X5740500Y10180000D01*
X5087500Y10180000D01*
X4987500Y10180000D01*
X4967500Y10180000D01*
X4967500Y10280000D01*
X4987500Y10280000D01*
X4987500Y10970500D01*
X5087500Y10970500D01*
X5087500Y10280000D01*
X5740500Y10280000D01*
X5829000Y10368500D01*
X5829923Y10550000D01*
X5969287Y10550000D01*
X5976122Y10480604D01*
X5996364Y10413875D01*
X6029235Y10352376D01*
X6073473Y10298473D01*
X6127376Y10254235D01*
X6188875Y10221364D01*
X6255604Y10201122D01*
X6314049Y10195366D01*
X6277377Y10175764D01*
X6223474Y10131526D01*
X6179236Y10077623D01*
X6146365Y10016125D01*
X6126123Y9949396D01*
X6119288Y9880000D01*
X6119288Y8820000D01*
X6126123Y8750604D01*
X6146365Y8683875D01*
X6179236Y8622377D01*
X6223474Y8568474D01*
X6277377Y8524236D01*
X6338875Y8491365D01*
X6405604Y8471123D01*
X6475000Y8464288D01*
X7125000Y8464288D01*
X7194396Y8471123D01*
X7261125Y8491365D01*
X7322623Y8524236D01*
X7376526Y8568474D01*
X7420764Y8622377D01*
X7453635Y8683875D01*
X7473877Y8750604D01*
X7480712Y8820000D01*
X7480712Y9880000D01*
X7473877Y9949396D01*
X7453635Y10016125D01*
X7420764Y10077623D01*
X7376526Y10131526D01*
X7322623Y10175764D01*
X7287857Y10194347D01*
X7300000Y10194287D01*
X7369396Y10201122D01*
X7436125Y10221364D01*
X7497624Y10254235D01*
X7551527Y10298473D01*
X7595765Y10352376D01*
X7628636Y10413875D01*
X7648878Y10480604D01*
X7655713Y10550000D01*
X7654000Y11111500D01*
X7565500Y11200000D01*
X6862500Y11200000D01*
X6862500Y11180000D01*
X6762500Y11180000D01*
X6762500Y11200000D01*
X6059500Y11200000D01*
X5971000Y11111500D01*
X5969287Y10550000D01*
X5829923Y10550000D01*
X5830713Y10705000D01*
X5823878Y10774396D01*
X5803636Y10841125D01*
X5770765Y10902624D01*
X5726527Y10956527D01*
X5672624Y11000765D01*
X5611125Y11033636D01*
X5544396Y11053878D01*
X5475000Y11060713D01*
X5176000Y11059000D01*
X5087500Y10970500D01*
X4987500Y10970500D01*
X4899000Y11059000D01*
X4600000Y11060713D01*
X4530604Y11053878D01*
X4463875Y11033636D01*
X4402376Y11000765D01*
X4348473Y10956527D01*
X4304235Y10902624D01*
X4271364Y10841125D01*
X4251122Y10774396D01*
X4244287Y10705000D01*
X4244839Y10596651D01*
X4244674Y10598322D01*
X4211984Y10706087D01*
X4158898Y10805404D01*
X4087456Y10892456D01*
X4017248Y10950075D01*
X3998238Y10973238D01*
X3969468Y10996849D01*
X3754000Y11212317D01*
X3754000Y11907980D01*
X3738552Y11985643D01*
X3730791Y12064439D01*
X3707807Y12140207D01*
X3692359Y12217870D01*
X3662057Y12291025D01*
X3639073Y12366794D01*
X3601747Y12436625D01*
X3571446Y12509779D01*
X3527455Y12575617D01*
X3490130Y12645446D01*
X3439899Y12706652D01*
X3395908Y12772490D01*
X3339919Y12828479D01*
X3289687Y12889687D01*
X3228479Y12939919D01*
X3172490Y12995908D01*
X3106652Y13039899D01*
X3045446Y13090130D01*
X2975617Y13127455D01*
X2909779Y13171446D01*
X2836625Y13201747D01*
X2766794Y13239073D01*
X2691025Y13262057D01*
X2617870Y13292359D01*
X2540207Y13307807D01*
X2464439Y13330791D01*
X2385643Y13338552D01*
X2307980Y13354000D01*
X2228798Y13354000D01*
X2150000Y13361761D01*
X2071203Y13354000D01*
X1992020Y13354000D01*
X1914356Y13338552D01*
X1835562Y13330791D01*
X1759796Y13307808D01*
X1682130Y13292359D01*
X1608973Y13262056D01*
X1533207Y13239073D01*
X1463380Y13201749D01*
X1390221Y13171446D01*
X1324379Y13127452D01*
X1254555Y13090130D01*
X1193353Y13039903D01*
X1127510Y12995908D01*
X1071516Y12939914D01*
X1010314Y12889687D01*
X960087Y12828485D01*
X904092Y12772490D01*
X860096Y12706646D01*
X809871Y12645446D01*
X772550Y12575624D01*
X728554Y12509779D01*
X698249Y12436617D01*
X660928Y12366794D01*
X637946Y12291034D01*
X607641Y12217870D01*
X592191Y12140197D01*
X569210Y12064439D01*
X561450Y11985653D01*
X546000Y11907980D01*
X379000Y11907980D01*
X379000Y13525000D01*
X6281787Y13525000D01*
X6283500Y13188500D01*
X6372000Y13100000D01*
X7025000Y13100000D01*
X7025000Y13790500D01*
X6936500Y13879000D01*
X6637500Y13880713D01*
X6568104Y13873878D01*
X6501375Y13853636D01*
X6439876Y13820765D01*
X6385973Y13776527D01*
X6341735Y13722624D01*
X6308864Y13661125D01*
X6288622Y13594396D01*
X6281787Y13525000D01*
X379000Y13525000D01*
X379000Y18621000D01*
X11001356Y18621000D01*
X10999288Y18600000D01*
G37*
%TD.AperFunction*%
D19*
X29900000Y379000D02*
X27452797Y379000D01*
X27476526Y398474D01*
X27520764Y452377D01*
X27553635Y513875D01*
X27573877Y580604D01*
X27580712Y650000D01*
X27580712Y1650000D01*
X27573877Y1719396D01*
X27553635Y1786125D01*
X27520764Y1847623D01*
X27476526Y1901526D01*
X27430760Y1939086D01*
X27481805Y2015479D01*
X27546181Y2170897D01*
X27579000Y2335888D01*
X27579000Y2504112D01*
X27546181Y2669103D01*
X27481805Y2824521D01*
X27388345Y2964393D01*
X27294246Y3058492D01*
X27340420Y3097902D01*
X27444107Y3229341D01*
X27520160Y3378483D01*
X27559217Y3507250D01*
X27488865Y3640000D01*
X26775000Y3640000D01*
X26775000Y3620000D01*
X26675000Y3620000D01*
X26675000Y3640000D01*
X25961135Y3640000D01*
X25890783Y3507250D01*
X25929840Y3378483D01*
X26005893Y3229341D01*
X26109580Y3097902D01*
X26155754Y3058492D01*
X26071262Y2974000D01*
X25799473Y2974000D01*
X25613483Y3159990D01*
X25596132Y3181132D01*
X25511775Y3250363D01*
X25415532Y3301805D01*
X25311103Y3333484D01*
X25229712Y3341500D01*
X25229704Y3341500D01*
X25202500Y3344179D01*
X25175296Y3341500D01*
X25145688Y3341500D01*
X25087456Y3412456D01*
X25000404Y3483898D01*
X24979000Y3495339D01*
X24979000Y3524468D01*
X25009567Y3570215D01*
X25058867Y3689235D01*
X25084000Y3815587D01*
X25084000Y3944413D01*
X25058867Y4070765D01*
X25009567Y4189785D01*
X24937995Y4296900D01*
X24846900Y4387995D01*
X24739785Y4459567D01*
X24677443Y4485390D01*
X24698053Y4506000D01*
X26001256Y4506000D01*
X26061655Y4415607D01*
X26155754Y4321508D01*
X26109580Y4282098D01*
X26005893Y4150659D01*
X25929840Y4001517D01*
X25890783Y3872750D01*
X25961135Y3740000D01*
X26675000Y3740000D01*
X26675000Y3760000D01*
X26775000Y3760000D01*
X26775000Y3740000D01*
X27488865Y3740000D01*
X27559217Y3872750D01*
X27520160Y4001517D01*
X27444107Y4150659D01*
X27340420Y4282098D01*
X27294246Y4321508D01*
X27388345Y4415607D01*
X27481805Y4555479D01*
X27546181Y4710897D01*
X27579000Y4875888D01*
X27579000Y5044112D01*
X27546181Y5209103D01*
X27481805Y5364521D01*
X27388345Y5504393D01*
X27297738Y5595000D01*
X27388345Y5685607D01*
X27481805Y5825479D01*
X27546181Y5980897D01*
X27579000Y6145888D01*
X27579000Y6314112D01*
X27546181Y6479103D01*
X27481805Y6634521D01*
X27388345Y6774393D01*
X27269393Y6893345D01*
X27129521Y6986805D01*
X26974103Y7051181D01*
X26809112Y7084000D01*
X26640888Y7084000D01*
X26475897Y7051181D01*
X26320479Y6986805D01*
X26180607Y6893345D01*
X26061655Y6774393D01*
X25968195Y6634521D01*
X25903819Y6479103D01*
X25871000Y6314112D01*
X25871000Y6145888D01*
X25892209Y6039262D01*
X25666958Y5814010D01*
X24366598Y5814010D01*
X24344310Y5816205D01*
X24322022Y5814010D01*
X24322016Y5814010D01*
X24264612Y5808356D01*
X24255311Y5807440D01*
X24219362Y5796535D01*
X24169732Y5781480D01*
X24090862Y5739323D01*
X24090860Y5739322D01*
X24090861Y5739322D01*
X24040039Y5697613D01*
X24021732Y5682589D01*
X24007520Y5665272D01*
X23998082Y5655833D01*
X24004000Y5685587D01*
X24004000Y7305382D01*
X24007163Y7337500D01*
X24004000Y7369618D01*
X24004000Y7369625D01*
X23994537Y7465706D01*
X23990672Y7478449D01*
X23957140Y7588986D01*
X23945373Y7611001D01*
X23896412Y7702601D01*
X23814685Y7802185D01*
X23789730Y7822665D01*
X23054000Y8558395D01*
X23054000Y14167886D01*
X23057163Y14200001D01*
X23054000Y14232116D01*
X23054000Y14232125D01*
X23044537Y14328206D01*
X23007140Y14451486D01*
X22946412Y14565101D01*
X22918116Y14599579D01*
X22885163Y14639733D01*
X22885161Y14639735D01*
X22864685Y14664685D01*
X22839736Y14685160D01*
X21199000Y16325895D01*
X21199000Y16932617D01*
X21200712Y16950000D01*
X21200712Y18600000D01*
X21198644Y18621000D01*
X29900000Y18621000D01*
X29900000Y379000D01*
%TA.AperFunction,Conductor*%
D24*
G36*
X29900000Y379000D02*
G01*
X27452797Y379000D01*
X27476526Y398474D01*
X27520764Y452377D01*
X27553635Y513875D01*
X27573877Y580604D01*
X27580712Y650000D01*
X27580712Y1650000D01*
X27573877Y1719396D01*
X27553635Y1786125D01*
X27520764Y1847623D01*
X27476526Y1901526D01*
X27430760Y1939086D01*
X27481805Y2015479D01*
X27546181Y2170897D01*
X27579000Y2335888D01*
X27579000Y2504112D01*
X27546181Y2669103D01*
X27481805Y2824521D01*
X27388345Y2964393D01*
X27294246Y3058492D01*
X27340420Y3097902D01*
X27444107Y3229341D01*
X27520160Y3378483D01*
X27559217Y3507250D01*
X27488865Y3640000D01*
X26775000Y3640000D01*
X26775000Y3620000D01*
X26675000Y3620000D01*
X26675000Y3640000D01*
X25961135Y3640000D01*
X25890783Y3507250D01*
X25929840Y3378483D01*
X26005893Y3229341D01*
X26109580Y3097902D01*
X26155754Y3058492D01*
X26071262Y2974000D01*
X25799473Y2974000D01*
X25613483Y3159990D01*
X25596132Y3181132D01*
X25511775Y3250363D01*
X25415532Y3301805D01*
X25311103Y3333484D01*
X25229712Y3341500D01*
X25229704Y3341500D01*
X25202500Y3344179D01*
X25175296Y3341500D01*
X25145688Y3341500D01*
X25087456Y3412456D01*
X25000404Y3483898D01*
X24979000Y3495339D01*
X24979000Y3524468D01*
X25009567Y3570215D01*
X25058867Y3689235D01*
X25084000Y3815587D01*
X25084000Y3944413D01*
X25058867Y4070765D01*
X25009567Y4189785D01*
X24937995Y4296900D01*
X24846900Y4387995D01*
X24739785Y4459567D01*
X24677443Y4485390D01*
X24698053Y4506000D01*
X26001256Y4506000D01*
X26061655Y4415607D01*
X26155754Y4321508D01*
X26109580Y4282098D01*
X26005893Y4150659D01*
X25929840Y4001517D01*
X25890783Y3872750D01*
X25961135Y3740000D01*
X26675000Y3740000D01*
X26675000Y3760000D01*
X26775000Y3760000D01*
X26775000Y3740000D01*
X27488865Y3740000D01*
X27559217Y3872750D01*
X27520160Y4001517D01*
X27444107Y4150659D01*
X27340420Y4282098D01*
X27294246Y4321508D01*
X27388345Y4415607D01*
X27481805Y4555479D01*
X27546181Y4710897D01*
X27579000Y4875888D01*
X27579000Y5044112D01*
X27546181Y5209103D01*
X27481805Y5364521D01*
X27388345Y5504393D01*
X27297738Y5595000D01*
X27388345Y5685607D01*
X27481805Y5825479D01*
X27546181Y5980897D01*
X27579000Y6145888D01*
X27579000Y6314112D01*
X27546181Y6479103D01*
X27481805Y6634521D01*
X27388345Y6774393D01*
X27269393Y6893345D01*
X27129521Y6986805D01*
X26974103Y7051181D01*
X26809112Y7084000D01*
X26640888Y7084000D01*
X26475897Y7051181D01*
X26320479Y6986805D01*
X26180607Y6893345D01*
X26061655Y6774393D01*
X25968195Y6634521D01*
X25903819Y6479103D01*
X25871000Y6314112D01*
X25871000Y6145888D01*
X25892209Y6039262D01*
X25666958Y5814010D01*
X24366598Y5814010D01*
X24344310Y5816205D01*
X24322022Y5814010D01*
X24322016Y5814010D01*
X24264612Y5808356D01*
X24255311Y5807440D01*
X24219362Y5796535D01*
X24169732Y5781480D01*
X24090862Y5739323D01*
X24090860Y5739322D01*
X24090861Y5739322D01*
X24040039Y5697613D01*
X24021732Y5682589D01*
X24007520Y5665272D01*
X23998082Y5655833D01*
X24004000Y5685587D01*
X24004000Y7305382D01*
X24007163Y7337500D01*
X24004000Y7369618D01*
X24004000Y7369625D01*
X23994537Y7465706D01*
X23990672Y7478449D01*
X23957140Y7588986D01*
X23945373Y7611001D01*
X23896412Y7702601D01*
X23814685Y7802185D01*
X23789730Y7822665D01*
X23054000Y8558395D01*
X23054000Y14167886D01*
X23057163Y14200001D01*
X23054000Y14232116D01*
X23054000Y14232125D01*
X23044537Y14328206D01*
X23007140Y14451486D01*
X22946412Y14565101D01*
X22918116Y14599579D01*
X22885163Y14639733D01*
X22885161Y14639735D01*
X22864685Y14664685D01*
X22839736Y14685160D01*
X21199000Y16325895D01*
X21199000Y16932617D01*
X21200712Y16950000D01*
X21200712Y18600000D01*
X21198644Y18621000D01*
X29900000Y18621000D01*
X29900000Y379000D01*
G37*
%TD.AperFunction*%
D19*
X23776000Y3944413D02*
X23776000Y3815587D01*
X23801133Y3689235D01*
X23850433Y3570215D01*
X23871001Y3539433D01*
X23871001Y3495339D01*
X23849596Y3483898D01*
X23762544Y3412456D01*
X23691102Y3325404D01*
X23638016Y3226087D01*
X23605326Y3118322D01*
X23594288Y3006250D01*
X23594288Y2568750D01*
X23605326Y2456678D01*
X23638016Y2348913D01*
X23691102Y2249596D01*
X23762544Y2162544D01*
X23849596Y2091102D01*
X23948913Y2038016D01*
X24056678Y2005326D01*
X24110754Y2000000D01*
X24056678Y1994674D01*
X23948913Y1961984D01*
X23849596Y1908898D01*
X23762544Y1837456D01*
X23691102Y1750404D01*
X23638016Y1651087D01*
X23605326Y1543322D01*
X23594288Y1431250D01*
X23594288Y1165261D01*
X23558027Y1129000D01*
X21766974Y1129000D01*
X21730712Y1165262D01*
X21730712Y1431250D01*
X21719674Y1543322D01*
X21686984Y1651087D01*
X21633898Y1750404D01*
X21562456Y1837456D01*
X21475404Y1908898D01*
X21376087Y1961984D01*
X21268322Y1994674D01*
X21266651Y1994839D01*
X21375000Y1994287D01*
X21444396Y2001122D01*
X21511125Y2021364D01*
X21572624Y2054235D01*
X21626527Y2098473D01*
X21670765Y2152376D01*
X21703636Y2213875D01*
X21723878Y2280604D01*
X21730713Y2350000D01*
X21729000Y2649000D01*
X21640500Y2737500D01*
X20950000Y2737500D01*
X20950000Y2717500D01*
X20850000Y2717500D01*
X20850000Y2737500D01*
X20159500Y2737500D01*
X20071000Y2649000D01*
X20069287Y2350000D01*
X20076122Y2280604D01*
X20096364Y2213875D01*
X20129235Y2152376D01*
X20173473Y2098473D01*
X20227376Y2054235D01*
X20288875Y2021364D01*
X20355604Y2001122D01*
X20425000Y1994287D01*
X20533349Y1994839D01*
X20531678Y1994674D01*
X20423913Y1961984D01*
X20324596Y1908898D01*
X20237544Y1837456D01*
X20169053Y1754000D01*
X19605712Y1754000D01*
X19605712Y2037500D01*
X19596715Y2128844D01*
X19570071Y2216677D01*
X19526804Y2297625D01*
X19468576Y2368576D01*
X19397625Y2426804D01*
X19316677Y2470071D01*
X19274820Y2482768D01*
X20074994Y3282941D01*
X20069287Y3225000D01*
X20071000Y2926000D01*
X20159500Y2837500D01*
X20850000Y2837500D01*
X20850000Y3490500D01*
X20950000Y3490500D01*
X20950000Y2837500D01*
X21640500Y2837500D01*
X21729000Y2926000D01*
X21730713Y3225000D01*
X21723878Y3294396D01*
X21703636Y3361125D01*
X21670765Y3422624D01*
X21626527Y3476527D01*
X21572624Y3520765D01*
X21511125Y3553636D01*
X21444396Y3573878D01*
X21375000Y3580713D01*
X21038500Y3579000D01*
X20950000Y3490500D01*
X20850000Y3490500D01*
X20761500Y3579000D01*
X20425000Y3580713D01*
X20367059Y3575006D01*
X20788053Y3996000D01*
X23786261Y3996000D01*
X23776000Y3944413D01*
%TA.AperFunction,Conductor*%
D24*
G36*
X23776000Y3944413D02*
G01*
X23776000Y3815587D01*
X23801133Y3689235D01*
X23850433Y3570215D01*
X23871001Y3539433D01*
X23871001Y3495339D01*
X23849596Y3483898D01*
X23762544Y3412456D01*
X23691102Y3325404D01*
X23638016Y3226087D01*
X23605326Y3118322D01*
X23594288Y3006250D01*
X23594288Y2568750D01*
X23605326Y2456678D01*
X23638016Y2348913D01*
X23691102Y2249596D01*
X23762544Y2162544D01*
X23849596Y2091102D01*
X23948913Y2038016D01*
X24056678Y2005326D01*
X24110754Y2000000D01*
X24056678Y1994674D01*
X23948913Y1961984D01*
X23849596Y1908898D01*
X23762544Y1837456D01*
X23691102Y1750404D01*
X23638016Y1651087D01*
X23605326Y1543322D01*
X23594288Y1431250D01*
X23594288Y1165261D01*
X23558027Y1129000D01*
X21766974Y1129000D01*
X21730712Y1165262D01*
X21730712Y1431250D01*
X21719674Y1543322D01*
X21686984Y1651087D01*
X21633898Y1750404D01*
X21562456Y1837456D01*
X21475404Y1908898D01*
X21376087Y1961984D01*
X21268322Y1994674D01*
X21266651Y1994839D01*
X21375000Y1994287D01*
X21444396Y2001122D01*
X21511125Y2021364D01*
X21572624Y2054235D01*
X21626527Y2098473D01*
X21670765Y2152376D01*
X21703636Y2213875D01*
X21723878Y2280604D01*
X21730713Y2350000D01*
X21729000Y2649000D01*
X21640500Y2737500D01*
X20950000Y2737500D01*
X20950000Y2717500D01*
X20850000Y2717500D01*
X20850000Y2737500D01*
X20159500Y2737500D01*
X20071000Y2649000D01*
X20069287Y2350000D01*
X20076122Y2280604D01*
X20096364Y2213875D01*
X20129235Y2152376D01*
X20173473Y2098473D01*
X20227376Y2054235D01*
X20288875Y2021364D01*
X20355604Y2001122D01*
X20425000Y1994287D01*
X20533349Y1994839D01*
X20531678Y1994674D01*
X20423913Y1961984D01*
X20324596Y1908898D01*
X20237544Y1837456D01*
X20169053Y1754000D01*
X19605712Y1754000D01*
X19605712Y2037500D01*
X19596715Y2128844D01*
X19570071Y2216677D01*
X19526804Y2297625D01*
X19468576Y2368576D01*
X19397625Y2426804D01*
X19316677Y2470071D01*
X19274820Y2482768D01*
X20074994Y3282941D01*
X20069287Y3225000D01*
X20071000Y2926000D01*
X20159500Y2837500D01*
X20850000Y2837500D01*
X20850000Y3490500D01*
X20950000Y3490500D01*
X20950000Y2837500D01*
X21640500Y2837500D01*
X21729000Y2926000D01*
X21730713Y3225000D01*
X21723878Y3294396D01*
X21703636Y3361125D01*
X21670765Y3422624D01*
X21626527Y3476527D01*
X21572624Y3520765D01*
X21511125Y3553636D01*
X21444396Y3573878D01*
X21375000Y3580713D01*
X21038500Y3579000D01*
X20950000Y3490500D01*
X20850000Y3490500D01*
X20761500Y3579000D01*
X20425000Y3580713D01*
X20367059Y3575006D01*
X20788053Y3996000D01*
X23786261Y3996000D01*
X23776000Y3944413D01*
G37*
%TD.AperFunction*%
D19*
X12594288Y1402762D02*
X12545527Y1354000D01*
X10270339Y1354000D01*
X10258898Y1375404D01*
X10187456Y1462456D01*
X10100404Y1533898D01*
X10046893Y1562500D01*
X10100404Y1591102D01*
X10187456Y1662544D01*
X10258898Y1749596D01*
X10311984Y1848913D01*
X10318684Y1871000D01*
X12377712Y1871000D01*
X12400000Y1868805D01*
X12422288Y1871000D01*
X12422295Y1871000D01*
X12488999Y1877570D01*
X12574579Y1903530D01*
X12594288Y1914065D01*
X12594288Y1402762D01*
%TA.AperFunction,Conductor*%
D24*
G36*
X12594288Y1402762D02*
G01*
X12545527Y1354000D01*
X10270339Y1354000D01*
X10258898Y1375404D01*
X10187456Y1462456D01*
X10100404Y1533898D01*
X10046893Y1562500D01*
X10100404Y1591102D01*
X10187456Y1662544D01*
X10258898Y1749596D01*
X10311984Y1848913D01*
X10318684Y1871000D01*
X12377712Y1871000D01*
X12400000Y1868805D01*
X12422288Y1871000D01*
X12422295Y1871000D01*
X12488999Y1877570D01*
X12574579Y1903530D01*
X12594288Y1914065D01*
X12594288Y1402762D01*
G37*
%TD.AperFunction*%
D19*
X21746000Y13929104D02*
X21746001Y8941500D01*
X21527066Y8941500D01*
X21475404Y8983898D01*
X21376087Y9036984D01*
X21268322Y9069674D01*
X21156250Y9080712D01*
X20643750Y9080712D01*
X20531678Y9069674D01*
X20423913Y9036984D01*
X20324596Y8983898D01*
X20237544Y8912456D01*
X20220346Y8891500D01*
X19605712Y8891500D01*
X19605712Y9037500D01*
X19596715Y9128844D01*
X19570071Y9216677D01*
X19526804Y9297625D01*
X19487149Y9345945D01*
X19825000Y9344287D01*
X19894396Y9351122D01*
X19961125Y9371364D01*
X20022624Y9404235D01*
X20076527Y9448473D01*
X20120765Y9502376D01*
X20153636Y9563875D01*
X20173878Y9630604D01*
X20180713Y9700000D01*
X20179000Y10261500D01*
X20090500Y10350000D01*
X19387500Y10350000D01*
X19387500Y10330000D01*
X19287500Y10330000D01*
X19287500Y10350000D01*
X18584500Y10350000D01*
X18496000Y10261500D01*
X18494287Y9700000D01*
X18501122Y9630604D01*
X18521364Y9563875D01*
X18552949Y9504781D01*
X18513500Y9504000D01*
X18425000Y9415500D01*
X18425000Y8250000D01*
X18444288Y8250000D01*
X18444288Y8212184D01*
X18443088Y8200000D01*
X18444288Y8187816D01*
X18444288Y8150000D01*
X18425000Y8150000D01*
X18425000Y6984500D01*
X18513500Y6896000D01*
X18600000Y6894287D01*
X18669396Y6901122D01*
X18736125Y6921364D01*
X18745333Y6926286D01*
X18821156Y6903285D01*
X18912500Y6894288D01*
X19137500Y6894288D01*
X19228844Y6903285D01*
X19316677Y6929929D01*
X19397625Y6973196D01*
X19468576Y7031424D01*
X19526804Y7102375D01*
X19570071Y7183323D01*
X19596715Y7271156D01*
X19605712Y7362500D01*
X19605712Y7683500D01*
X20220346Y7683500D01*
X20237544Y7662544D01*
X20324596Y7591102D01*
X20423913Y7538016D01*
X20531678Y7505326D01*
X20533349Y7505161D01*
X20425000Y7505713D01*
X20355604Y7498878D01*
X20288875Y7478636D01*
X20227376Y7445765D01*
X20173473Y7401527D01*
X20129235Y7347624D01*
X20096364Y7286125D01*
X20076122Y7219396D01*
X20069287Y7150000D01*
X20071000Y6851000D01*
X20159500Y6762500D01*
X20850000Y6762500D01*
X20850000Y6782500D01*
X20950000Y6782500D01*
X20950000Y6762500D01*
X21640500Y6762500D01*
X21729000Y6851000D01*
X21730713Y7150000D01*
X21723878Y7219396D01*
X21703636Y7286125D01*
X21670765Y7347624D01*
X21626527Y7401527D01*
X21572624Y7445765D01*
X21511125Y7478636D01*
X21444396Y7498878D01*
X21375000Y7505713D01*
X21266651Y7505161D01*
X21268322Y7505326D01*
X21376087Y7538016D01*
X21475404Y7591102D01*
X21527066Y7633500D01*
X22129105Y7633500D01*
X22696000Y7066605D01*
X22696001Y5814418D01*
X22696000Y5814413D01*
X22696000Y5685587D01*
X22702301Y5653911D01*
X22705464Y5621794D01*
X22714832Y5590912D01*
X22721133Y5559235D01*
X22733493Y5529395D01*
X22742861Y5498514D01*
X22758074Y5470053D01*
X22770433Y5440215D01*
X22788374Y5413364D01*
X22803589Y5384899D01*
X22824065Y5359949D01*
X22842005Y5333100D01*
X22864840Y5310265D01*
X22869973Y5304010D01*
X20447298Y5304010D01*
X20425010Y5306205D01*
X20402722Y5304010D01*
X20402715Y5304010D01*
X20344431Y5298269D01*
X20336010Y5297440D01*
X20250431Y5271480D01*
X20171561Y5229323D01*
X20102431Y5172589D01*
X20088220Y5155273D01*
X19716802Y4783855D01*
X19667995Y4856900D01*
X19576900Y4947995D01*
X19469785Y5019567D01*
X19350765Y5068867D01*
X19224413Y5094000D01*
X19095587Y5094000D01*
X18969235Y5068867D01*
X18850215Y5019567D01*
X18743100Y4947995D01*
X18652005Y4856900D01*
X18580433Y4749785D01*
X18531133Y4630765D01*
X18506000Y4504413D01*
X18506000Y4375587D01*
X18531133Y4249235D01*
X18550478Y4202531D01*
X17576948Y3229000D01*
X16422284Y3229000D01*
X16399999Y3231195D01*
X16377714Y3229000D01*
X16377705Y3229000D01*
X16311001Y3222430D01*
X16225421Y3196470D01*
X16146551Y3154313D01*
X16077421Y3097579D01*
X16063210Y3080263D01*
X15469738Y2486790D01*
X15452422Y2472579D01*
X15440092Y2457555D01*
X15416677Y2470071D01*
X15328844Y2496715D01*
X15237500Y2505712D01*
X15012500Y2505712D01*
X14921156Y2496715D01*
X14833323Y2470071D01*
X14800000Y2452260D01*
X14797223Y2453744D01*
X14891900Y2517005D01*
X14982995Y2608100D01*
X15054567Y2715215D01*
X15103867Y2834235D01*
X15129000Y2960587D01*
X15129000Y3089413D01*
X15103867Y3215765D01*
X15054567Y3334785D01*
X14982995Y3441900D01*
X14929000Y3495895D01*
X14929000Y4052713D01*
X14931195Y4075001D01*
X14929000Y4097289D01*
X14929000Y4097295D01*
X14923346Y4154699D01*
X14922430Y4164000D01*
X14896470Y4249579D01*
X14891435Y4258999D01*
X14854313Y4328449D01*
X14797579Y4397579D01*
X14780259Y4411793D01*
X14679010Y4513042D01*
X14679010Y5658653D01*
X14709235Y5646133D01*
X14835587Y5621000D01*
X14964413Y5621000D01*
X15090765Y5646133D01*
X15209785Y5695433D01*
X15316900Y5767005D01*
X15348426Y5798530D01*
X15377771Y5769185D01*
X15484886Y5697613D01*
X15550714Y5670346D01*
X15538937Y5648313D01*
X15528529Y5628841D01*
X15507415Y5559235D01*
X15502569Y5543261D01*
X15495999Y5476557D01*
X15495999Y5476551D01*
X15493804Y5454263D01*
X15495999Y5431975D01*
X15496000Y4436180D01*
X15459235Y4428867D01*
X15340215Y4379567D01*
X15233100Y4307995D01*
X15142005Y4216900D01*
X15070433Y4109785D01*
X15021133Y3990765D01*
X14996000Y3864413D01*
X14996000Y3735587D01*
X15021133Y3609235D01*
X15070433Y3490215D01*
X15142005Y3383100D01*
X15233100Y3292005D01*
X15340215Y3220433D01*
X15459235Y3171133D01*
X15585587Y3146000D01*
X15714413Y3146000D01*
X15840765Y3171133D01*
X15959785Y3220433D01*
X16066900Y3292005D01*
X16157995Y3383100D01*
X16229567Y3490215D01*
X16278867Y3609235D01*
X16304000Y3735587D01*
X16304000Y3815707D01*
X16329312Y3846550D01*
X16371469Y3925420D01*
X16379705Y3952570D01*
X16397429Y4010999D01*
X16398876Y4025687D01*
X16403999Y4077704D01*
X16403999Y4077711D01*
X16406194Y4099999D01*
X16403999Y4122287D01*
X16403999Y5266211D01*
X17271001Y6133212D01*
X17271001Y4875896D01*
X17212005Y4816900D01*
X17140433Y4709785D01*
X17091133Y4590765D01*
X17066000Y4464413D01*
X17066000Y4335587D01*
X17091133Y4209235D01*
X17140433Y4090215D01*
X17212005Y3983100D01*
X17303100Y3892005D01*
X17410215Y3820433D01*
X17529235Y3771133D01*
X17655587Y3746000D01*
X17784413Y3746000D01*
X17910765Y3771133D01*
X18029785Y3820433D01*
X18136900Y3892005D01*
X18227995Y3983100D01*
X18299567Y4090215D01*
X18348867Y4209235D01*
X18374000Y4335587D01*
X18374000Y4464413D01*
X18348867Y4590765D01*
X18299567Y4709785D01*
X18227995Y4816900D01*
X18179000Y4865895D01*
X18179000Y6275000D01*
X20069287Y6275000D01*
X20076122Y6205604D01*
X20096364Y6138875D01*
X20129235Y6077376D01*
X20173473Y6023473D01*
X20227376Y5979235D01*
X20288875Y5946364D01*
X20355604Y5926122D01*
X20425000Y5919287D01*
X20761500Y5921000D01*
X20850000Y6009500D01*
X20850000Y6662500D01*
X20950000Y6662500D01*
X20950000Y6009500D01*
X21038500Y5921000D01*
X21375000Y5919287D01*
X21444396Y5926122D01*
X21511125Y5946364D01*
X21572624Y5979235D01*
X21626527Y6023473D01*
X21670765Y6077376D01*
X21703636Y6138875D01*
X21723878Y6205604D01*
X21730713Y6275000D01*
X21729000Y6574000D01*
X21640500Y6662500D01*
X20950000Y6662500D01*
X20850000Y6662500D01*
X20159500Y6662500D01*
X20071000Y6574000D01*
X20069287Y6275000D01*
X18179000Y6275000D01*
X18179000Y6894861D01*
X18236500Y6896000D01*
X18325000Y6984500D01*
X18325000Y8150000D01*
X18305712Y8150000D01*
X18305712Y8250000D01*
X18325000Y8250000D01*
X18325000Y9415500D01*
X18236500Y9504000D01*
X18150000Y9505713D01*
X18107827Y9501559D01*
X18130134Y9519866D01*
X18204684Y9610707D01*
X18260081Y9714346D01*
X18294194Y9826801D01*
X18305712Y9943750D01*
X18305712Y10651943D01*
X18335587Y10646000D01*
X18464413Y10646000D01*
X18495653Y10652214D01*
X18496000Y10538500D01*
X18584500Y10450000D01*
X19287500Y10450000D01*
X19287500Y11365500D01*
X19199000Y11454000D01*
X19036021Y11454800D01*
X19028867Y11490765D01*
X19022958Y11505031D01*
X19026340Y11504005D01*
X19125000Y11494288D01*
X19363658Y11494288D01*
X19439973Y11417973D01*
X19387500Y11365500D01*
X19387500Y10450000D01*
X20090500Y10450000D01*
X20179000Y10538500D01*
X20179328Y10646000D01*
X20264411Y10646000D01*
X20390763Y10671133D01*
X20509783Y10720433D01*
X20616898Y10792005D01*
X20707993Y10883100D01*
X20779565Y10990215D01*
X20828865Y11109235D01*
X20853998Y11235587D01*
X20853998Y11364413D01*
X20828865Y11490765D01*
X20827328Y11494474D01*
X20845000Y11494287D01*
X20914396Y11501122D01*
X20981125Y11521364D01*
X21042624Y11554235D01*
X21096527Y11598473D01*
X21140765Y11652376D01*
X21173636Y11713875D01*
X21193878Y11780604D01*
X21200713Y11850000D01*
X21199000Y12686500D01*
X21110500Y12775000D01*
X20595000Y12775000D01*
X20595000Y12755000D01*
X20495000Y12755000D01*
X20495000Y12775000D01*
X20475000Y12775000D01*
X20475000Y12875000D01*
X20495000Y12875000D01*
X20495000Y14065500D01*
X20595000Y14065500D01*
X20595000Y12875000D01*
X21110500Y12875000D01*
X21199000Y12963500D01*
X21200713Y13800000D01*
X21193878Y13869396D01*
X21173636Y13936125D01*
X21140765Y13997624D01*
X21096527Y14051527D01*
X21042624Y14095765D01*
X20981125Y14128636D01*
X20914396Y14148878D01*
X20845000Y14155713D01*
X20683500Y14154000D01*
X20595000Y14065500D01*
X20495000Y14065500D01*
X20406500Y14154000D01*
X20245000Y14155713D01*
X20175604Y14148878D01*
X20108875Y14128636D01*
X20047376Y14095765D01*
X19993473Y14051527D01*
X19949235Y13997624D01*
X19916364Y13936125D01*
X19896122Y13869396D01*
X19893242Y13840151D01*
X19892217Y13843528D01*
X19845484Y13930959D01*
X19782592Y14007592D01*
X19705959Y14070484D01*
X19618528Y14117217D01*
X19523660Y14145995D01*
X19425000Y14155712D01*
X19125000Y14155712D01*
X19026340Y14145995D01*
X18931472Y14117217D01*
X18844041Y14070484D01*
X18767408Y14007592D01*
X18704516Y13930959D01*
X18657783Y13843528D01*
X18640000Y13784906D01*
X18622217Y13843528D01*
X18575484Y13930959D01*
X18512592Y14007592D01*
X18435959Y14070484D01*
X18348528Y14117217D01*
X18253660Y14145995D01*
X18155000Y14155712D01*
X17855000Y14155712D01*
X17756340Y14145995D01*
X17661472Y14117217D01*
X17574041Y14070484D01*
X17497408Y14007592D01*
X17434516Y13930959D01*
X17387783Y13843528D01*
X17370000Y13784906D01*
X17352217Y13843528D01*
X17334341Y13876972D01*
X17330260Y13918405D01*
X17295723Y14032259D01*
X17239637Y14137188D01*
X17164159Y14229159D01*
X17141111Y14248073D01*
X16804000Y14585184D01*
X16804000Y15395996D01*
X20279109Y15395996D01*
X21746000Y13929104D01*
%TA.AperFunction,Conductor*%
D24*
G36*
X21746000Y13929104D02*
G01*
X21746001Y8941500D01*
X21527066Y8941500D01*
X21475404Y8983898D01*
X21376087Y9036984D01*
X21268322Y9069674D01*
X21156250Y9080712D01*
X20643750Y9080712D01*
X20531678Y9069674D01*
X20423913Y9036984D01*
X20324596Y8983898D01*
X20237544Y8912456D01*
X20220346Y8891500D01*
X19605712Y8891500D01*
X19605712Y9037500D01*
X19596715Y9128844D01*
X19570071Y9216677D01*
X19526804Y9297625D01*
X19487149Y9345945D01*
X19825000Y9344287D01*
X19894396Y9351122D01*
X19961125Y9371364D01*
X20022624Y9404235D01*
X20076527Y9448473D01*
X20120765Y9502376D01*
X20153636Y9563875D01*
X20173878Y9630604D01*
X20180713Y9700000D01*
X20179000Y10261500D01*
X20090500Y10350000D01*
X19387500Y10350000D01*
X19387500Y10330000D01*
X19287500Y10330000D01*
X19287500Y10350000D01*
X18584500Y10350000D01*
X18496000Y10261500D01*
X18494287Y9700000D01*
X18501122Y9630604D01*
X18521364Y9563875D01*
X18552949Y9504781D01*
X18513500Y9504000D01*
X18425000Y9415500D01*
X18425000Y8250000D01*
X18444288Y8250000D01*
X18444288Y8212184D01*
X18443088Y8200000D01*
X18444288Y8187816D01*
X18444288Y8150000D01*
X18425000Y8150000D01*
X18425000Y6984500D01*
X18513500Y6896000D01*
X18600000Y6894287D01*
X18669396Y6901122D01*
X18736125Y6921364D01*
X18745333Y6926286D01*
X18821156Y6903285D01*
X18912500Y6894288D01*
X19137500Y6894288D01*
X19228844Y6903285D01*
X19316677Y6929929D01*
X19397625Y6973196D01*
X19468576Y7031424D01*
X19526804Y7102375D01*
X19570071Y7183323D01*
X19596715Y7271156D01*
X19605712Y7362500D01*
X19605712Y7683500D01*
X20220346Y7683500D01*
X20237544Y7662544D01*
X20324596Y7591102D01*
X20423913Y7538016D01*
X20531678Y7505326D01*
X20533349Y7505161D01*
X20425000Y7505713D01*
X20355604Y7498878D01*
X20288875Y7478636D01*
X20227376Y7445765D01*
X20173473Y7401527D01*
X20129235Y7347624D01*
X20096364Y7286125D01*
X20076122Y7219396D01*
X20069287Y7150000D01*
X20071000Y6851000D01*
X20159500Y6762500D01*
X20850000Y6762500D01*
X20850000Y6782500D01*
X20950000Y6782500D01*
X20950000Y6762500D01*
X21640500Y6762500D01*
X21729000Y6851000D01*
X21730713Y7150000D01*
X21723878Y7219396D01*
X21703636Y7286125D01*
X21670765Y7347624D01*
X21626527Y7401527D01*
X21572624Y7445765D01*
X21511125Y7478636D01*
X21444396Y7498878D01*
X21375000Y7505713D01*
X21266651Y7505161D01*
X21268322Y7505326D01*
X21376087Y7538016D01*
X21475404Y7591102D01*
X21527066Y7633500D01*
X22129105Y7633500D01*
X22696000Y7066605D01*
X22696001Y5814418D01*
X22696000Y5814413D01*
X22696000Y5685587D01*
X22702301Y5653911D01*
X22705464Y5621794D01*
X22714832Y5590912D01*
X22721133Y5559235D01*
X22733493Y5529395D01*
X22742861Y5498514D01*
X22758074Y5470053D01*
X22770433Y5440215D01*
X22788374Y5413364D01*
X22803589Y5384899D01*
X22824065Y5359949D01*
X22842005Y5333100D01*
X22864840Y5310265D01*
X22869973Y5304010D01*
X20447298Y5304010D01*
X20425010Y5306205D01*
X20402722Y5304010D01*
X20402715Y5304010D01*
X20344431Y5298269D01*
X20336010Y5297440D01*
X20250431Y5271480D01*
X20171561Y5229323D01*
X20102431Y5172589D01*
X20088220Y5155273D01*
X19716802Y4783855D01*
X19667995Y4856900D01*
X19576900Y4947995D01*
X19469785Y5019567D01*
X19350765Y5068867D01*
X19224413Y5094000D01*
X19095587Y5094000D01*
X18969235Y5068867D01*
X18850215Y5019567D01*
X18743100Y4947995D01*
X18652005Y4856900D01*
X18580433Y4749785D01*
X18531133Y4630765D01*
X18506000Y4504413D01*
X18506000Y4375587D01*
X18531133Y4249235D01*
X18550478Y4202531D01*
X17576948Y3229000D01*
X16422284Y3229000D01*
X16399999Y3231195D01*
X16377714Y3229000D01*
X16377705Y3229000D01*
X16311001Y3222430D01*
X16225421Y3196470D01*
X16146551Y3154313D01*
X16077421Y3097579D01*
X16063210Y3080263D01*
X15469738Y2486790D01*
X15452422Y2472579D01*
X15440092Y2457555D01*
X15416677Y2470071D01*
X15328844Y2496715D01*
X15237500Y2505712D01*
X15012500Y2505712D01*
X14921156Y2496715D01*
X14833323Y2470071D01*
X14800000Y2452260D01*
X14797223Y2453744D01*
X14891900Y2517005D01*
X14982995Y2608100D01*
X15054567Y2715215D01*
X15103867Y2834235D01*
X15129000Y2960587D01*
X15129000Y3089413D01*
X15103867Y3215765D01*
X15054567Y3334785D01*
X14982995Y3441900D01*
X14929000Y3495895D01*
X14929000Y4052713D01*
X14931195Y4075001D01*
X14929000Y4097289D01*
X14929000Y4097295D01*
X14923346Y4154699D01*
X14922430Y4164000D01*
X14896470Y4249579D01*
X14891435Y4258999D01*
X14854313Y4328449D01*
X14797579Y4397579D01*
X14780259Y4411793D01*
X14679010Y4513042D01*
X14679010Y5658653D01*
X14709235Y5646133D01*
X14835587Y5621000D01*
X14964413Y5621000D01*
X15090765Y5646133D01*
X15209785Y5695433D01*
X15316900Y5767005D01*
X15348426Y5798530D01*
X15377771Y5769185D01*
X15484886Y5697613D01*
X15550714Y5670346D01*
X15538937Y5648313D01*
X15528529Y5628841D01*
X15507415Y5559235D01*
X15502569Y5543261D01*
X15495999Y5476557D01*
X15495999Y5476551D01*
X15493804Y5454263D01*
X15495999Y5431975D01*
X15496000Y4436180D01*
X15459235Y4428867D01*
X15340215Y4379567D01*
X15233100Y4307995D01*
X15142005Y4216900D01*
X15070433Y4109785D01*
X15021133Y3990765D01*
X14996000Y3864413D01*
X14996000Y3735587D01*
X15021133Y3609235D01*
X15070433Y3490215D01*
X15142005Y3383100D01*
X15233100Y3292005D01*
X15340215Y3220433D01*
X15459235Y3171133D01*
X15585587Y3146000D01*
X15714413Y3146000D01*
X15840765Y3171133D01*
X15959785Y3220433D01*
X16066900Y3292005D01*
X16157995Y3383100D01*
X16229567Y3490215D01*
X16278867Y3609235D01*
X16304000Y3735587D01*
X16304000Y3815707D01*
X16329312Y3846550D01*
X16371469Y3925420D01*
X16379705Y3952570D01*
X16397429Y4010999D01*
X16398876Y4025687D01*
X16403999Y4077704D01*
X16403999Y4077711D01*
X16406194Y4099999D01*
X16403999Y4122287D01*
X16403999Y5266211D01*
X17271001Y6133212D01*
X17271001Y4875896D01*
X17212005Y4816900D01*
X17140433Y4709785D01*
X17091133Y4590765D01*
X17066000Y4464413D01*
X17066000Y4335587D01*
X17091133Y4209235D01*
X17140433Y4090215D01*
X17212005Y3983100D01*
X17303100Y3892005D01*
X17410215Y3820433D01*
X17529235Y3771133D01*
X17655587Y3746000D01*
X17784413Y3746000D01*
X17910765Y3771133D01*
X18029785Y3820433D01*
X18136900Y3892005D01*
X18227995Y3983100D01*
X18299567Y4090215D01*
X18348867Y4209235D01*
X18374000Y4335587D01*
X18374000Y4464413D01*
X18348867Y4590765D01*
X18299567Y4709785D01*
X18227995Y4816900D01*
X18179000Y4865895D01*
X18179000Y6275000D01*
X20069287Y6275000D01*
X20076122Y6205604D01*
X20096364Y6138875D01*
X20129235Y6077376D01*
X20173473Y6023473D01*
X20227376Y5979235D01*
X20288875Y5946364D01*
X20355604Y5926122D01*
X20425000Y5919287D01*
X20761500Y5921000D01*
X20850000Y6009500D01*
X20850000Y6662500D01*
X20950000Y6662500D01*
X20950000Y6009500D01*
X21038500Y5921000D01*
X21375000Y5919287D01*
X21444396Y5926122D01*
X21511125Y5946364D01*
X21572624Y5979235D01*
X21626527Y6023473D01*
X21670765Y6077376D01*
X21703636Y6138875D01*
X21723878Y6205604D01*
X21730713Y6275000D01*
X21729000Y6574000D01*
X21640500Y6662500D01*
X20950000Y6662500D01*
X20850000Y6662500D01*
X20159500Y6662500D01*
X20071000Y6574000D01*
X20069287Y6275000D01*
X18179000Y6275000D01*
X18179000Y6894861D01*
X18236500Y6896000D01*
X18325000Y6984500D01*
X18325000Y8150000D01*
X18305712Y8150000D01*
X18305712Y8250000D01*
X18325000Y8250000D01*
X18325000Y9415500D01*
X18236500Y9504000D01*
X18150000Y9505713D01*
X18107827Y9501559D01*
X18130134Y9519866D01*
X18204684Y9610707D01*
X18260081Y9714346D01*
X18294194Y9826801D01*
X18305712Y9943750D01*
X18305712Y10651943D01*
X18335587Y10646000D01*
X18464413Y10646000D01*
X18495653Y10652214D01*
X18496000Y10538500D01*
X18584500Y10450000D01*
X19287500Y10450000D01*
X19287500Y11365500D01*
X19199000Y11454000D01*
X19036021Y11454800D01*
X19028867Y11490765D01*
X19022958Y11505031D01*
X19026340Y11504005D01*
X19125000Y11494288D01*
X19363658Y11494288D01*
X19439973Y11417973D01*
X19387500Y11365500D01*
X19387500Y10450000D01*
X20090500Y10450000D01*
X20179000Y10538500D01*
X20179328Y10646000D01*
X20264411Y10646000D01*
X20390763Y10671133D01*
X20509783Y10720433D01*
X20616898Y10792005D01*
X20707993Y10883100D01*
X20779565Y10990215D01*
X20828865Y11109235D01*
X20853998Y11235587D01*
X20853998Y11364413D01*
X20828865Y11490765D01*
X20827328Y11494474D01*
X20845000Y11494287D01*
X20914396Y11501122D01*
X20981125Y11521364D01*
X21042624Y11554235D01*
X21096527Y11598473D01*
X21140765Y11652376D01*
X21173636Y11713875D01*
X21193878Y11780604D01*
X21200713Y11850000D01*
X21199000Y12686500D01*
X21110500Y12775000D01*
X20595000Y12775000D01*
X20595000Y12755000D01*
X20495000Y12755000D01*
X20495000Y12775000D01*
X20475000Y12775000D01*
X20475000Y12875000D01*
X20495000Y12875000D01*
X20495000Y14065500D01*
X20595000Y14065500D01*
X20595000Y12875000D01*
X21110500Y12875000D01*
X21199000Y12963500D01*
X21200713Y13800000D01*
X21193878Y13869396D01*
X21173636Y13936125D01*
X21140765Y13997624D01*
X21096527Y14051527D01*
X21042624Y14095765D01*
X20981125Y14128636D01*
X20914396Y14148878D01*
X20845000Y14155713D01*
X20683500Y14154000D01*
X20595000Y14065500D01*
X20495000Y14065500D01*
X20406500Y14154000D01*
X20245000Y14155713D01*
X20175604Y14148878D01*
X20108875Y14128636D01*
X20047376Y14095765D01*
X19993473Y14051527D01*
X19949235Y13997624D01*
X19916364Y13936125D01*
X19896122Y13869396D01*
X19893242Y13840151D01*
X19892217Y13843528D01*
X19845484Y13930959D01*
X19782592Y14007592D01*
X19705959Y14070484D01*
X19618528Y14117217D01*
X19523660Y14145995D01*
X19425000Y14155712D01*
X19125000Y14155712D01*
X19026340Y14145995D01*
X18931472Y14117217D01*
X18844041Y14070484D01*
X18767408Y14007592D01*
X18704516Y13930959D01*
X18657783Y13843528D01*
X18640000Y13784906D01*
X18622217Y13843528D01*
X18575484Y13930959D01*
X18512592Y14007592D01*
X18435959Y14070484D01*
X18348528Y14117217D01*
X18253660Y14145995D01*
X18155000Y14155712D01*
X17855000Y14155712D01*
X17756340Y14145995D01*
X17661472Y14117217D01*
X17574041Y14070484D01*
X17497408Y14007592D01*
X17434516Y13930959D01*
X17387783Y13843528D01*
X17370000Y13784906D01*
X17352217Y13843528D01*
X17334341Y13876972D01*
X17330260Y13918405D01*
X17295723Y14032259D01*
X17239637Y14137188D01*
X17164159Y14229159D01*
X17141111Y14248073D01*
X16804000Y14585184D01*
X16804000Y15395996D01*
X20279109Y15395996D01*
X21746000Y13929104D01*
G37*
%TD.AperFunction*%
D19*
X12880004Y3054000D02*
X12697288Y3054000D01*
X12675000Y3056195D01*
X12652712Y3054000D01*
X12652705Y3054000D01*
X12594421Y3048259D01*
X12586000Y3047430D01*
X12500421Y3021470D01*
X12421551Y2979313D01*
X12352421Y2922579D01*
X12338205Y2905257D01*
X12211948Y2779000D01*
X10318684Y2779000D01*
X10311984Y2801087D01*
X10258898Y2900404D01*
X10187456Y2987456D01*
X10100404Y3058898D01*
X10001087Y3111984D01*
X9893322Y3144674D01*
X9781250Y3155712D01*
X9577255Y3155712D01*
X9586984Y3173913D01*
X9619674Y3281678D01*
X9630712Y3393750D01*
X9630712Y3485192D01*
X9690215Y3445433D01*
X9809235Y3396133D01*
X9935587Y3371000D01*
X10064413Y3371000D01*
X10190765Y3396133D01*
X10309785Y3445433D01*
X10416900Y3517005D01*
X10470895Y3571000D01*
X12363004Y3571000D01*
X12880004Y3054000D01*
%TA.AperFunction,Conductor*%
D24*
G36*
X12880004Y3054000D02*
G01*
X12697288Y3054000D01*
X12675000Y3056195D01*
X12652712Y3054000D01*
X12652705Y3054000D01*
X12594421Y3048259D01*
X12586000Y3047430D01*
X12500421Y3021470D01*
X12421551Y2979313D01*
X12352421Y2922579D01*
X12338205Y2905257D01*
X12211948Y2779000D01*
X10318684Y2779000D01*
X10311984Y2801087D01*
X10258898Y2900404D01*
X10187456Y2987456D01*
X10100404Y3058898D01*
X10001087Y3111984D01*
X9893322Y3144674D01*
X9781250Y3155712D01*
X9577255Y3155712D01*
X9586984Y3173913D01*
X9619674Y3281678D01*
X9630712Y3393750D01*
X9630712Y3485192D01*
X9690215Y3445433D01*
X9809235Y3396133D01*
X9935587Y3371000D01*
X10064413Y3371000D01*
X10190765Y3396133D01*
X10309785Y3445433D01*
X10416900Y3517005D01*
X10470895Y3571000D01*
X12363004Y3571000D01*
X12880004Y3054000D01*
G37*
%TD.AperFunction*%
%TD*%
M02*
