%TF.GenerationSoftware,KiCad,Pcbnew,5.1.8-db9833491~88~ubuntu20.04.1*%
%TF.CreationDate,2021-02-21T13:37:15+01:00*%
%TF.ProjectId,RF_STICK,52465f53-5449-4434-9b2e-6b696361645f,rev?*%
%TF.SameCoordinates,PX8f0d180PY41cdb40*%
%TF.FileFunction,Soldermask,Bot*%
%TF.FilePolarity,Negative*%
%FSLAX46Y46*%
G04 Gerber Fmt 4.6, Leading zero omitted, Abs format (unit mm)*
G04 Created by KiCad (PCBNEW 5.1.8-db9833491~88~ubuntu20.04.1) date 2021-02-21 13:37:15*
%MOMM*%
%LPD*%
G01*
G04 APERTURE LIST*
%ADD10C,0.010000*%
%ADD11R,1.000000X1.000000*%
%ADD12O,1.000000X1.000000*%
%ADD13R,0.650000X1.060000*%
%ADD14C,2.660000*%
%ADD15C,0.200000*%
%ADD16C,0.100000*%
G04 APERTURE END LIST*
D10*
%TO.C,MARK2*%
G36*
X5573781Y15234364D02*
G01*
X5545224Y15256629D01*
X5505180Y15283419D01*
X5461109Y15309821D01*
X5449427Y15316278D01*
X5423376Y15330577D01*
X5381072Y15354039D01*
X5324705Y15385441D01*
X5256465Y15423557D01*
X5178540Y15467164D01*
X5093122Y15515037D01*
X5002398Y15565952D01*
X4908560Y15618685D01*
X4902354Y15622175D01*
X4439333Y15882568D01*
X4439333Y16317432D01*
X4902354Y16577825D01*
X4996321Y16630634D01*
X5087315Y16681706D01*
X5173149Y16729816D01*
X5251631Y16773740D01*
X5320573Y16812254D01*
X5377785Y16844133D01*
X5421078Y16868153D01*
X5448261Y16883089D01*
X5449427Y16883722D01*
X5493305Y16909171D01*
X5535179Y16936341D01*
X5567591Y16960320D01*
X5573781Y16965635D01*
X5614083Y17002046D01*
X5614083Y17188252D01*
X5571361Y17219671D01*
X5553228Y17230485D01*
X5517995Y17249174D01*
X5467765Y17274702D01*
X5404637Y17306035D01*
X5330714Y17342139D01*
X5248097Y17381979D01*
X5158887Y17424521D01*
X5071298Y17465860D01*
X4915417Y17539077D01*
X4776790Y17604269D01*
X4653512Y17662409D01*
X4543676Y17714472D01*
X4445377Y17761430D01*
X4356711Y17804256D01*
X4275771Y17843923D01*
X4200653Y17881404D01*
X4129450Y17917673D01*
X4060258Y17953702D01*
X3991170Y17990465D01*
X3920282Y18028934D01*
X3845687Y18070083D01*
X3765482Y18114884D01*
X3677759Y18164312D01*
X3580614Y18219338D01*
X3472141Y18280936D01*
X3444500Y18296641D01*
X2793625Y18666458D01*
X2675648Y18669988D01*
X2620602Y18671068D01*
X2580002Y18669906D01*
X2547174Y18665687D01*
X2515445Y18657598D01*
X2482585Y18646433D01*
X2373811Y18600529D01*
X2274327Y18543644D01*
X2178573Y18472274D01*
X2112048Y18413016D01*
X2097020Y18396807D01*
X2069665Y18365108D01*
X2030849Y18318981D01*
X1981437Y18259488D01*
X1922296Y18187690D01*
X1854292Y18104650D01*
X1778289Y18011430D01*
X1695155Y17909092D01*
X1605754Y17798698D01*
X1510954Y17681309D01*
X1411618Y17557989D01*
X1308614Y17429799D01*
X1202807Y17297801D01*
X1199236Y17293340D01*
X354167Y16237722D01*
X354956Y16097423D01*
X355745Y15957125D01*
X1189685Y14916371D01*
X1294728Y14785376D01*
X1396845Y14658222D01*
X1495174Y14535970D01*
X1588856Y14419684D01*
X1677029Y14310424D01*
X1758834Y14209252D01*
X1833410Y14117231D01*
X1899896Y14035422D01*
X1957432Y13964888D01*
X2005156Y13906689D01*
X2042209Y13861889D01*
X2067730Y13831549D01*
X2080542Y13817055D01*
X2126465Y13773600D01*
X2181961Y13726863D01*
X2241257Y13681243D01*
X2298583Y13641140D01*
X2348165Y13610956D01*
X2356889Y13606372D01*
X2394025Y13589128D01*
X2440631Y13569621D01*
X2482839Y13553475D01*
X2519143Y13541277D01*
X2550651Y13533665D01*
X2584031Y13529829D01*
X2625948Y13528958D01*
X2643601Y13529332D01*
X2643601Y13681930D01*
X2598350Y13693404D01*
X2543575Y13715794D01*
X2482277Y13747365D01*
X2417456Y13786383D01*
X2352114Y13831111D01*
X2289251Y13879816D01*
X2231869Y13930762D01*
X2209620Y13952934D01*
X2196728Y13967610D01*
X2172557Y13996416D01*
X2138472Y14037658D01*
X2095840Y14089642D01*
X2046026Y14150675D01*
X1990397Y14219063D01*
X1930319Y14293112D01*
X1867158Y14371128D01*
X1802280Y14451418D01*
X1737051Y14532289D01*
X1672837Y14612045D01*
X1611004Y14688995D01*
X1552919Y14761443D01*
X1499946Y14827696D01*
X1453454Y14886061D01*
X1414807Y14934844D01*
X1385371Y14972351D01*
X1366514Y14996889D01*
X1359600Y15006763D01*
X1359591Y15006824D01*
X1368985Y15004406D01*
X1394753Y14996249D01*
X1433270Y14983536D01*
X1480906Y14967453D01*
X1495829Y14962355D01*
X1678016Y14894510D01*
X1867960Y14813700D01*
X2060629Y14722511D01*
X2250988Y14623527D01*
X2434005Y14519334D01*
X2604644Y14412518D01*
X2718538Y14334346D01*
X2773097Y14292445D01*
X2832602Y14242045D01*
X2893201Y14186856D01*
X2951042Y14130589D01*
X3002271Y14076952D01*
X3043036Y14029656D01*
X3063142Y14002518D01*
X3084038Y13970110D01*
X3099253Y13944381D01*
X3105775Y13930457D01*
X3105833Y13929916D01*
X3097087Y13922635D01*
X3072936Y13906940D01*
X3036516Y13884634D01*
X2990963Y13857518D01*
X2939412Y13827395D01*
X2884997Y13796064D01*
X2830854Y13765329D01*
X2780119Y13736990D01*
X2735925Y13712849D01*
X2701409Y13694708D01*
X2679705Y13684367D01*
X2676326Y13683108D01*
X2643601Y13681930D01*
X2643601Y13529332D01*
X2675648Y13530012D01*
X2793625Y13533542D01*
X3270427Y13804453D01*
X3270427Y14018055D01*
X3260743Y14025732D01*
X3245911Y14048100D01*
X3229084Y14080378D01*
X3228532Y14081555D01*
X3212916Y14110990D01*
X3192439Y14141240D01*
X3164483Y14175465D01*
X3126429Y14216826D01*
X3075661Y14268483D01*
X3064418Y14279667D01*
X2959980Y14376478D01*
X2845114Y14469592D01*
X2717651Y14560481D01*
X2575420Y14650615D01*
X2416252Y14741467D01*
X2271042Y14817804D01*
X2098096Y14903159D01*
X1938123Y14976437D01*
X1787723Y15038974D01*
X1643493Y15092104D01*
X1502033Y15137165D01*
X1360825Y15175273D01*
X1305819Y15189089D01*
X1257743Y15201604D01*
X1220534Y15211761D01*
X1198130Y15218499D01*
X1193852Y15220173D01*
X1183871Y15230102D01*
X1162841Y15254115D01*
X1132862Y15289709D01*
X1096032Y15334379D01*
X1054449Y15385622D01*
X1037442Y15406792D01*
X986642Y15470916D01*
X948570Y15520740D01*
X922072Y15557939D01*
X905996Y15584191D01*
X899188Y15601173D01*
X899140Y15607875D01*
X904804Y15628840D01*
X913806Y15662589D01*
X923145Y15697833D01*
X928351Y15720326D01*
X932475Y15745749D01*
X935631Y15776709D01*
X937933Y15815813D01*
X939494Y15865667D01*
X940427Y15928877D01*
X940845Y16008052D01*
X940863Y16105292D01*
X940652Y16200183D01*
X940198Y16276657D01*
X939346Y16337465D01*
X937943Y16385357D01*
X935835Y16423081D01*
X932866Y16453390D01*
X928884Y16479031D01*
X923733Y16502756D01*
X917260Y16527315D01*
X917189Y16527571D01*
X906919Y16569691D01*
X901642Y16602592D01*
X902104Y16621299D01*
X902890Y16622821D01*
X932006Y16660294D01*
X967228Y16704835D01*
X1006260Y16753630D01*
X1046803Y16803859D01*
X1086562Y16852708D01*
X1123241Y16897358D01*
X1154541Y16934993D01*
X1178168Y16962796D01*
X1191823Y16977950D01*
X1193957Y16979827D01*
X1208084Y16984611D01*
X1238853Y16993306D01*
X1282329Y17004853D01*
X1334579Y17018194D01*
X1360825Y17024727D01*
X1367136Y17026431D01*
X1367136Y17201986D01*
X1367298Y17203317D01*
X1375595Y17213751D01*
X1395941Y17239244D01*
X1427163Y17278327D01*
X1468085Y17329532D01*
X1517535Y17391391D01*
X1574338Y17462433D01*
X1637320Y17541191D01*
X1705306Y17626196D01*
X1777124Y17715979D01*
X1779741Y17719250D01*
X1870779Y17832870D01*
X1949978Y17931212D01*
X2018560Y18015654D01*
X2077754Y18087569D01*
X2128784Y18148333D01*
X2172876Y18199322D01*
X2211255Y18241910D01*
X2245147Y18277474D01*
X2275779Y18307389D01*
X2304374Y18333029D01*
X2332160Y18355770D01*
X2360362Y18376988D01*
X2375583Y18387866D01*
X2435480Y18426905D01*
X2496373Y18460982D01*
X2554634Y18488539D01*
X2606638Y18508022D01*
X2648758Y18517874D01*
X2676326Y18516892D01*
X2693841Y18509083D01*
X2725054Y18492964D01*
X2766831Y18470336D01*
X2816035Y18443000D01*
X2869533Y18412760D01*
X2924189Y18381415D01*
X2976867Y18350767D01*
X3024433Y18322619D01*
X3063751Y18298771D01*
X3091687Y18281026D01*
X3105105Y18271184D01*
X3105833Y18270083D01*
X3100334Y18257603D01*
X3085843Y18232813D01*
X3065375Y18200836D01*
X3063142Y18197481D01*
X3031903Y18156766D01*
X2987526Y18107135D01*
X2933865Y18052300D01*
X2874772Y17995969D01*
X2814098Y17941852D01*
X2755697Y17893658D01*
X2718538Y17865653D01*
X2559418Y17758096D01*
X2384232Y17651350D01*
X2198007Y17547996D01*
X2005770Y17450614D01*
X1812547Y17361787D01*
X1623366Y17284094D01*
X1494536Y17237202D01*
X1445849Y17221175D01*
X1406226Y17209388D01*
X1378908Y17202704D01*
X1367136Y17201986D01*
X1367136Y17026431D01*
X1502902Y17063090D01*
X1644368Y17108196D01*
X1788626Y17161381D01*
X1939075Y17223979D01*
X2099117Y17297327D01*
X2271042Y17382196D01*
X2445774Y17474742D01*
X2601784Y17565359D01*
X2741241Y17655520D01*
X2866315Y17746696D01*
X2979176Y17840357D01*
X3064418Y17920333D01*
X3117885Y17974292D01*
X3158142Y18017357D01*
X3187806Y18052690D01*
X3209497Y18083449D01*
X3225831Y18112795D01*
X3228532Y18118444D01*
X3245371Y18150968D01*
X3260320Y18173738D01*
X3270223Y18181975D01*
X3270427Y18181944D01*
X3281834Y18176363D01*
X3309564Y18161452D01*
X3351547Y18138361D01*
X3405715Y18108243D01*
X3470001Y18072246D01*
X3542337Y18031523D01*
X3620654Y17987223D01*
X3635552Y17978774D01*
X3727813Y17926831D01*
X3814850Y17878780D01*
X3899770Y17833036D01*
X3985683Y17788010D01*
X4075696Y17742115D01*
X4172917Y17693766D01*
X4280455Y17641375D01*
X4401417Y17583355D01*
X4524000Y17525168D01*
X4627444Y17476291D01*
X4728381Y17428680D01*
X4824588Y17383379D01*
X4913846Y17341429D01*
X4993933Y17303872D01*
X5062628Y17271750D01*
X5117710Y17246107D01*
X5156959Y17227983D01*
X5169583Y17222233D01*
X5224500Y17197031D01*
X5282134Y17169922D01*
X5334037Y17144907D01*
X5359399Y17132322D01*
X5438090Y17092592D01*
X5412316Y17073032D01*
X5394414Y17061697D01*
X5361416Y17042877D01*
X5317108Y17018655D01*
X5265276Y16991110D01*
X5227792Y16971609D01*
X5174351Y16943760D01*
X5127132Y16918604D01*
X5089529Y16897994D01*
X5064934Y16883779D01*
X5057159Y16878519D01*
X5045631Y16871083D01*
X5017607Y16854477D01*
X4975078Y16829840D01*
X4920034Y16798309D01*
X4854467Y16761023D01*
X4780367Y16719119D01*
X4699725Y16673737D01*
X4657996Y16650333D01*
X4270715Y16433375D01*
X4270358Y16373037D01*
X4273156Y16326263D01*
X4280674Y16275167D01*
X4285875Y16251751D01*
X4296402Y16191194D01*
X4300942Y16119323D01*
X4299497Y16045128D01*
X4292066Y15977598D01*
X4285875Y15948249D01*
X4276674Y15901234D01*
X4271127Y15850212D01*
X4270358Y15826963D01*
X4270715Y15766625D01*
X4657996Y15549667D01*
X4741139Y15502983D01*
X4818727Y15459214D01*
X4888767Y15419500D01*
X4949269Y15384978D01*
X4998243Y15356786D01*
X5033696Y15336062D01*
X5053639Y15323944D01*
X5057159Y15321481D01*
X5070176Y15313073D01*
X5098667Y15296925D01*
X5139238Y15274886D01*
X5188497Y15248810D01*
X5227792Y15228390D01*
X5282571Y15199777D01*
X5332392Y15173075D01*
X5373469Y15150367D01*
X5402015Y15133732D01*
X5412316Y15126968D01*
X5438090Y15107408D01*
X5359399Y15067678D01*
X5315194Y15045928D01*
X5260074Y15019628D01*
X5202489Y14992782D01*
X5169583Y14977767D01*
X5138775Y14963647D01*
X5091061Y14941504D01*
X5028661Y14912380D01*
X4953797Y14877318D01*
X4868690Y14837359D01*
X4775561Y14793545D01*
X4676631Y14746919D01*
X4574120Y14698524D01*
X4524000Y14674831D01*
X4388339Y14610407D01*
X4268892Y14553035D01*
X4162553Y14501130D01*
X4066211Y14453105D01*
X3976760Y14407372D01*
X3891092Y14362345D01*
X3806097Y14316437D01*
X3718669Y14268062D01*
X3635552Y14221226D01*
X3556359Y14176394D01*
X3482768Y14134926D01*
X3416846Y14097973D01*
X3360660Y14066687D01*
X3316280Y14042217D01*
X3285773Y14025714D01*
X3271206Y14018330D01*
X3270427Y14018055D01*
X3270427Y13804453D01*
X3444500Y13903359D01*
X3555944Y13966661D01*
X3655607Y14023160D01*
X3745396Y14073830D01*
X3827214Y14119642D01*
X3902969Y14161570D01*
X3974565Y14200588D01*
X4043908Y14237668D01*
X4112903Y14273783D01*
X4183456Y14309907D01*
X4257472Y14347012D01*
X4336856Y14386072D01*
X4423514Y14428059D01*
X4519352Y14473947D01*
X4626275Y14524709D01*
X4746188Y14581318D01*
X4880996Y14644747D01*
X5032606Y14715969D01*
X5071298Y14734139D01*
X5164775Y14778272D01*
X5253625Y14820672D01*
X5335747Y14860303D01*
X5409040Y14896132D01*
X5471402Y14927123D01*
X5520732Y14952243D01*
X5554929Y14970457D01*
X5571361Y14980329D01*
X5614083Y15011748D01*
X5614083Y15197953D01*
X5573781Y15234364D01*
G37*
X5573781Y15234364D02*
X5545224Y15256629D01*
X5505180Y15283419D01*
X5461109Y15309821D01*
X5449427Y15316278D01*
X5423376Y15330577D01*
X5381072Y15354039D01*
X5324705Y15385441D01*
X5256465Y15423557D01*
X5178540Y15467164D01*
X5093122Y15515037D01*
X5002398Y15565952D01*
X4908560Y15618685D01*
X4902354Y15622175D01*
X4439333Y15882568D01*
X4439333Y16317432D01*
X4902354Y16577825D01*
X4996321Y16630634D01*
X5087315Y16681706D01*
X5173149Y16729816D01*
X5251631Y16773740D01*
X5320573Y16812254D01*
X5377785Y16844133D01*
X5421078Y16868153D01*
X5448261Y16883089D01*
X5449427Y16883722D01*
X5493305Y16909171D01*
X5535179Y16936341D01*
X5567591Y16960320D01*
X5573781Y16965635D01*
X5614083Y17002046D01*
X5614083Y17188252D01*
X5571361Y17219671D01*
X5553228Y17230485D01*
X5517995Y17249174D01*
X5467765Y17274702D01*
X5404637Y17306035D01*
X5330714Y17342139D01*
X5248097Y17381979D01*
X5158887Y17424521D01*
X5071298Y17465860D01*
X4915417Y17539077D01*
X4776790Y17604269D01*
X4653512Y17662409D01*
X4543676Y17714472D01*
X4445377Y17761430D01*
X4356711Y17804256D01*
X4275771Y17843923D01*
X4200653Y17881404D01*
X4129450Y17917673D01*
X4060258Y17953702D01*
X3991170Y17990465D01*
X3920282Y18028934D01*
X3845687Y18070083D01*
X3765482Y18114884D01*
X3677759Y18164312D01*
X3580614Y18219338D01*
X3472141Y18280936D01*
X3444500Y18296641D01*
X2793625Y18666458D01*
X2675648Y18669988D01*
X2620602Y18671068D01*
X2580002Y18669906D01*
X2547174Y18665687D01*
X2515445Y18657598D01*
X2482585Y18646433D01*
X2373811Y18600529D01*
X2274327Y18543644D01*
X2178573Y18472274D01*
X2112048Y18413016D01*
X2097020Y18396807D01*
X2069665Y18365108D01*
X2030849Y18318981D01*
X1981437Y18259488D01*
X1922296Y18187690D01*
X1854292Y18104650D01*
X1778289Y18011430D01*
X1695155Y17909092D01*
X1605754Y17798698D01*
X1510954Y17681309D01*
X1411618Y17557989D01*
X1308614Y17429799D01*
X1202807Y17297801D01*
X1199236Y17293340D01*
X354167Y16237722D01*
X354956Y16097423D01*
X355745Y15957125D01*
X1189685Y14916371D01*
X1294728Y14785376D01*
X1396845Y14658222D01*
X1495174Y14535970D01*
X1588856Y14419684D01*
X1677029Y14310424D01*
X1758834Y14209252D01*
X1833410Y14117231D01*
X1899896Y14035422D01*
X1957432Y13964888D01*
X2005156Y13906689D01*
X2042209Y13861889D01*
X2067730Y13831549D01*
X2080542Y13817055D01*
X2126465Y13773600D01*
X2181961Y13726863D01*
X2241257Y13681243D01*
X2298583Y13641140D01*
X2348165Y13610956D01*
X2356889Y13606372D01*
X2394025Y13589128D01*
X2440631Y13569621D01*
X2482839Y13553475D01*
X2519143Y13541277D01*
X2550651Y13533665D01*
X2584031Y13529829D01*
X2625948Y13528958D01*
X2643601Y13529332D01*
X2643601Y13681930D01*
X2598350Y13693404D01*
X2543575Y13715794D01*
X2482277Y13747365D01*
X2417456Y13786383D01*
X2352114Y13831111D01*
X2289251Y13879816D01*
X2231869Y13930762D01*
X2209620Y13952934D01*
X2196728Y13967610D01*
X2172557Y13996416D01*
X2138472Y14037658D01*
X2095840Y14089642D01*
X2046026Y14150675D01*
X1990397Y14219063D01*
X1930319Y14293112D01*
X1867158Y14371128D01*
X1802280Y14451418D01*
X1737051Y14532289D01*
X1672837Y14612045D01*
X1611004Y14688995D01*
X1552919Y14761443D01*
X1499946Y14827696D01*
X1453454Y14886061D01*
X1414807Y14934844D01*
X1385371Y14972351D01*
X1366514Y14996889D01*
X1359600Y15006763D01*
X1359591Y15006824D01*
X1368985Y15004406D01*
X1394753Y14996249D01*
X1433270Y14983536D01*
X1480906Y14967453D01*
X1495829Y14962355D01*
X1678016Y14894510D01*
X1867960Y14813700D01*
X2060629Y14722511D01*
X2250988Y14623527D01*
X2434005Y14519334D01*
X2604644Y14412518D01*
X2718538Y14334346D01*
X2773097Y14292445D01*
X2832602Y14242045D01*
X2893201Y14186856D01*
X2951042Y14130589D01*
X3002271Y14076952D01*
X3043036Y14029656D01*
X3063142Y14002518D01*
X3084038Y13970110D01*
X3099253Y13944381D01*
X3105775Y13930457D01*
X3105833Y13929916D01*
X3097087Y13922635D01*
X3072936Y13906940D01*
X3036516Y13884634D01*
X2990963Y13857518D01*
X2939412Y13827395D01*
X2884997Y13796064D01*
X2830854Y13765329D01*
X2780119Y13736990D01*
X2735925Y13712849D01*
X2701409Y13694708D01*
X2679705Y13684367D01*
X2676326Y13683108D01*
X2643601Y13681930D01*
X2643601Y13529332D01*
X2675648Y13530012D01*
X2793625Y13533542D01*
X3270427Y13804453D01*
X3270427Y14018055D01*
X3260743Y14025732D01*
X3245911Y14048100D01*
X3229084Y14080378D01*
X3228532Y14081555D01*
X3212916Y14110990D01*
X3192439Y14141240D01*
X3164483Y14175465D01*
X3126429Y14216826D01*
X3075661Y14268483D01*
X3064418Y14279667D01*
X2959980Y14376478D01*
X2845114Y14469592D01*
X2717651Y14560481D01*
X2575420Y14650615D01*
X2416252Y14741467D01*
X2271042Y14817804D01*
X2098096Y14903159D01*
X1938123Y14976437D01*
X1787723Y15038974D01*
X1643493Y15092104D01*
X1502033Y15137165D01*
X1360825Y15175273D01*
X1305819Y15189089D01*
X1257743Y15201604D01*
X1220534Y15211761D01*
X1198130Y15218499D01*
X1193852Y15220173D01*
X1183871Y15230102D01*
X1162841Y15254115D01*
X1132862Y15289709D01*
X1096032Y15334379D01*
X1054449Y15385622D01*
X1037442Y15406792D01*
X986642Y15470916D01*
X948570Y15520740D01*
X922072Y15557939D01*
X905996Y15584191D01*
X899188Y15601173D01*
X899140Y15607875D01*
X904804Y15628840D01*
X913806Y15662589D01*
X923145Y15697833D01*
X928351Y15720326D01*
X932475Y15745749D01*
X935631Y15776709D01*
X937933Y15815813D01*
X939494Y15865667D01*
X940427Y15928877D01*
X940845Y16008052D01*
X940863Y16105292D01*
X940652Y16200183D01*
X940198Y16276657D01*
X939346Y16337465D01*
X937943Y16385357D01*
X935835Y16423081D01*
X932866Y16453390D01*
X928884Y16479031D01*
X923733Y16502756D01*
X917260Y16527315D01*
X917189Y16527571D01*
X906919Y16569691D01*
X901642Y16602592D01*
X902104Y16621299D01*
X902890Y16622821D01*
X932006Y16660294D01*
X967228Y16704835D01*
X1006260Y16753630D01*
X1046803Y16803859D01*
X1086562Y16852708D01*
X1123241Y16897358D01*
X1154541Y16934993D01*
X1178168Y16962796D01*
X1191823Y16977950D01*
X1193957Y16979827D01*
X1208084Y16984611D01*
X1238853Y16993306D01*
X1282329Y17004853D01*
X1334579Y17018194D01*
X1360825Y17024727D01*
X1367136Y17026431D01*
X1367136Y17201986D01*
X1367298Y17203317D01*
X1375595Y17213751D01*
X1395941Y17239244D01*
X1427163Y17278327D01*
X1468085Y17329532D01*
X1517535Y17391391D01*
X1574338Y17462433D01*
X1637320Y17541191D01*
X1705306Y17626196D01*
X1777124Y17715979D01*
X1779741Y17719250D01*
X1870779Y17832870D01*
X1949978Y17931212D01*
X2018560Y18015654D01*
X2077754Y18087569D01*
X2128784Y18148333D01*
X2172876Y18199322D01*
X2211255Y18241910D01*
X2245147Y18277474D01*
X2275779Y18307389D01*
X2304374Y18333029D01*
X2332160Y18355770D01*
X2360362Y18376988D01*
X2375583Y18387866D01*
X2435480Y18426905D01*
X2496373Y18460982D01*
X2554634Y18488539D01*
X2606638Y18508022D01*
X2648758Y18517874D01*
X2676326Y18516892D01*
X2693841Y18509083D01*
X2725054Y18492964D01*
X2766831Y18470336D01*
X2816035Y18443000D01*
X2869533Y18412760D01*
X2924189Y18381415D01*
X2976867Y18350767D01*
X3024433Y18322619D01*
X3063751Y18298771D01*
X3091687Y18281026D01*
X3105105Y18271184D01*
X3105833Y18270083D01*
X3100334Y18257603D01*
X3085843Y18232813D01*
X3065375Y18200836D01*
X3063142Y18197481D01*
X3031903Y18156766D01*
X2987526Y18107135D01*
X2933865Y18052300D01*
X2874772Y17995969D01*
X2814098Y17941852D01*
X2755697Y17893658D01*
X2718538Y17865653D01*
X2559418Y17758096D01*
X2384232Y17651350D01*
X2198007Y17547996D01*
X2005770Y17450614D01*
X1812547Y17361787D01*
X1623366Y17284094D01*
X1494536Y17237202D01*
X1445849Y17221175D01*
X1406226Y17209388D01*
X1378908Y17202704D01*
X1367136Y17201986D01*
X1367136Y17026431D01*
X1502902Y17063090D01*
X1644368Y17108196D01*
X1788626Y17161381D01*
X1939075Y17223979D01*
X2099117Y17297327D01*
X2271042Y17382196D01*
X2445774Y17474742D01*
X2601784Y17565359D01*
X2741241Y17655520D01*
X2866315Y17746696D01*
X2979176Y17840357D01*
X3064418Y17920333D01*
X3117885Y17974292D01*
X3158142Y18017357D01*
X3187806Y18052690D01*
X3209497Y18083449D01*
X3225831Y18112795D01*
X3228532Y18118444D01*
X3245371Y18150968D01*
X3260320Y18173738D01*
X3270223Y18181975D01*
X3270427Y18181944D01*
X3281834Y18176363D01*
X3309564Y18161452D01*
X3351547Y18138361D01*
X3405715Y18108243D01*
X3470001Y18072246D01*
X3542337Y18031523D01*
X3620654Y17987223D01*
X3635552Y17978774D01*
X3727813Y17926831D01*
X3814850Y17878780D01*
X3899770Y17833036D01*
X3985683Y17788010D01*
X4075696Y17742115D01*
X4172917Y17693766D01*
X4280455Y17641375D01*
X4401417Y17583355D01*
X4524000Y17525168D01*
X4627444Y17476291D01*
X4728381Y17428680D01*
X4824588Y17383379D01*
X4913846Y17341429D01*
X4993933Y17303872D01*
X5062628Y17271750D01*
X5117710Y17246107D01*
X5156959Y17227983D01*
X5169583Y17222233D01*
X5224500Y17197031D01*
X5282134Y17169922D01*
X5334037Y17144907D01*
X5359399Y17132322D01*
X5438090Y17092592D01*
X5412316Y17073032D01*
X5394414Y17061697D01*
X5361416Y17042877D01*
X5317108Y17018655D01*
X5265276Y16991110D01*
X5227792Y16971609D01*
X5174351Y16943760D01*
X5127132Y16918604D01*
X5089529Y16897994D01*
X5064934Y16883779D01*
X5057159Y16878519D01*
X5045631Y16871083D01*
X5017607Y16854477D01*
X4975078Y16829840D01*
X4920034Y16798309D01*
X4854467Y16761023D01*
X4780367Y16719119D01*
X4699725Y16673737D01*
X4657996Y16650333D01*
X4270715Y16433375D01*
X4270358Y16373037D01*
X4273156Y16326263D01*
X4280674Y16275167D01*
X4285875Y16251751D01*
X4296402Y16191194D01*
X4300942Y16119323D01*
X4299497Y16045128D01*
X4292066Y15977598D01*
X4285875Y15948249D01*
X4276674Y15901234D01*
X4271127Y15850212D01*
X4270358Y15826963D01*
X4270715Y15766625D01*
X4657996Y15549667D01*
X4741139Y15502983D01*
X4818727Y15459214D01*
X4888767Y15419500D01*
X4949269Y15384978D01*
X4998243Y15356786D01*
X5033696Y15336062D01*
X5053639Y15323944D01*
X5057159Y15321481D01*
X5070176Y15313073D01*
X5098667Y15296925D01*
X5139238Y15274886D01*
X5188497Y15248810D01*
X5227792Y15228390D01*
X5282571Y15199777D01*
X5332392Y15173075D01*
X5373469Y15150367D01*
X5402015Y15133732D01*
X5412316Y15126968D01*
X5438090Y15107408D01*
X5359399Y15067678D01*
X5315194Y15045928D01*
X5260074Y15019628D01*
X5202489Y14992782D01*
X5169583Y14977767D01*
X5138775Y14963647D01*
X5091061Y14941504D01*
X5028661Y14912380D01*
X4953797Y14877318D01*
X4868690Y14837359D01*
X4775561Y14793545D01*
X4676631Y14746919D01*
X4574120Y14698524D01*
X4524000Y14674831D01*
X4388339Y14610407D01*
X4268892Y14553035D01*
X4162553Y14501130D01*
X4066211Y14453105D01*
X3976760Y14407372D01*
X3891092Y14362345D01*
X3806097Y14316437D01*
X3718669Y14268062D01*
X3635552Y14221226D01*
X3556359Y14176394D01*
X3482768Y14134926D01*
X3416846Y14097973D01*
X3360660Y14066687D01*
X3316280Y14042217D01*
X3285773Y14025714D01*
X3271206Y14018330D01*
X3270427Y14018055D01*
X3270427Y13804453D01*
X3444500Y13903359D01*
X3555944Y13966661D01*
X3655607Y14023160D01*
X3745396Y14073830D01*
X3827214Y14119642D01*
X3902969Y14161570D01*
X3974565Y14200588D01*
X4043908Y14237668D01*
X4112903Y14273783D01*
X4183456Y14309907D01*
X4257472Y14347012D01*
X4336856Y14386072D01*
X4423514Y14428059D01*
X4519352Y14473947D01*
X4626275Y14524709D01*
X4746188Y14581318D01*
X4880996Y14644747D01*
X5032606Y14715969D01*
X5071298Y14734139D01*
X5164775Y14778272D01*
X5253625Y14820672D01*
X5335747Y14860303D01*
X5409040Y14896132D01*
X5471402Y14927123D01*
X5520732Y14952243D01*
X5554929Y14970457D01*
X5571361Y14980329D01*
X5614083Y15011748D01*
X5614083Y15197953D01*
X5573781Y15234364D01*
%TD*%
%TO.C,R10*%
G36*
G01*
X4600000Y8513750D02*
X4600000Y9026250D01*
G75*
G02*
X4818750Y9245000I218750J0D01*
G01*
X5256250Y9245000D01*
G75*
G02*
X5475000Y9026250I0J-218750D01*
G01*
X5475000Y8513750D01*
G75*
G02*
X5256250Y8295000I-218750J0D01*
G01*
X4818750Y8295000D01*
G75*
G02*
X4600000Y8513750I0J218750D01*
G01*
G37*
G36*
G01*
X3025000Y8513750D02*
X3025000Y9026250D01*
G75*
G02*
X3243750Y9245000I218750J0D01*
G01*
X3681250Y9245000D01*
G75*
G02*
X3900000Y9026250I0J-218750D01*
G01*
X3900000Y8513750D01*
G75*
G02*
X3681250Y8295000I-218750J0D01*
G01*
X3243750Y8295000D01*
G75*
G02*
X3025000Y8513750I0J218750D01*
G01*
G37*
%TD*%
%TO.C,C8*%
G36*
G01*
X4600000Y9973750D02*
X4600000Y10486250D01*
G75*
G02*
X4818750Y10705000I218750J0D01*
G01*
X5256250Y10705000D01*
G75*
G02*
X5475000Y10486250I0J-218750D01*
G01*
X5475000Y9973750D01*
G75*
G02*
X5256250Y9755000I-218750J0D01*
G01*
X4818750Y9755000D01*
G75*
G02*
X4600000Y9973750I0J218750D01*
G01*
G37*
G36*
G01*
X3025000Y9973750D02*
X3025000Y10486250D01*
G75*
G02*
X3243750Y10705000I218750J0D01*
G01*
X3681250Y10705000D01*
G75*
G02*
X3900000Y10486250I0J-218750D01*
G01*
X3900000Y9973750D01*
G75*
G02*
X3681250Y9755000I-218750J0D01*
G01*
X3243750Y9755000D01*
G75*
G02*
X3025000Y9973750I0J218750D01*
G01*
G37*
%TD*%
%TO.C,U5*%
G36*
G01*
X19137500Y7250000D02*
X18912500Y7250000D01*
G75*
G02*
X18800000Y7362500I0J112500D01*
G01*
X18800000Y9037500D01*
G75*
G02*
X18912500Y9150000I112500J0D01*
G01*
X19137500Y9150000D01*
G75*
G02*
X19250000Y9037500I0J-112500D01*
G01*
X19250000Y7362500D01*
G75*
G02*
X19137500Y7250000I-112500J0D01*
G01*
G37*
G36*
G01*
X18487500Y7250000D02*
X18262500Y7250000D01*
G75*
G02*
X18150000Y7362500I0J112500D01*
G01*
X18150000Y9037500D01*
G75*
G02*
X18262500Y9150000I112500J0D01*
G01*
X18487500Y9150000D01*
G75*
G02*
X18600000Y9037500I0J-112500D01*
G01*
X18600000Y7362500D01*
G75*
G02*
X18487500Y7250000I-112500J0D01*
G01*
G37*
G36*
G01*
X17837500Y7250000D02*
X17612500Y7250000D01*
G75*
G02*
X17500000Y7362500I0J112500D01*
G01*
X17500000Y9037500D01*
G75*
G02*
X17612500Y9150000I112500J0D01*
G01*
X17837500Y9150000D01*
G75*
G02*
X17950000Y9037500I0J-112500D01*
G01*
X17950000Y7362500D01*
G75*
G02*
X17837500Y7250000I-112500J0D01*
G01*
G37*
G36*
G01*
X17187500Y7250000D02*
X16962500Y7250000D01*
G75*
G02*
X16850000Y7362500I0J112500D01*
G01*
X16850000Y9037500D01*
G75*
G02*
X16962500Y9150000I112500J0D01*
G01*
X17187500Y9150000D01*
G75*
G02*
X17300000Y9037500I0J-112500D01*
G01*
X17300000Y7362500D01*
G75*
G02*
X17187500Y7250000I-112500J0D01*
G01*
G37*
G36*
G01*
X16537500Y7250000D02*
X16312500Y7250000D01*
G75*
G02*
X16200000Y7362500I0J112500D01*
G01*
X16200000Y9037500D01*
G75*
G02*
X16312500Y9150000I112500J0D01*
G01*
X16537500Y9150000D01*
G75*
G02*
X16650000Y9037500I0J-112500D01*
G01*
X16650000Y7362500D01*
G75*
G02*
X16537500Y7250000I-112500J0D01*
G01*
G37*
G36*
G01*
X15887500Y7250000D02*
X15662500Y7250000D01*
G75*
G02*
X15550000Y7362500I0J112500D01*
G01*
X15550000Y9037500D01*
G75*
G02*
X15662500Y9150000I112500J0D01*
G01*
X15887500Y9150000D01*
G75*
G02*
X16000000Y9037500I0J-112500D01*
G01*
X16000000Y7362500D01*
G75*
G02*
X15887500Y7250000I-112500J0D01*
G01*
G37*
G36*
G01*
X15237500Y7250000D02*
X15012500Y7250000D01*
G75*
G02*
X14900000Y7362500I0J112500D01*
G01*
X14900000Y9037500D01*
G75*
G02*
X15012500Y9150000I112500J0D01*
G01*
X15237500Y9150000D01*
G75*
G02*
X15350000Y9037500I0J-112500D01*
G01*
X15350000Y7362500D01*
G75*
G02*
X15237500Y7250000I-112500J0D01*
G01*
G37*
G36*
G01*
X14587500Y7250000D02*
X14362500Y7250000D01*
G75*
G02*
X14250000Y7362500I0J112500D01*
G01*
X14250000Y9037500D01*
G75*
G02*
X14362500Y9150000I112500J0D01*
G01*
X14587500Y9150000D01*
G75*
G02*
X14700000Y9037500I0J-112500D01*
G01*
X14700000Y7362500D01*
G75*
G02*
X14587500Y7250000I-112500J0D01*
G01*
G37*
G36*
G01*
X13937500Y7250000D02*
X13712500Y7250000D01*
G75*
G02*
X13600000Y7362500I0J112500D01*
G01*
X13600000Y9037500D01*
G75*
G02*
X13712500Y9150000I112500J0D01*
G01*
X13937500Y9150000D01*
G75*
G02*
X14050000Y9037500I0J-112500D01*
G01*
X14050000Y7362500D01*
G75*
G02*
X13937500Y7250000I-112500J0D01*
G01*
G37*
G36*
G01*
X13287500Y7250000D02*
X13062500Y7250000D01*
G75*
G02*
X12950000Y7362500I0J112500D01*
G01*
X12950000Y9037500D01*
G75*
G02*
X13062500Y9150000I112500J0D01*
G01*
X13287500Y9150000D01*
G75*
G02*
X13400000Y9037500I0J-112500D01*
G01*
X13400000Y7362500D01*
G75*
G02*
X13287500Y7250000I-112500J0D01*
G01*
G37*
G36*
G01*
X13287500Y250000D02*
X13062500Y250000D01*
G75*
G02*
X12950000Y362500I0J112500D01*
G01*
X12950000Y2037500D01*
G75*
G02*
X13062500Y2150000I112500J0D01*
G01*
X13287500Y2150000D01*
G75*
G02*
X13400000Y2037500I0J-112500D01*
G01*
X13400000Y362500D01*
G75*
G02*
X13287500Y250000I-112500J0D01*
G01*
G37*
G36*
G01*
X13937500Y250000D02*
X13712500Y250000D01*
G75*
G02*
X13600000Y362500I0J112500D01*
G01*
X13600000Y2037500D01*
G75*
G02*
X13712500Y2150000I112500J0D01*
G01*
X13937500Y2150000D01*
G75*
G02*
X14050000Y2037500I0J-112500D01*
G01*
X14050000Y362500D01*
G75*
G02*
X13937500Y250000I-112500J0D01*
G01*
G37*
G36*
G01*
X14587500Y250000D02*
X14362500Y250000D01*
G75*
G02*
X14250000Y362500I0J112500D01*
G01*
X14250000Y2037500D01*
G75*
G02*
X14362500Y2150000I112500J0D01*
G01*
X14587500Y2150000D01*
G75*
G02*
X14700000Y2037500I0J-112500D01*
G01*
X14700000Y362500D01*
G75*
G02*
X14587500Y250000I-112500J0D01*
G01*
G37*
G36*
G01*
X15237500Y250000D02*
X15012500Y250000D01*
G75*
G02*
X14900000Y362500I0J112500D01*
G01*
X14900000Y2037500D01*
G75*
G02*
X15012500Y2150000I112500J0D01*
G01*
X15237500Y2150000D01*
G75*
G02*
X15350000Y2037500I0J-112500D01*
G01*
X15350000Y362500D01*
G75*
G02*
X15237500Y250000I-112500J0D01*
G01*
G37*
G36*
G01*
X15887500Y250000D02*
X15662500Y250000D01*
G75*
G02*
X15550000Y362500I0J112500D01*
G01*
X15550000Y2037500D01*
G75*
G02*
X15662500Y2150000I112500J0D01*
G01*
X15887500Y2150000D01*
G75*
G02*
X16000000Y2037500I0J-112500D01*
G01*
X16000000Y362500D01*
G75*
G02*
X15887500Y250000I-112500J0D01*
G01*
G37*
G36*
G01*
X16537500Y250000D02*
X16312500Y250000D01*
G75*
G02*
X16200000Y362500I0J112500D01*
G01*
X16200000Y2037500D01*
G75*
G02*
X16312500Y2150000I112500J0D01*
G01*
X16537500Y2150000D01*
G75*
G02*
X16650000Y2037500I0J-112500D01*
G01*
X16650000Y362500D01*
G75*
G02*
X16537500Y250000I-112500J0D01*
G01*
G37*
G36*
G01*
X17187500Y250000D02*
X16962500Y250000D01*
G75*
G02*
X16850000Y362500I0J112500D01*
G01*
X16850000Y2037500D01*
G75*
G02*
X16962500Y2150000I112500J0D01*
G01*
X17187500Y2150000D01*
G75*
G02*
X17300000Y2037500I0J-112500D01*
G01*
X17300000Y362500D01*
G75*
G02*
X17187500Y250000I-112500J0D01*
G01*
G37*
G36*
G01*
X17837500Y250000D02*
X17612500Y250000D01*
G75*
G02*
X17500000Y362500I0J112500D01*
G01*
X17500000Y2037500D01*
G75*
G02*
X17612500Y2150000I112500J0D01*
G01*
X17837500Y2150000D01*
G75*
G02*
X17950000Y2037500I0J-112500D01*
G01*
X17950000Y362500D01*
G75*
G02*
X17837500Y250000I-112500J0D01*
G01*
G37*
G36*
G01*
X18487500Y250000D02*
X18262500Y250000D01*
G75*
G02*
X18150000Y362500I0J112500D01*
G01*
X18150000Y2037500D01*
G75*
G02*
X18262500Y2150000I112500J0D01*
G01*
X18487500Y2150000D01*
G75*
G02*
X18600000Y2037500I0J-112500D01*
G01*
X18600000Y362500D01*
G75*
G02*
X18487500Y250000I-112500J0D01*
G01*
G37*
G36*
G01*
X19137500Y250000D02*
X18912500Y250000D01*
G75*
G02*
X18800000Y362500I0J112500D01*
G01*
X18800000Y2037500D01*
G75*
G02*
X18912500Y2150000I112500J0D01*
G01*
X19137500Y2150000D01*
G75*
G02*
X19250000Y2037500I0J-112500D01*
G01*
X19250000Y362500D01*
G75*
G02*
X19137500Y250000I-112500J0D01*
G01*
G37*
%TD*%
%TO.C,R4*%
G36*
G01*
X24168750Y1650000D02*
X24681250Y1650000D01*
G75*
G02*
X24900000Y1431250I0J-218750D01*
G01*
X24900000Y993750D01*
G75*
G02*
X24681250Y775000I-218750J0D01*
G01*
X24168750Y775000D01*
G75*
G02*
X23950000Y993750I0J218750D01*
G01*
X23950000Y1431250D01*
G75*
G02*
X24168750Y1650000I218750J0D01*
G01*
G37*
G36*
G01*
X24168750Y3225000D02*
X24681250Y3225000D01*
G75*
G02*
X24900000Y3006250I0J-218750D01*
G01*
X24900000Y2568750D01*
G75*
G02*
X24681250Y2350000I-218750J0D01*
G01*
X24168750Y2350000D01*
G75*
G02*
X23950000Y2568750I0J218750D01*
G01*
X23950000Y3006250D01*
G75*
G02*
X24168750Y3225000I218750J0D01*
G01*
G37*
%TD*%
D11*
%TO.C,J2*%
X26725000Y1150000D03*
D12*
X26725000Y2420000D03*
X26725000Y3690000D03*
X26725000Y4960000D03*
X26725000Y6230000D03*
%TD*%
D13*
%TO.C,U4*%
X8700000Y9350000D03*
X6800000Y9350000D03*
X6800000Y7150000D03*
X7750000Y7150000D03*
X8700000Y7150000D03*
%TD*%
%TO.C,R9*%
G36*
G01*
X11762500Y10756250D02*
X11762500Y10243750D01*
G75*
G02*
X11543750Y10025000I-218750J0D01*
G01*
X11106250Y10025000D01*
G75*
G02*
X10887500Y10243750I0J218750D01*
G01*
X10887500Y10756250D01*
G75*
G02*
X11106250Y10975000I218750J0D01*
G01*
X11543750Y10975000D01*
G75*
G02*
X11762500Y10756250I0J-218750D01*
G01*
G37*
G36*
G01*
X13337500Y10756250D02*
X13337500Y10243750D01*
G75*
G02*
X13118750Y10025000I-218750J0D01*
G01*
X12681250Y10025000D01*
G75*
G02*
X12462500Y10243750I0J218750D01*
G01*
X12462500Y10756250D01*
G75*
G02*
X12681250Y10975000I218750J0D01*
G01*
X13118750Y10975000D01*
G75*
G02*
X13337500Y10756250I0J-218750D01*
G01*
G37*
%TD*%
%TO.C,R8*%
G36*
G01*
X16325000Y10756250D02*
X16325000Y10243750D01*
G75*
G02*
X16106250Y10025000I-218750J0D01*
G01*
X15668750Y10025000D01*
G75*
G02*
X15450000Y10243750I0J218750D01*
G01*
X15450000Y10756250D01*
G75*
G02*
X15668750Y10975000I218750J0D01*
G01*
X16106250Y10975000D01*
G75*
G02*
X16325000Y10756250I0J-218750D01*
G01*
G37*
G36*
G01*
X14750000Y10756250D02*
X14750000Y10243750D01*
G75*
G02*
X14531250Y10025000I-218750J0D01*
G01*
X14093750Y10025000D01*
G75*
G02*
X13875000Y10243750I0J218750D01*
G01*
X13875000Y10756250D01*
G75*
G02*
X14093750Y10975000I218750J0D01*
G01*
X14531250Y10975000D01*
G75*
G02*
X14750000Y10756250I0J-218750D01*
G01*
G37*
%TD*%
%TO.C,R7*%
G36*
G01*
X7550000Y2068750D02*
X7550000Y2581250D01*
G75*
G02*
X7768750Y2800000I218750J0D01*
G01*
X8206250Y2800000D01*
G75*
G02*
X8425000Y2581250I0J-218750D01*
G01*
X8425000Y2068750D01*
G75*
G02*
X8206250Y1850000I-218750J0D01*
G01*
X7768750Y1850000D01*
G75*
G02*
X7550000Y2068750I0J218750D01*
G01*
G37*
G36*
G01*
X9125000Y2068750D02*
X9125000Y2581250D01*
G75*
G02*
X9343750Y2800000I218750J0D01*
G01*
X9781250Y2800000D01*
G75*
G02*
X10000000Y2581250I0J-218750D01*
G01*
X10000000Y2068750D01*
G75*
G02*
X9781250Y1850000I-218750J0D01*
G01*
X9343750Y1850000D01*
G75*
G02*
X9125000Y2068750I0J218750D01*
G01*
G37*
%TD*%
%TO.C,R6*%
G36*
G01*
X7550000Y543750D02*
X7550000Y1056250D01*
G75*
G02*
X7768750Y1275000I218750J0D01*
G01*
X8206250Y1275000D01*
G75*
G02*
X8425000Y1056250I0J-218750D01*
G01*
X8425000Y543750D01*
G75*
G02*
X8206250Y325000I-218750J0D01*
G01*
X7768750Y325000D01*
G75*
G02*
X7550000Y543750I0J218750D01*
G01*
G37*
G36*
G01*
X9125000Y543750D02*
X9125000Y1056250D01*
G75*
G02*
X9343750Y1275000I218750J0D01*
G01*
X9781250Y1275000D01*
G75*
G02*
X10000000Y1056250I0J-218750D01*
G01*
X10000000Y543750D01*
G75*
G02*
X9781250Y325000I-218750J0D01*
G01*
X9343750Y325000D01*
G75*
G02*
X9125000Y543750I0J218750D01*
G01*
G37*
%TD*%
%TO.C,C9*%
G36*
G01*
X20643750Y7150000D02*
X21156250Y7150000D01*
G75*
G02*
X21375000Y6931250I0J-218750D01*
G01*
X21375000Y6493750D01*
G75*
G02*
X21156250Y6275000I-218750J0D01*
G01*
X20643750Y6275000D01*
G75*
G02*
X20425000Y6493750I0J218750D01*
G01*
X20425000Y6931250D01*
G75*
G02*
X20643750Y7150000I218750J0D01*
G01*
G37*
G36*
G01*
X20643750Y8725000D02*
X21156250Y8725000D01*
G75*
G02*
X21375000Y8506250I0J-218750D01*
G01*
X21375000Y8068750D01*
G75*
G02*
X21156250Y7850000I-218750J0D01*
G01*
X20643750Y7850000D01*
G75*
G02*
X20425000Y8068750I0J218750D01*
G01*
X20425000Y8506250D01*
G75*
G02*
X20643750Y8725000I218750J0D01*
G01*
G37*
%TD*%
%TO.C,C7*%
G36*
G01*
X7512500Y13306250D02*
X7512500Y12793750D01*
G75*
G02*
X7293750Y12575000I-218750J0D01*
G01*
X6856250Y12575000D01*
G75*
G02*
X6637500Y12793750I0J218750D01*
G01*
X6637500Y13306250D01*
G75*
G02*
X6856250Y13525000I218750J0D01*
G01*
X7293750Y13525000D01*
G75*
G02*
X7512500Y13306250I0J-218750D01*
G01*
G37*
G36*
G01*
X9087500Y13306250D02*
X9087500Y12793750D01*
G75*
G02*
X8868750Y12575000I-218750J0D01*
G01*
X8431250Y12575000D01*
G75*
G02*
X8212500Y12793750I0J218750D01*
G01*
X8212500Y13306250D01*
G75*
G02*
X8431250Y13525000I218750J0D01*
G01*
X8868750Y13525000D01*
G75*
G02*
X9087500Y13306250I0J-218750D01*
G01*
G37*
%TD*%
%TO.C,C6*%
G36*
G01*
X16975000Y9943750D02*
X16975000Y10856250D01*
G75*
G02*
X17218750Y11100000I243750J0D01*
G01*
X17706250Y11100000D01*
G75*
G02*
X17950000Y10856250I0J-243750D01*
G01*
X17950000Y9943750D01*
G75*
G02*
X17706250Y9700000I-243750J0D01*
G01*
X17218750Y9700000D01*
G75*
G02*
X16975000Y9943750I0J243750D01*
G01*
G37*
G36*
G01*
X18850000Y9943750D02*
X18850000Y10856250D01*
G75*
G02*
X19093750Y11100000I243750J0D01*
G01*
X19581250Y11100000D01*
G75*
G02*
X19825000Y10856250I0J-243750D01*
G01*
X19825000Y9943750D01*
G75*
G02*
X19581250Y9700000I-243750J0D01*
G01*
X19093750Y9700000D01*
G75*
G02*
X18850000Y9943750I0J243750D01*
G01*
G37*
%TD*%
%TO.C,C5*%
G36*
G01*
X21156250Y2350000D02*
X20643750Y2350000D01*
G75*
G02*
X20425000Y2568750I0J218750D01*
G01*
X20425000Y3006250D01*
G75*
G02*
X20643750Y3225000I218750J0D01*
G01*
X21156250Y3225000D01*
G75*
G02*
X21375000Y3006250I0J-218750D01*
G01*
X21375000Y2568750D01*
G75*
G02*
X21156250Y2350000I-218750J0D01*
G01*
G37*
G36*
G01*
X21156250Y775000D02*
X20643750Y775000D01*
G75*
G02*
X20425000Y993750I0J218750D01*
G01*
X20425000Y1431250D01*
G75*
G02*
X20643750Y1650000I218750J0D01*
G01*
X21156250Y1650000D01*
G75*
G02*
X21375000Y1431250I0J-218750D01*
G01*
X21375000Y993750D01*
G75*
G02*
X21156250Y775000I-218750J0D01*
G01*
G37*
%TD*%
%TO.C,C4*%
G36*
G01*
X7300000Y11706250D02*
X7300000Y10793750D01*
G75*
G02*
X7056250Y10550000I-243750J0D01*
G01*
X6568750Y10550000D01*
G75*
G02*
X6325000Y10793750I0J243750D01*
G01*
X6325000Y11706250D01*
G75*
G02*
X6568750Y11950000I243750J0D01*
G01*
X7056250Y11950000D01*
G75*
G02*
X7300000Y11706250I0J-243750D01*
G01*
G37*
G36*
G01*
X9175000Y11706250D02*
X9175000Y10793750D01*
G75*
G02*
X8931250Y10550000I-243750J0D01*
G01*
X8443750Y10550000D01*
G75*
G02*
X8200000Y10793750I0J243750D01*
G01*
X8200000Y11706250D01*
G75*
G02*
X8443750Y11950000I243750J0D01*
G01*
X8931250Y11950000D01*
G75*
G02*
X9175000Y11706250I0J-243750D01*
G01*
G37*
%TD*%
%TO.C,C3*%
G36*
G01*
X7700000Y3906250D02*
X7700000Y3393750D01*
G75*
G02*
X7481250Y3175000I-218750J0D01*
G01*
X7043750Y3175000D01*
G75*
G02*
X6825000Y3393750I0J218750D01*
G01*
X6825000Y3906250D01*
G75*
G02*
X7043750Y4125000I218750J0D01*
G01*
X7481250Y4125000D01*
G75*
G02*
X7700000Y3906250I0J-218750D01*
G01*
G37*
G36*
G01*
X9275000Y3906250D02*
X9275000Y3393750D01*
G75*
G02*
X9056250Y3175000I-218750J0D01*
G01*
X8618750Y3175000D01*
G75*
G02*
X8400000Y3393750I0J218750D01*
G01*
X8400000Y3906250D01*
G75*
G02*
X8618750Y4125000I218750J0D01*
G01*
X9056250Y4125000D01*
G75*
G02*
X9275000Y3906250I0J-218750D01*
G01*
G37*
%TD*%
%TO.C,C2*%
G36*
G01*
X7337500Y5806250D02*
X7337500Y4893750D01*
G75*
G02*
X7093750Y4650000I-243750J0D01*
G01*
X6606250Y4650000D01*
G75*
G02*
X6362500Y4893750I0J243750D01*
G01*
X6362500Y5806250D01*
G75*
G02*
X6606250Y6050000I243750J0D01*
G01*
X7093750Y6050000D01*
G75*
G02*
X7337500Y5806250I0J-243750D01*
G01*
G37*
G36*
G01*
X9212500Y5806250D02*
X9212500Y4893750D01*
G75*
G02*
X8968750Y4650000I-243750J0D01*
G01*
X8481250Y4650000D01*
G75*
G02*
X8237500Y4893750I0J243750D01*
G01*
X8237500Y5806250D01*
G75*
G02*
X8481250Y6050000I243750J0D01*
G01*
X8968750Y6050000D01*
G75*
G02*
X9212500Y5806250I0J-243750D01*
G01*
G37*
%TD*%
%TO.C,U1*%
G36*
G01*
X20695000Y16800000D02*
X20395000Y16800000D01*
G75*
G02*
X20245000Y16950000I0J150000D01*
G01*
X20245000Y18600000D01*
G75*
G02*
X20395000Y18750000I150000J0D01*
G01*
X20695000Y18750000D01*
G75*
G02*
X20845000Y18600000I0J-150000D01*
G01*
X20845000Y16950000D01*
G75*
G02*
X20695000Y16800000I-150000J0D01*
G01*
G37*
G36*
G01*
X19425000Y16800000D02*
X19125000Y16800000D01*
G75*
G02*
X18975000Y16950000I0J150000D01*
G01*
X18975000Y18600000D01*
G75*
G02*
X19125000Y18750000I150000J0D01*
G01*
X19425000Y18750000D01*
G75*
G02*
X19575000Y18600000I0J-150000D01*
G01*
X19575000Y16950000D01*
G75*
G02*
X19425000Y16800000I-150000J0D01*
G01*
G37*
G36*
G01*
X18155000Y16800000D02*
X17855000Y16800000D01*
G75*
G02*
X17705000Y16950000I0J150000D01*
G01*
X17705000Y18600000D01*
G75*
G02*
X17855000Y18750000I150000J0D01*
G01*
X18155000Y18750000D01*
G75*
G02*
X18305000Y18600000I0J-150000D01*
G01*
X18305000Y16950000D01*
G75*
G02*
X18155000Y16800000I-150000J0D01*
G01*
G37*
G36*
G01*
X16885000Y16800000D02*
X16585000Y16800000D01*
G75*
G02*
X16435000Y16950000I0J150000D01*
G01*
X16435000Y18600000D01*
G75*
G02*
X16585000Y18750000I150000J0D01*
G01*
X16885000Y18750000D01*
G75*
G02*
X17035000Y18600000I0J-150000D01*
G01*
X17035000Y16950000D01*
G75*
G02*
X16885000Y16800000I-150000J0D01*
G01*
G37*
G36*
G01*
X15615000Y16800000D02*
X15315000Y16800000D01*
G75*
G02*
X15165000Y16950000I0J150000D01*
G01*
X15165000Y18600000D01*
G75*
G02*
X15315000Y18750000I150000J0D01*
G01*
X15615000Y18750000D01*
G75*
G02*
X15765000Y18600000I0J-150000D01*
G01*
X15765000Y16950000D01*
G75*
G02*
X15615000Y16800000I-150000J0D01*
G01*
G37*
G36*
G01*
X14345000Y16800000D02*
X14045000Y16800000D01*
G75*
G02*
X13895000Y16950000I0J150000D01*
G01*
X13895000Y18600000D01*
G75*
G02*
X14045000Y18750000I150000J0D01*
G01*
X14345000Y18750000D01*
G75*
G02*
X14495000Y18600000I0J-150000D01*
G01*
X14495000Y16950000D01*
G75*
G02*
X14345000Y16800000I-150000J0D01*
G01*
G37*
G36*
G01*
X13075000Y16800000D02*
X12775000Y16800000D01*
G75*
G02*
X12625000Y16950000I0J150000D01*
G01*
X12625000Y18600000D01*
G75*
G02*
X12775000Y18750000I150000J0D01*
G01*
X13075000Y18750000D01*
G75*
G02*
X13225000Y18600000I0J-150000D01*
G01*
X13225000Y16950000D01*
G75*
G02*
X13075000Y16800000I-150000J0D01*
G01*
G37*
G36*
G01*
X11805000Y16800000D02*
X11505000Y16800000D01*
G75*
G02*
X11355000Y16950000I0J150000D01*
G01*
X11355000Y18600000D01*
G75*
G02*
X11505000Y18750000I150000J0D01*
G01*
X11805000Y18750000D01*
G75*
G02*
X11955000Y18600000I0J-150000D01*
G01*
X11955000Y16950000D01*
G75*
G02*
X11805000Y16800000I-150000J0D01*
G01*
G37*
G36*
G01*
X11805000Y11850000D02*
X11505000Y11850000D01*
G75*
G02*
X11355000Y12000000I0J150000D01*
G01*
X11355000Y13650000D01*
G75*
G02*
X11505000Y13800000I150000J0D01*
G01*
X11805000Y13800000D01*
G75*
G02*
X11955000Y13650000I0J-150000D01*
G01*
X11955000Y12000000D01*
G75*
G02*
X11805000Y11850000I-150000J0D01*
G01*
G37*
G36*
G01*
X13075000Y11850000D02*
X12775000Y11850000D01*
G75*
G02*
X12625000Y12000000I0J150000D01*
G01*
X12625000Y13650000D01*
G75*
G02*
X12775000Y13800000I150000J0D01*
G01*
X13075000Y13800000D01*
G75*
G02*
X13225000Y13650000I0J-150000D01*
G01*
X13225000Y12000000D01*
G75*
G02*
X13075000Y11850000I-150000J0D01*
G01*
G37*
G36*
G01*
X14345000Y11850000D02*
X14045000Y11850000D01*
G75*
G02*
X13895000Y12000000I0J150000D01*
G01*
X13895000Y13650000D01*
G75*
G02*
X14045000Y13800000I150000J0D01*
G01*
X14345000Y13800000D01*
G75*
G02*
X14495000Y13650000I0J-150000D01*
G01*
X14495000Y12000000D01*
G75*
G02*
X14345000Y11850000I-150000J0D01*
G01*
G37*
G36*
G01*
X15615000Y11850000D02*
X15315000Y11850000D01*
G75*
G02*
X15165000Y12000000I0J150000D01*
G01*
X15165000Y13650000D01*
G75*
G02*
X15315000Y13800000I150000J0D01*
G01*
X15615000Y13800000D01*
G75*
G02*
X15765000Y13650000I0J-150000D01*
G01*
X15765000Y12000000D01*
G75*
G02*
X15615000Y11850000I-150000J0D01*
G01*
G37*
G36*
G01*
X16885000Y11850000D02*
X16585000Y11850000D01*
G75*
G02*
X16435000Y12000000I0J150000D01*
G01*
X16435000Y13650000D01*
G75*
G02*
X16585000Y13800000I150000J0D01*
G01*
X16885000Y13800000D01*
G75*
G02*
X17035000Y13650000I0J-150000D01*
G01*
X17035000Y12000000D01*
G75*
G02*
X16885000Y11850000I-150000J0D01*
G01*
G37*
G36*
G01*
X18155000Y11850000D02*
X17855000Y11850000D01*
G75*
G02*
X17705000Y12000000I0J150000D01*
G01*
X17705000Y13650000D01*
G75*
G02*
X17855000Y13800000I150000J0D01*
G01*
X18155000Y13800000D01*
G75*
G02*
X18305000Y13650000I0J-150000D01*
G01*
X18305000Y12000000D01*
G75*
G02*
X18155000Y11850000I-150000J0D01*
G01*
G37*
G36*
G01*
X19425000Y11850000D02*
X19125000Y11850000D01*
G75*
G02*
X18975000Y12000000I0J150000D01*
G01*
X18975000Y13650000D01*
G75*
G02*
X19125000Y13800000I150000J0D01*
G01*
X19425000Y13800000D01*
G75*
G02*
X19575000Y13650000I0J-150000D01*
G01*
X19575000Y12000000D01*
G75*
G02*
X19425000Y11850000I-150000J0D01*
G01*
G37*
G36*
G01*
X20695000Y11850000D02*
X20395000Y11850000D01*
G75*
G02*
X20245000Y12000000I0J150000D01*
G01*
X20245000Y13650000D01*
G75*
G02*
X20395000Y13800000I150000J0D01*
G01*
X20695000Y13800000D01*
G75*
G02*
X20845000Y13650000I0J-150000D01*
G01*
X20845000Y12000000D01*
G75*
G02*
X20695000Y11850000I-150000J0D01*
G01*
G37*
%TD*%
D14*
%TO.C,J1*%
X2150000Y7250000D03*
X2150000Y11750000D03*
%TD*%
D15*
X4218271Y12140307D02*
X3759693Y11681729D01*
X2501115Y12940307D01*
X2959693Y13398885D01*
X4218271Y12140307D01*
D16*
G36*
X4218271Y12140307D02*
G01*
X3759693Y11681729D01*
X2501115Y12940307D01*
X2959693Y13398885D01*
X4218271Y12140307D01*
G37*
D15*
X3100000Y5200000D02*
X800000Y5200000D01*
X800000Y6700000D01*
X3100000Y6700000D01*
X3100000Y5200000D01*
D16*
G36*
X3100000Y5200000D02*
G01*
X800000Y5200000D01*
X800000Y6700000D01*
X3100000Y6700000D01*
X3100000Y5200000D01*
G37*
M02*
