%TF.GenerationSoftware,KiCad,Pcbnew,5.1.8-db9833491~88~ubuntu20.04.1*%
%TF.CreationDate,2021-02-21T13:37:15+01:00*%
%TF.ProjectId,RF_STICK,52465f53-5449-4434-9b2e-6b696361645f,rev?*%
%TF.SameCoordinates,PX8f0d180PY41cdb40*%
%TF.FileFunction,Soldermask,Top*%
%TF.FilePolarity,Negative*%
%FSLAX46Y46*%
G04 Gerber Fmt 4.6, Leading zero omitted, Abs format (unit mm)*
G04 Created by KiCad (PCBNEW 5.1.8-db9833491~88~ubuntu20.04.1) date 2021-02-21 13:37:15*
%MOMM*%
%LPD*%
G01*
G04 APERTURE LIST*
%ADD10C,0.010000*%
%ADD11R,0.550000X1.500000*%
%ADD12R,1.000000X1.000000*%
%ADD13O,1.000000X1.000000*%
%ADD14R,1.050000X2.200000*%
%ADD15R,1.000000X1.050000*%
%ADD16R,0.650000X1.060000*%
%ADD17R,1.150000X4.200000*%
%ADD18R,1.000000X2.000000*%
%ADD19C,2.660000*%
G04 APERTURE END LIST*
D10*
%TO.C,MARK1*%
G36*
X37409364Y6398781D02*
G01*
X37431629Y6370224D01*
X37458419Y6330180D01*
X37484821Y6286109D01*
X37491278Y6274427D01*
X37505577Y6248376D01*
X37529039Y6206072D01*
X37560441Y6149705D01*
X37598557Y6081465D01*
X37642164Y6003540D01*
X37690037Y5918122D01*
X37740952Y5827398D01*
X37793685Y5733560D01*
X37797175Y5727354D01*
X38057568Y5264333D01*
X38492432Y5264333D01*
X38752825Y5727354D01*
X38805634Y5821321D01*
X38856706Y5912315D01*
X38904816Y5998149D01*
X38948740Y6076631D01*
X38987254Y6145573D01*
X39019133Y6202785D01*
X39043153Y6246078D01*
X39058089Y6273261D01*
X39058722Y6274427D01*
X39084171Y6318305D01*
X39111341Y6360179D01*
X39135320Y6392591D01*
X39140635Y6398781D01*
X39177046Y6439083D01*
X39363252Y6439083D01*
X39394671Y6396361D01*
X39405485Y6378228D01*
X39424174Y6342995D01*
X39449702Y6292765D01*
X39481035Y6229637D01*
X39517139Y6155714D01*
X39556979Y6073097D01*
X39599521Y5983887D01*
X39640860Y5896298D01*
X39714077Y5740417D01*
X39779269Y5601790D01*
X39837409Y5478512D01*
X39889472Y5368676D01*
X39936430Y5270377D01*
X39979256Y5181711D01*
X40018923Y5100771D01*
X40056404Y5025653D01*
X40092673Y4954450D01*
X40128702Y4885258D01*
X40165465Y4816170D01*
X40203934Y4745282D01*
X40245083Y4670687D01*
X40289884Y4590482D01*
X40339312Y4502759D01*
X40394338Y4405614D01*
X40455936Y4297141D01*
X40471641Y4269500D01*
X40841458Y3618625D01*
X40844988Y3500648D01*
X40846068Y3445602D01*
X40844906Y3405002D01*
X40840687Y3372174D01*
X40832598Y3340445D01*
X40821433Y3307585D01*
X40775529Y3198811D01*
X40718644Y3099327D01*
X40647274Y3003573D01*
X40588016Y2937048D01*
X40571807Y2922020D01*
X40540108Y2894665D01*
X40493981Y2855849D01*
X40434488Y2806437D01*
X40362690Y2747296D01*
X40279650Y2679292D01*
X40186430Y2603289D01*
X40084092Y2520155D01*
X39973698Y2430754D01*
X39856309Y2335954D01*
X39732989Y2236618D01*
X39604799Y2133614D01*
X39472801Y2027807D01*
X39468340Y2024236D01*
X38412722Y1179167D01*
X38272423Y1179956D01*
X38132125Y1180745D01*
X37091371Y2014685D01*
X36960376Y2119728D01*
X36833222Y2221845D01*
X36710970Y2320174D01*
X36594684Y2413856D01*
X36485424Y2502029D01*
X36384252Y2583834D01*
X36292231Y2658410D01*
X36210422Y2724896D01*
X36139888Y2782432D01*
X36081689Y2830156D01*
X36036889Y2867209D01*
X36006549Y2892730D01*
X35992055Y2905542D01*
X35948600Y2951465D01*
X35901863Y3006961D01*
X35856243Y3066257D01*
X35816140Y3123583D01*
X35785956Y3173165D01*
X35781372Y3181889D01*
X35764128Y3219025D01*
X35744621Y3265631D01*
X35728475Y3307839D01*
X35716277Y3344143D01*
X35708665Y3375651D01*
X35704829Y3409031D01*
X35703958Y3450948D01*
X35704332Y3468601D01*
X35856930Y3468601D01*
X35868404Y3423350D01*
X35890794Y3368575D01*
X35922365Y3307277D01*
X35961383Y3242456D01*
X36006111Y3177114D01*
X36054816Y3114251D01*
X36105762Y3056869D01*
X36127934Y3034620D01*
X36142610Y3021728D01*
X36171416Y2997557D01*
X36212658Y2963472D01*
X36264642Y2920840D01*
X36325675Y2871026D01*
X36394063Y2815397D01*
X36468112Y2755319D01*
X36546128Y2692158D01*
X36626418Y2627280D01*
X36707289Y2562051D01*
X36787045Y2497837D01*
X36863995Y2436004D01*
X36936443Y2377919D01*
X37002696Y2324946D01*
X37061061Y2278454D01*
X37109844Y2239807D01*
X37147351Y2210371D01*
X37171889Y2191514D01*
X37181763Y2184600D01*
X37181824Y2184591D01*
X37179406Y2193985D01*
X37171249Y2219753D01*
X37158536Y2258270D01*
X37142453Y2305906D01*
X37137355Y2320829D01*
X37069510Y2503016D01*
X36988700Y2692960D01*
X36897511Y2885629D01*
X36798527Y3075988D01*
X36694334Y3259005D01*
X36587518Y3429644D01*
X36509346Y3543538D01*
X36467445Y3598097D01*
X36417045Y3657602D01*
X36361856Y3718201D01*
X36305589Y3776042D01*
X36251952Y3827271D01*
X36204656Y3868036D01*
X36177518Y3888142D01*
X36145110Y3909038D01*
X36119381Y3924253D01*
X36105457Y3930775D01*
X36104916Y3930833D01*
X36097635Y3922087D01*
X36081940Y3897936D01*
X36059634Y3861516D01*
X36032518Y3815963D01*
X36002395Y3764412D01*
X35971064Y3709997D01*
X35940329Y3655854D01*
X35911990Y3605119D01*
X35887849Y3560925D01*
X35869708Y3526409D01*
X35859367Y3504705D01*
X35858108Y3501326D01*
X35856930Y3468601D01*
X35704332Y3468601D01*
X35705012Y3500648D01*
X35708542Y3618625D01*
X35979453Y4095427D01*
X36193055Y4095427D01*
X36200732Y4085743D01*
X36223100Y4070911D01*
X36255378Y4054084D01*
X36256555Y4053532D01*
X36285990Y4037916D01*
X36316240Y4017439D01*
X36350465Y3989483D01*
X36391826Y3951429D01*
X36443483Y3900661D01*
X36454667Y3889418D01*
X36551478Y3784980D01*
X36644592Y3670114D01*
X36735481Y3542651D01*
X36825615Y3400420D01*
X36916467Y3241252D01*
X36992804Y3096042D01*
X37078159Y2923096D01*
X37151437Y2763123D01*
X37213974Y2612723D01*
X37267104Y2468493D01*
X37312165Y2327033D01*
X37350273Y2185825D01*
X37364089Y2130819D01*
X37376604Y2082743D01*
X37386761Y2045534D01*
X37393499Y2023130D01*
X37395173Y2018852D01*
X37405102Y2008871D01*
X37429115Y1987841D01*
X37464709Y1957862D01*
X37509379Y1921032D01*
X37560622Y1879449D01*
X37581792Y1862442D01*
X37645916Y1811642D01*
X37695740Y1773570D01*
X37732939Y1747072D01*
X37759191Y1730996D01*
X37776173Y1724188D01*
X37782875Y1724140D01*
X37803840Y1729804D01*
X37837589Y1738806D01*
X37872833Y1748145D01*
X37895326Y1753351D01*
X37920749Y1757475D01*
X37951709Y1760631D01*
X37990813Y1762933D01*
X38040667Y1764494D01*
X38103877Y1765427D01*
X38183052Y1765845D01*
X38280292Y1765863D01*
X38375183Y1765652D01*
X38451657Y1765198D01*
X38512465Y1764346D01*
X38560357Y1762943D01*
X38598081Y1760835D01*
X38628390Y1757866D01*
X38654031Y1753884D01*
X38677756Y1748733D01*
X38702315Y1742260D01*
X38702571Y1742189D01*
X38744691Y1731919D01*
X38777592Y1726642D01*
X38796299Y1727104D01*
X38797821Y1727890D01*
X38835294Y1757006D01*
X38879835Y1792228D01*
X38928630Y1831260D01*
X38978859Y1871803D01*
X39027708Y1911562D01*
X39072358Y1948241D01*
X39109993Y1979541D01*
X39137796Y2003168D01*
X39152950Y2016823D01*
X39154827Y2018957D01*
X39159611Y2033084D01*
X39168306Y2063853D01*
X39179853Y2107329D01*
X39193194Y2159579D01*
X39199727Y2185825D01*
X39201431Y2192136D01*
X39376986Y2192136D01*
X39378317Y2192298D01*
X39388751Y2200595D01*
X39414244Y2220941D01*
X39453327Y2252163D01*
X39504532Y2293085D01*
X39566391Y2342535D01*
X39637433Y2399338D01*
X39716191Y2462320D01*
X39801196Y2530306D01*
X39890979Y2602124D01*
X39894250Y2604741D01*
X40007870Y2695779D01*
X40106212Y2774978D01*
X40190654Y2843560D01*
X40262569Y2902754D01*
X40323333Y2953784D01*
X40374322Y2997876D01*
X40416910Y3036255D01*
X40452474Y3070147D01*
X40482389Y3100779D01*
X40508029Y3129374D01*
X40530770Y3157160D01*
X40551988Y3185362D01*
X40562866Y3200583D01*
X40601905Y3260480D01*
X40635982Y3321373D01*
X40663539Y3379634D01*
X40683022Y3431638D01*
X40692874Y3473758D01*
X40691892Y3501326D01*
X40684083Y3518841D01*
X40667964Y3550054D01*
X40645336Y3591831D01*
X40618000Y3641035D01*
X40587760Y3694533D01*
X40556415Y3749189D01*
X40525767Y3801867D01*
X40497619Y3849433D01*
X40473771Y3888751D01*
X40456026Y3916687D01*
X40446184Y3930105D01*
X40445083Y3930833D01*
X40432603Y3925334D01*
X40407813Y3910843D01*
X40375836Y3890375D01*
X40372481Y3888142D01*
X40331766Y3856903D01*
X40282135Y3812526D01*
X40227300Y3758865D01*
X40170969Y3699772D01*
X40116852Y3639098D01*
X40068658Y3580697D01*
X40040653Y3543538D01*
X39933096Y3384418D01*
X39826350Y3209232D01*
X39722996Y3023007D01*
X39625614Y2830770D01*
X39536787Y2637547D01*
X39459094Y2448366D01*
X39412202Y2319536D01*
X39396175Y2270849D01*
X39384388Y2231226D01*
X39377704Y2203908D01*
X39376986Y2192136D01*
X39201431Y2192136D01*
X39238090Y2327902D01*
X39283196Y2469368D01*
X39336381Y2613626D01*
X39398979Y2764075D01*
X39472327Y2924117D01*
X39557196Y3096042D01*
X39649742Y3270774D01*
X39740359Y3426784D01*
X39830520Y3566241D01*
X39921696Y3691315D01*
X40015357Y3804176D01*
X40095333Y3889418D01*
X40149292Y3942885D01*
X40192357Y3983142D01*
X40227690Y4012806D01*
X40258449Y4034497D01*
X40287795Y4050831D01*
X40293444Y4053532D01*
X40325968Y4070371D01*
X40348738Y4085320D01*
X40356975Y4095223D01*
X40356944Y4095427D01*
X40351363Y4106834D01*
X40336452Y4134564D01*
X40313361Y4176547D01*
X40283243Y4230715D01*
X40247246Y4295001D01*
X40206523Y4367337D01*
X40162223Y4445654D01*
X40153774Y4460552D01*
X40101831Y4552813D01*
X40053780Y4639850D01*
X40008036Y4724770D01*
X39963010Y4810683D01*
X39917115Y4900696D01*
X39868766Y4997917D01*
X39816375Y5105455D01*
X39758355Y5226417D01*
X39700168Y5349000D01*
X39651291Y5452444D01*
X39603680Y5553381D01*
X39558379Y5649588D01*
X39516429Y5738846D01*
X39478872Y5818933D01*
X39446750Y5887628D01*
X39421107Y5942710D01*
X39402983Y5981959D01*
X39397233Y5994583D01*
X39372031Y6049500D01*
X39344922Y6107134D01*
X39319907Y6159037D01*
X39307322Y6184399D01*
X39267592Y6263090D01*
X39248032Y6237316D01*
X39236697Y6219414D01*
X39217877Y6186416D01*
X39193655Y6142108D01*
X39166110Y6090276D01*
X39146609Y6052792D01*
X39118760Y5999351D01*
X39093604Y5952132D01*
X39072994Y5914529D01*
X39058779Y5889934D01*
X39053519Y5882159D01*
X39046083Y5870631D01*
X39029477Y5842607D01*
X39004840Y5800078D01*
X38973309Y5745034D01*
X38936023Y5679467D01*
X38894119Y5605367D01*
X38848737Y5524725D01*
X38825333Y5482996D01*
X38608375Y5095715D01*
X38548037Y5095358D01*
X38501263Y5098156D01*
X38450167Y5105674D01*
X38426751Y5110875D01*
X38366194Y5121402D01*
X38294323Y5125942D01*
X38220128Y5124497D01*
X38152598Y5117066D01*
X38123249Y5110875D01*
X38076234Y5101674D01*
X38025212Y5096127D01*
X38001963Y5095358D01*
X37941625Y5095715D01*
X37724667Y5482996D01*
X37677983Y5566139D01*
X37634214Y5643727D01*
X37594500Y5713767D01*
X37559978Y5774269D01*
X37531786Y5823243D01*
X37511062Y5858696D01*
X37498944Y5878639D01*
X37496481Y5882159D01*
X37488073Y5895176D01*
X37471925Y5923667D01*
X37449886Y5964238D01*
X37423810Y6013497D01*
X37403390Y6052792D01*
X37374777Y6107571D01*
X37348075Y6157392D01*
X37325367Y6198469D01*
X37308732Y6227015D01*
X37301968Y6237316D01*
X37282408Y6263090D01*
X37242678Y6184399D01*
X37220928Y6140194D01*
X37194628Y6085074D01*
X37167782Y6027489D01*
X37152767Y5994583D01*
X37138647Y5963775D01*
X37116504Y5916061D01*
X37087380Y5853661D01*
X37052318Y5778797D01*
X37012359Y5693690D01*
X36968545Y5600561D01*
X36921919Y5501631D01*
X36873524Y5399120D01*
X36849831Y5349000D01*
X36785407Y5213339D01*
X36728035Y5093892D01*
X36676130Y4987553D01*
X36628105Y4891211D01*
X36582372Y4801760D01*
X36537345Y4716092D01*
X36491437Y4631097D01*
X36443062Y4543669D01*
X36396226Y4460552D01*
X36351394Y4381359D01*
X36309926Y4307768D01*
X36272973Y4241846D01*
X36241687Y4185660D01*
X36217217Y4141280D01*
X36200714Y4110773D01*
X36193330Y4096206D01*
X36193055Y4095427D01*
X35979453Y4095427D01*
X36078359Y4269500D01*
X36141661Y4380944D01*
X36198160Y4480607D01*
X36248830Y4570396D01*
X36294642Y4652214D01*
X36336570Y4727969D01*
X36375588Y4799565D01*
X36412668Y4868908D01*
X36448783Y4937903D01*
X36484907Y5008456D01*
X36522012Y5082472D01*
X36561072Y5161856D01*
X36603059Y5248514D01*
X36648947Y5344352D01*
X36699709Y5451275D01*
X36756318Y5571188D01*
X36819747Y5705996D01*
X36890969Y5857606D01*
X36909139Y5896298D01*
X36953272Y5989775D01*
X36995672Y6078625D01*
X37035303Y6160747D01*
X37071132Y6234040D01*
X37102123Y6296402D01*
X37127243Y6345732D01*
X37145457Y6379929D01*
X37155329Y6396361D01*
X37186748Y6439083D01*
X37372953Y6439083D01*
X37409364Y6398781D01*
G37*
X37409364Y6398781D02*
X37431629Y6370224D01*
X37458419Y6330180D01*
X37484821Y6286109D01*
X37491278Y6274427D01*
X37505577Y6248376D01*
X37529039Y6206072D01*
X37560441Y6149705D01*
X37598557Y6081465D01*
X37642164Y6003540D01*
X37690037Y5918122D01*
X37740952Y5827398D01*
X37793685Y5733560D01*
X37797175Y5727354D01*
X38057568Y5264333D01*
X38492432Y5264333D01*
X38752825Y5727354D01*
X38805634Y5821321D01*
X38856706Y5912315D01*
X38904816Y5998149D01*
X38948740Y6076631D01*
X38987254Y6145573D01*
X39019133Y6202785D01*
X39043153Y6246078D01*
X39058089Y6273261D01*
X39058722Y6274427D01*
X39084171Y6318305D01*
X39111341Y6360179D01*
X39135320Y6392591D01*
X39140635Y6398781D01*
X39177046Y6439083D01*
X39363252Y6439083D01*
X39394671Y6396361D01*
X39405485Y6378228D01*
X39424174Y6342995D01*
X39449702Y6292765D01*
X39481035Y6229637D01*
X39517139Y6155714D01*
X39556979Y6073097D01*
X39599521Y5983887D01*
X39640860Y5896298D01*
X39714077Y5740417D01*
X39779269Y5601790D01*
X39837409Y5478512D01*
X39889472Y5368676D01*
X39936430Y5270377D01*
X39979256Y5181711D01*
X40018923Y5100771D01*
X40056404Y5025653D01*
X40092673Y4954450D01*
X40128702Y4885258D01*
X40165465Y4816170D01*
X40203934Y4745282D01*
X40245083Y4670687D01*
X40289884Y4590482D01*
X40339312Y4502759D01*
X40394338Y4405614D01*
X40455936Y4297141D01*
X40471641Y4269500D01*
X40841458Y3618625D01*
X40844988Y3500648D01*
X40846068Y3445602D01*
X40844906Y3405002D01*
X40840687Y3372174D01*
X40832598Y3340445D01*
X40821433Y3307585D01*
X40775529Y3198811D01*
X40718644Y3099327D01*
X40647274Y3003573D01*
X40588016Y2937048D01*
X40571807Y2922020D01*
X40540108Y2894665D01*
X40493981Y2855849D01*
X40434488Y2806437D01*
X40362690Y2747296D01*
X40279650Y2679292D01*
X40186430Y2603289D01*
X40084092Y2520155D01*
X39973698Y2430754D01*
X39856309Y2335954D01*
X39732989Y2236618D01*
X39604799Y2133614D01*
X39472801Y2027807D01*
X39468340Y2024236D01*
X38412722Y1179167D01*
X38272423Y1179956D01*
X38132125Y1180745D01*
X37091371Y2014685D01*
X36960376Y2119728D01*
X36833222Y2221845D01*
X36710970Y2320174D01*
X36594684Y2413856D01*
X36485424Y2502029D01*
X36384252Y2583834D01*
X36292231Y2658410D01*
X36210422Y2724896D01*
X36139888Y2782432D01*
X36081689Y2830156D01*
X36036889Y2867209D01*
X36006549Y2892730D01*
X35992055Y2905542D01*
X35948600Y2951465D01*
X35901863Y3006961D01*
X35856243Y3066257D01*
X35816140Y3123583D01*
X35785956Y3173165D01*
X35781372Y3181889D01*
X35764128Y3219025D01*
X35744621Y3265631D01*
X35728475Y3307839D01*
X35716277Y3344143D01*
X35708665Y3375651D01*
X35704829Y3409031D01*
X35703958Y3450948D01*
X35704332Y3468601D01*
X35856930Y3468601D01*
X35868404Y3423350D01*
X35890794Y3368575D01*
X35922365Y3307277D01*
X35961383Y3242456D01*
X36006111Y3177114D01*
X36054816Y3114251D01*
X36105762Y3056869D01*
X36127934Y3034620D01*
X36142610Y3021728D01*
X36171416Y2997557D01*
X36212658Y2963472D01*
X36264642Y2920840D01*
X36325675Y2871026D01*
X36394063Y2815397D01*
X36468112Y2755319D01*
X36546128Y2692158D01*
X36626418Y2627280D01*
X36707289Y2562051D01*
X36787045Y2497837D01*
X36863995Y2436004D01*
X36936443Y2377919D01*
X37002696Y2324946D01*
X37061061Y2278454D01*
X37109844Y2239807D01*
X37147351Y2210371D01*
X37171889Y2191514D01*
X37181763Y2184600D01*
X37181824Y2184591D01*
X37179406Y2193985D01*
X37171249Y2219753D01*
X37158536Y2258270D01*
X37142453Y2305906D01*
X37137355Y2320829D01*
X37069510Y2503016D01*
X36988700Y2692960D01*
X36897511Y2885629D01*
X36798527Y3075988D01*
X36694334Y3259005D01*
X36587518Y3429644D01*
X36509346Y3543538D01*
X36467445Y3598097D01*
X36417045Y3657602D01*
X36361856Y3718201D01*
X36305589Y3776042D01*
X36251952Y3827271D01*
X36204656Y3868036D01*
X36177518Y3888142D01*
X36145110Y3909038D01*
X36119381Y3924253D01*
X36105457Y3930775D01*
X36104916Y3930833D01*
X36097635Y3922087D01*
X36081940Y3897936D01*
X36059634Y3861516D01*
X36032518Y3815963D01*
X36002395Y3764412D01*
X35971064Y3709997D01*
X35940329Y3655854D01*
X35911990Y3605119D01*
X35887849Y3560925D01*
X35869708Y3526409D01*
X35859367Y3504705D01*
X35858108Y3501326D01*
X35856930Y3468601D01*
X35704332Y3468601D01*
X35705012Y3500648D01*
X35708542Y3618625D01*
X35979453Y4095427D01*
X36193055Y4095427D01*
X36200732Y4085743D01*
X36223100Y4070911D01*
X36255378Y4054084D01*
X36256555Y4053532D01*
X36285990Y4037916D01*
X36316240Y4017439D01*
X36350465Y3989483D01*
X36391826Y3951429D01*
X36443483Y3900661D01*
X36454667Y3889418D01*
X36551478Y3784980D01*
X36644592Y3670114D01*
X36735481Y3542651D01*
X36825615Y3400420D01*
X36916467Y3241252D01*
X36992804Y3096042D01*
X37078159Y2923096D01*
X37151437Y2763123D01*
X37213974Y2612723D01*
X37267104Y2468493D01*
X37312165Y2327033D01*
X37350273Y2185825D01*
X37364089Y2130819D01*
X37376604Y2082743D01*
X37386761Y2045534D01*
X37393499Y2023130D01*
X37395173Y2018852D01*
X37405102Y2008871D01*
X37429115Y1987841D01*
X37464709Y1957862D01*
X37509379Y1921032D01*
X37560622Y1879449D01*
X37581792Y1862442D01*
X37645916Y1811642D01*
X37695740Y1773570D01*
X37732939Y1747072D01*
X37759191Y1730996D01*
X37776173Y1724188D01*
X37782875Y1724140D01*
X37803840Y1729804D01*
X37837589Y1738806D01*
X37872833Y1748145D01*
X37895326Y1753351D01*
X37920749Y1757475D01*
X37951709Y1760631D01*
X37990813Y1762933D01*
X38040667Y1764494D01*
X38103877Y1765427D01*
X38183052Y1765845D01*
X38280292Y1765863D01*
X38375183Y1765652D01*
X38451657Y1765198D01*
X38512465Y1764346D01*
X38560357Y1762943D01*
X38598081Y1760835D01*
X38628390Y1757866D01*
X38654031Y1753884D01*
X38677756Y1748733D01*
X38702315Y1742260D01*
X38702571Y1742189D01*
X38744691Y1731919D01*
X38777592Y1726642D01*
X38796299Y1727104D01*
X38797821Y1727890D01*
X38835294Y1757006D01*
X38879835Y1792228D01*
X38928630Y1831260D01*
X38978859Y1871803D01*
X39027708Y1911562D01*
X39072358Y1948241D01*
X39109993Y1979541D01*
X39137796Y2003168D01*
X39152950Y2016823D01*
X39154827Y2018957D01*
X39159611Y2033084D01*
X39168306Y2063853D01*
X39179853Y2107329D01*
X39193194Y2159579D01*
X39199727Y2185825D01*
X39201431Y2192136D01*
X39376986Y2192136D01*
X39378317Y2192298D01*
X39388751Y2200595D01*
X39414244Y2220941D01*
X39453327Y2252163D01*
X39504532Y2293085D01*
X39566391Y2342535D01*
X39637433Y2399338D01*
X39716191Y2462320D01*
X39801196Y2530306D01*
X39890979Y2602124D01*
X39894250Y2604741D01*
X40007870Y2695779D01*
X40106212Y2774978D01*
X40190654Y2843560D01*
X40262569Y2902754D01*
X40323333Y2953784D01*
X40374322Y2997876D01*
X40416910Y3036255D01*
X40452474Y3070147D01*
X40482389Y3100779D01*
X40508029Y3129374D01*
X40530770Y3157160D01*
X40551988Y3185362D01*
X40562866Y3200583D01*
X40601905Y3260480D01*
X40635982Y3321373D01*
X40663539Y3379634D01*
X40683022Y3431638D01*
X40692874Y3473758D01*
X40691892Y3501326D01*
X40684083Y3518841D01*
X40667964Y3550054D01*
X40645336Y3591831D01*
X40618000Y3641035D01*
X40587760Y3694533D01*
X40556415Y3749189D01*
X40525767Y3801867D01*
X40497619Y3849433D01*
X40473771Y3888751D01*
X40456026Y3916687D01*
X40446184Y3930105D01*
X40445083Y3930833D01*
X40432603Y3925334D01*
X40407813Y3910843D01*
X40375836Y3890375D01*
X40372481Y3888142D01*
X40331766Y3856903D01*
X40282135Y3812526D01*
X40227300Y3758865D01*
X40170969Y3699772D01*
X40116852Y3639098D01*
X40068658Y3580697D01*
X40040653Y3543538D01*
X39933096Y3384418D01*
X39826350Y3209232D01*
X39722996Y3023007D01*
X39625614Y2830770D01*
X39536787Y2637547D01*
X39459094Y2448366D01*
X39412202Y2319536D01*
X39396175Y2270849D01*
X39384388Y2231226D01*
X39377704Y2203908D01*
X39376986Y2192136D01*
X39201431Y2192136D01*
X39238090Y2327902D01*
X39283196Y2469368D01*
X39336381Y2613626D01*
X39398979Y2764075D01*
X39472327Y2924117D01*
X39557196Y3096042D01*
X39649742Y3270774D01*
X39740359Y3426784D01*
X39830520Y3566241D01*
X39921696Y3691315D01*
X40015357Y3804176D01*
X40095333Y3889418D01*
X40149292Y3942885D01*
X40192357Y3983142D01*
X40227690Y4012806D01*
X40258449Y4034497D01*
X40287795Y4050831D01*
X40293444Y4053532D01*
X40325968Y4070371D01*
X40348738Y4085320D01*
X40356975Y4095223D01*
X40356944Y4095427D01*
X40351363Y4106834D01*
X40336452Y4134564D01*
X40313361Y4176547D01*
X40283243Y4230715D01*
X40247246Y4295001D01*
X40206523Y4367337D01*
X40162223Y4445654D01*
X40153774Y4460552D01*
X40101831Y4552813D01*
X40053780Y4639850D01*
X40008036Y4724770D01*
X39963010Y4810683D01*
X39917115Y4900696D01*
X39868766Y4997917D01*
X39816375Y5105455D01*
X39758355Y5226417D01*
X39700168Y5349000D01*
X39651291Y5452444D01*
X39603680Y5553381D01*
X39558379Y5649588D01*
X39516429Y5738846D01*
X39478872Y5818933D01*
X39446750Y5887628D01*
X39421107Y5942710D01*
X39402983Y5981959D01*
X39397233Y5994583D01*
X39372031Y6049500D01*
X39344922Y6107134D01*
X39319907Y6159037D01*
X39307322Y6184399D01*
X39267592Y6263090D01*
X39248032Y6237316D01*
X39236697Y6219414D01*
X39217877Y6186416D01*
X39193655Y6142108D01*
X39166110Y6090276D01*
X39146609Y6052792D01*
X39118760Y5999351D01*
X39093604Y5952132D01*
X39072994Y5914529D01*
X39058779Y5889934D01*
X39053519Y5882159D01*
X39046083Y5870631D01*
X39029477Y5842607D01*
X39004840Y5800078D01*
X38973309Y5745034D01*
X38936023Y5679467D01*
X38894119Y5605367D01*
X38848737Y5524725D01*
X38825333Y5482996D01*
X38608375Y5095715D01*
X38548037Y5095358D01*
X38501263Y5098156D01*
X38450167Y5105674D01*
X38426751Y5110875D01*
X38366194Y5121402D01*
X38294323Y5125942D01*
X38220128Y5124497D01*
X38152598Y5117066D01*
X38123249Y5110875D01*
X38076234Y5101674D01*
X38025212Y5096127D01*
X38001963Y5095358D01*
X37941625Y5095715D01*
X37724667Y5482996D01*
X37677983Y5566139D01*
X37634214Y5643727D01*
X37594500Y5713767D01*
X37559978Y5774269D01*
X37531786Y5823243D01*
X37511062Y5858696D01*
X37498944Y5878639D01*
X37496481Y5882159D01*
X37488073Y5895176D01*
X37471925Y5923667D01*
X37449886Y5964238D01*
X37423810Y6013497D01*
X37403390Y6052792D01*
X37374777Y6107571D01*
X37348075Y6157392D01*
X37325367Y6198469D01*
X37308732Y6227015D01*
X37301968Y6237316D01*
X37282408Y6263090D01*
X37242678Y6184399D01*
X37220928Y6140194D01*
X37194628Y6085074D01*
X37167782Y6027489D01*
X37152767Y5994583D01*
X37138647Y5963775D01*
X37116504Y5916061D01*
X37087380Y5853661D01*
X37052318Y5778797D01*
X37012359Y5693690D01*
X36968545Y5600561D01*
X36921919Y5501631D01*
X36873524Y5399120D01*
X36849831Y5349000D01*
X36785407Y5213339D01*
X36728035Y5093892D01*
X36676130Y4987553D01*
X36628105Y4891211D01*
X36582372Y4801760D01*
X36537345Y4716092D01*
X36491437Y4631097D01*
X36443062Y4543669D01*
X36396226Y4460552D01*
X36351394Y4381359D01*
X36309926Y4307768D01*
X36272973Y4241846D01*
X36241687Y4185660D01*
X36217217Y4141280D01*
X36200714Y4110773D01*
X36193330Y4096206D01*
X36193055Y4095427D01*
X35979453Y4095427D01*
X36078359Y4269500D01*
X36141661Y4380944D01*
X36198160Y4480607D01*
X36248830Y4570396D01*
X36294642Y4652214D01*
X36336570Y4727969D01*
X36375588Y4799565D01*
X36412668Y4868908D01*
X36448783Y4937903D01*
X36484907Y5008456D01*
X36522012Y5082472D01*
X36561072Y5161856D01*
X36603059Y5248514D01*
X36648947Y5344352D01*
X36699709Y5451275D01*
X36756318Y5571188D01*
X36819747Y5705996D01*
X36890969Y5857606D01*
X36909139Y5896298D01*
X36953272Y5989775D01*
X36995672Y6078625D01*
X37035303Y6160747D01*
X37071132Y6234040D01*
X37102123Y6296402D01*
X37127243Y6345732D01*
X37145457Y6379929D01*
X37155329Y6396361D01*
X37186748Y6439083D01*
X37372953Y6439083D01*
X37409364Y6398781D01*
%TD*%
D11*
%TO.C,SW1*%
X4475000Y2025000D03*
X1225000Y2025000D03*
%TD*%
D12*
%TO.C,J2*%
X26725000Y1150000D03*
D13*
X26725000Y2420000D03*
X26725000Y3690000D03*
X26725000Y4960000D03*
X26725000Y6230000D03*
%TD*%
D14*
%TO.C,J3*%
X26225000Y17275000D03*
D15*
X27700000Y15750000D03*
D14*
X29175000Y17275000D03*
%TD*%
D16*
%TO.C,U2*%
X7300000Y8400000D03*
X8250000Y8400000D03*
X6350000Y8400000D03*
X6350000Y10600000D03*
X7300000Y10600000D03*
X8250000Y10600000D03*
%TD*%
%TO.C,R5*%
G36*
G01*
X7650000Y16203750D02*
X7650000Y16716250D01*
G75*
G02*
X7868750Y16935000I218750J0D01*
G01*
X8306250Y16935000D01*
G75*
G02*
X8525000Y16716250I0J-218750D01*
G01*
X8525000Y16203750D01*
G75*
G02*
X8306250Y15985000I-218750J0D01*
G01*
X7868750Y15985000D01*
G75*
G02*
X7650000Y16203750I0J218750D01*
G01*
G37*
G36*
G01*
X6075000Y16203750D02*
X6075000Y16716250D01*
G75*
G02*
X6293750Y16935000I218750J0D01*
G01*
X6731250Y16935000D01*
G75*
G02*
X6950000Y16716250I0J-218750D01*
G01*
X6950000Y16203750D01*
G75*
G02*
X6731250Y15985000I-218750J0D01*
G01*
X6293750Y15985000D01*
G75*
G02*
X6075000Y16203750I0J218750D01*
G01*
G37*
%TD*%
%TO.C,R3*%
G36*
G01*
X26662500Y9756250D02*
X26662500Y9243750D01*
G75*
G02*
X26443750Y9025000I-218750J0D01*
G01*
X26006250Y9025000D01*
G75*
G02*
X25787500Y9243750I0J218750D01*
G01*
X25787500Y9756250D01*
G75*
G02*
X26006250Y9975000I218750J0D01*
G01*
X26443750Y9975000D01*
G75*
G02*
X26662500Y9756250I0J-218750D01*
G01*
G37*
G36*
G01*
X28237500Y9756250D02*
X28237500Y9243750D01*
G75*
G02*
X28018750Y9025000I-218750J0D01*
G01*
X27581250Y9025000D01*
G75*
G02*
X27362500Y9243750I0J218750D01*
G01*
X27362500Y9756250D01*
G75*
G02*
X27581250Y9975000I218750J0D01*
G01*
X28018750Y9975000D01*
G75*
G02*
X28237500Y9756250I0J-218750D01*
G01*
G37*
%TD*%
%TO.C,R2*%
G36*
G01*
X28056250Y12062500D02*
X27543750Y12062500D01*
G75*
G02*
X27325000Y12281250I0J218750D01*
G01*
X27325000Y12718750D01*
G75*
G02*
X27543750Y12937500I218750J0D01*
G01*
X28056250Y12937500D01*
G75*
G02*
X28275000Y12718750I0J-218750D01*
G01*
X28275000Y12281250D01*
G75*
G02*
X28056250Y12062500I-218750J0D01*
G01*
G37*
G36*
G01*
X28056250Y10487500D02*
X27543750Y10487500D01*
G75*
G02*
X27325000Y10706250I0J218750D01*
G01*
X27325000Y11143750D01*
G75*
G02*
X27543750Y11362500I218750J0D01*
G01*
X28056250Y11362500D01*
G75*
G02*
X28275000Y11143750I0J-218750D01*
G01*
X28275000Y10706250D01*
G75*
G02*
X28056250Y10487500I-218750J0D01*
G01*
G37*
%TD*%
%TO.C,R1*%
G36*
G01*
X26662500Y14156250D02*
X26662500Y13643750D01*
G75*
G02*
X26443750Y13425000I-218750J0D01*
G01*
X26006250Y13425000D01*
G75*
G02*
X25787500Y13643750I0J218750D01*
G01*
X25787500Y14156250D01*
G75*
G02*
X26006250Y14375000I218750J0D01*
G01*
X26443750Y14375000D01*
G75*
G02*
X26662500Y14156250I0J-218750D01*
G01*
G37*
G36*
G01*
X28237500Y14156250D02*
X28237500Y13643750D01*
G75*
G02*
X28018750Y13425000I-218750J0D01*
G01*
X27581250Y13425000D01*
G75*
G02*
X27362500Y13643750I0J218750D01*
G01*
X27362500Y14156250D01*
G75*
G02*
X27581250Y14375000I218750J0D01*
G01*
X28018750Y14375000D01*
G75*
G02*
X28237500Y14156250I0J-218750D01*
G01*
G37*
%TD*%
%TO.C,FB1*%
G36*
G01*
X6887500Y4556250D02*
X6887500Y3643750D01*
G75*
G02*
X6643750Y3400000I-243750J0D01*
G01*
X6156250Y3400000D01*
G75*
G02*
X5912500Y3643750I0J243750D01*
G01*
X5912500Y4556250D01*
G75*
G02*
X6156250Y4800000I243750J0D01*
G01*
X6643750Y4800000D01*
G75*
G02*
X6887500Y4556250I0J-243750D01*
G01*
G37*
G36*
G01*
X8762500Y4556250D02*
X8762500Y3643750D01*
G75*
G02*
X8518750Y3400000I-243750J0D01*
G01*
X8031250Y3400000D01*
G75*
G02*
X7787500Y3643750I0J243750D01*
G01*
X7787500Y4556250D01*
G75*
G02*
X8031250Y4800000I243750J0D01*
G01*
X8518750Y4800000D01*
G75*
G02*
X8762500Y4556250I0J-243750D01*
G01*
G37*
%TD*%
%TO.C,D3*%
G36*
G01*
X8206250Y1900000D02*
X7693750Y1900000D01*
G75*
G02*
X7475000Y2118750I0J218750D01*
G01*
X7475000Y2556250D01*
G75*
G02*
X7693750Y2775000I218750J0D01*
G01*
X8206250Y2775000D01*
G75*
G02*
X8425000Y2556250I0J-218750D01*
G01*
X8425000Y2118750D01*
G75*
G02*
X8206250Y1900000I-218750J0D01*
G01*
G37*
G36*
G01*
X8206250Y325000D02*
X7693750Y325000D01*
G75*
G02*
X7475000Y543750I0J218750D01*
G01*
X7475000Y981250D01*
G75*
G02*
X7693750Y1200000I218750J0D01*
G01*
X8206250Y1200000D01*
G75*
G02*
X8425000Y981250I0J-218750D01*
G01*
X8425000Y543750D01*
G75*
G02*
X8206250Y325000I-218750J0D01*
G01*
G37*
%TD*%
%TO.C,D2*%
G36*
G01*
X6706250Y1900000D02*
X6193750Y1900000D01*
G75*
G02*
X5975000Y2118750I0J218750D01*
G01*
X5975000Y2556250D01*
G75*
G02*
X6193750Y2775000I218750J0D01*
G01*
X6706250Y2775000D01*
G75*
G02*
X6925000Y2556250I0J-218750D01*
G01*
X6925000Y2118750D01*
G75*
G02*
X6706250Y1900000I-218750J0D01*
G01*
G37*
G36*
G01*
X6706250Y325000D02*
X6193750Y325000D01*
G75*
G02*
X5975000Y543750I0J218750D01*
G01*
X5975000Y981250D01*
G75*
G02*
X6193750Y1200000I218750J0D01*
G01*
X6706250Y1200000D01*
G75*
G02*
X6925000Y981250I0J-218750D01*
G01*
X6925000Y543750D01*
G75*
G02*
X6706250Y325000I-218750J0D01*
G01*
G37*
%TD*%
%TO.C,D1*%
G36*
G01*
X6950000Y18236250D02*
X6950000Y17723750D01*
G75*
G02*
X6731250Y17505000I-218750J0D01*
G01*
X6293750Y17505000D01*
G75*
G02*
X6075000Y17723750I0J218750D01*
G01*
X6075000Y18236250D01*
G75*
G02*
X6293750Y18455000I218750J0D01*
G01*
X6731250Y18455000D01*
G75*
G02*
X6950000Y18236250I0J-218750D01*
G01*
G37*
G36*
G01*
X8525000Y18236250D02*
X8525000Y17723750D01*
G75*
G02*
X8306250Y17505000I-218750J0D01*
G01*
X7868750Y17505000D01*
G75*
G02*
X7650000Y17723750I0J218750D01*
G01*
X7650000Y18236250D01*
G75*
G02*
X7868750Y18455000I218750J0D01*
G01*
X8306250Y18455000D01*
G75*
G02*
X8525000Y18236250I0J-218750D01*
G01*
G37*
%TD*%
%TO.C,C1*%
G36*
G01*
X7787500Y5543750D02*
X7787500Y6456250D01*
G75*
G02*
X8031250Y6700000I243750J0D01*
G01*
X8518750Y6700000D01*
G75*
G02*
X8762500Y6456250I0J-243750D01*
G01*
X8762500Y5543750D01*
G75*
G02*
X8518750Y5300000I-243750J0D01*
G01*
X8031250Y5300000D01*
G75*
G02*
X7787500Y5543750I0J243750D01*
G01*
G37*
G36*
G01*
X5912500Y5543750D02*
X5912500Y6456250D01*
G75*
G02*
X6156250Y6700000I243750J0D01*
G01*
X6643750Y6700000D01*
G75*
G02*
X6887500Y6456250I0J-243750D01*
G01*
X6887500Y5543750D01*
G75*
G02*
X6643750Y5300000I-243750J0D01*
G01*
X6156250Y5300000D01*
G75*
G02*
X5912500Y5543750I0J243750D01*
G01*
G37*
%TD*%
D17*
%TO.C,AE1*%
X44000000Y9500000D03*
X32550000Y9500000D03*
%TD*%
D18*
%TO.C,U3*%
X10200000Y17500000D03*
X12200000Y17500000D03*
X14200000Y17500000D03*
X16200000Y17500000D03*
X18200000Y17500000D03*
X20200000Y17500000D03*
X22200000Y17500000D03*
X24200000Y17500000D03*
X24200000Y1500000D03*
X22200000Y1500000D03*
X20200000Y1500000D03*
X18200000Y1500000D03*
X16200000Y1500000D03*
X14200000Y1500000D03*
X12200000Y1500000D03*
X10200000Y1500000D03*
%TD*%
%TO.C,J1*%
G36*
G01*
X3570000Y5350000D02*
X3570000Y6650000D01*
G75*
G02*
X3650000Y6730000I80000J0D01*
G01*
X5350000Y6730000D01*
G75*
G02*
X5430000Y6650000I0J-80000D01*
G01*
X5430000Y5350000D01*
G75*
G02*
X5350000Y5270000I-80000J0D01*
G01*
X3650000Y5270000D01*
G75*
G02*
X3570000Y5350000I0J80000D01*
G01*
G37*
G36*
G01*
X3570000Y7850000D02*
X3570000Y9150000D01*
G75*
G02*
X3650000Y9230000I80000J0D01*
G01*
X5350000Y9230000D01*
G75*
G02*
X5430000Y9150000I0J-80000D01*
G01*
X5430000Y7850000D01*
G75*
G02*
X5350000Y7770000I-80000J0D01*
G01*
X3650000Y7770000D01*
G75*
G02*
X3570000Y7850000I0J80000D01*
G01*
G37*
G36*
G01*
X3570000Y9850000D02*
X3570000Y11150000D01*
G75*
G02*
X3650000Y11230000I80000J0D01*
G01*
X5350000Y11230000D01*
G75*
G02*
X5430000Y11150000I0J-80000D01*
G01*
X5430000Y9850000D01*
G75*
G02*
X5350000Y9770000I-80000J0D01*
G01*
X3650000Y9770000D01*
G75*
G02*
X3570000Y9850000I0J80000D01*
G01*
G37*
G36*
G01*
X3570000Y12350000D02*
X3570000Y13650000D01*
G75*
G02*
X3650000Y13730000I80000J0D01*
G01*
X5350000Y13730000D01*
G75*
G02*
X5430000Y13650000I0J-80000D01*
G01*
X5430000Y12350000D01*
G75*
G02*
X5350000Y12270000I-80000J0D01*
G01*
X3650000Y12270000D01*
G75*
G02*
X3570000Y12350000I0J80000D01*
G01*
G37*
D19*
X2150000Y7250000D03*
X2150000Y11750000D03*
%TD*%
M02*
